%TF.GenerationSoftware,KiCad,Pcbnew,9.0.0*%
%TF.CreationDate,2025-03-03T22:54:26+00:00*%
%TF.ProjectId,controller,636f6e74-726f-46c6-9c65-722e6b696361,rev?*%
%TF.SameCoordinates,Original*%
%TF.FileFunction,Legend,Top*%
%TF.FilePolarity,Positive*%
%FSLAX46Y46*%
G04 Gerber Fmt 4.6, Leading zero omitted, Abs format (unit mm)*
G04 Created by KiCad (PCBNEW 9.0.0) date 2025-03-03 22:54:26*
%MOMM*%
%LPD*%
G01*
G04 APERTURE LIST*
%ADD10C,0.250000*%
%ADD11C,0.152400*%
%ADD12C,0.120000*%
%ADD13C,0.100000*%
%ADD14C,0.000000*%
G04 APERTURE END LIST*
D10*
X152190475Y-60522350D02*
X152190475Y-58522350D01*
X152190475Y-58522350D02*
X152666665Y-58522350D01*
X152666665Y-58522350D02*
X152952380Y-58617588D01*
X152952380Y-58617588D02*
X153142856Y-58808064D01*
X153142856Y-58808064D02*
X153238094Y-58998540D01*
X153238094Y-58998540D02*
X153333332Y-59379492D01*
X153333332Y-59379492D02*
X153333332Y-59665207D01*
X153333332Y-59665207D02*
X153238094Y-60046159D01*
X153238094Y-60046159D02*
X153142856Y-60236635D01*
X153142856Y-60236635D02*
X152952380Y-60427112D01*
X152952380Y-60427112D02*
X152666665Y-60522350D01*
X152666665Y-60522350D02*
X152190475Y-60522350D01*
X154952380Y-60427112D02*
X154761904Y-60522350D01*
X154761904Y-60522350D02*
X154380951Y-60522350D01*
X154380951Y-60522350D02*
X154190475Y-60427112D01*
X154190475Y-60427112D02*
X154095237Y-60236635D01*
X154095237Y-60236635D02*
X154095237Y-59474731D01*
X154095237Y-59474731D02*
X154190475Y-59284254D01*
X154190475Y-59284254D02*
X154380951Y-59189016D01*
X154380951Y-59189016D02*
X154761904Y-59189016D01*
X154761904Y-59189016D02*
X154952380Y-59284254D01*
X154952380Y-59284254D02*
X155047618Y-59474731D01*
X155047618Y-59474731D02*
X155047618Y-59665207D01*
X155047618Y-59665207D02*
X154095237Y-59855683D01*
X155904761Y-60522350D02*
X155904761Y-59189016D01*
X155904761Y-59379492D02*
X155999999Y-59284254D01*
X155999999Y-59284254D02*
X156190475Y-59189016D01*
X156190475Y-59189016D02*
X156476190Y-59189016D01*
X156476190Y-59189016D02*
X156666666Y-59284254D01*
X156666666Y-59284254D02*
X156761904Y-59474731D01*
X156761904Y-59474731D02*
X156761904Y-60522350D01*
X156761904Y-59474731D02*
X156857142Y-59284254D01*
X156857142Y-59284254D02*
X157047618Y-59189016D01*
X157047618Y-59189016D02*
X157333332Y-59189016D01*
X157333332Y-59189016D02*
X157523809Y-59284254D01*
X157523809Y-59284254D02*
X157619047Y-59474731D01*
X157619047Y-59474731D02*
X157619047Y-60522350D01*
X158857142Y-60522350D02*
X158666666Y-60427112D01*
X158666666Y-60427112D02*
X158571428Y-60331873D01*
X158571428Y-60331873D02*
X158476190Y-60141397D01*
X158476190Y-60141397D02*
X158476190Y-59569969D01*
X158476190Y-59569969D02*
X158571428Y-59379492D01*
X158571428Y-59379492D02*
X158666666Y-59284254D01*
X158666666Y-59284254D02*
X158857142Y-59189016D01*
X158857142Y-59189016D02*
X159142857Y-59189016D01*
X159142857Y-59189016D02*
X159333333Y-59284254D01*
X159333333Y-59284254D02*
X159428571Y-59379492D01*
X159428571Y-59379492D02*
X159523809Y-59569969D01*
X159523809Y-59569969D02*
X159523809Y-60141397D01*
X159523809Y-60141397D02*
X159428571Y-60331873D01*
X159428571Y-60331873D02*
X159333333Y-60427112D01*
X159333333Y-60427112D02*
X159142857Y-60522350D01*
X159142857Y-60522350D02*
X158857142Y-60522350D01*
X160380952Y-60522350D02*
X160380952Y-58522350D01*
X160380952Y-58522350D02*
X161142857Y-58522350D01*
X161142857Y-58522350D02*
X161333333Y-58617588D01*
X161333333Y-58617588D02*
X161428571Y-58712826D01*
X161428571Y-58712826D02*
X161523809Y-58903302D01*
X161523809Y-58903302D02*
X161523809Y-59189016D01*
X161523809Y-59189016D02*
X161428571Y-59379492D01*
X161428571Y-59379492D02*
X161333333Y-59474731D01*
X161333333Y-59474731D02*
X161142857Y-59569969D01*
X161142857Y-59569969D02*
X160380952Y-59569969D01*
X163238095Y-60522350D02*
X163238095Y-59474731D01*
X163238095Y-59474731D02*
X163142857Y-59284254D01*
X163142857Y-59284254D02*
X162952381Y-59189016D01*
X162952381Y-59189016D02*
X162571428Y-59189016D01*
X162571428Y-59189016D02*
X162380952Y-59284254D01*
X163238095Y-60427112D02*
X163047619Y-60522350D01*
X163047619Y-60522350D02*
X162571428Y-60522350D01*
X162571428Y-60522350D02*
X162380952Y-60427112D01*
X162380952Y-60427112D02*
X162285714Y-60236635D01*
X162285714Y-60236635D02*
X162285714Y-60046159D01*
X162285714Y-60046159D02*
X162380952Y-59855683D01*
X162380952Y-59855683D02*
X162571428Y-59760445D01*
X162571428Y-59760445D02*
X163047619Y-59760445D01*
X163047619Y-59760445D02*
X163238095Y-59665207D01*
X165047619Y-60522350D02*
X165047619Y-58522350D01*
X165047619Y-60427112D02*
X164857143Y-60522350D01*
X164857143Y-60522350D02*
X164476190Y-60522350D01*
X164476190Y-60522350D02*
X164285714Y-60427112D01*
X164285714Y-60427112D02*
X164190476Y-60331873D01*
X164190476Y-60331873D02*
X164095238Y-60141397D01*
X164095238Y-60141397D02*
X164095238Y-59569969D01*
X164095238Y-59569969D02*
X164190476Y-59379492D01*
X164190476Y-59379492D02*
X164285714Y-59284254D01*
X164285714Y-59284254D02*
X164476190Y-59189016D01*
X164476190Y-59189016D02*
X164857143Y-59189016D01*
X164857143Y-59189016D02*
X165047619Y-59284254D01*
X166000000Y-59760445D02*
X167523810Y-59760445D01*
X168285714Y-59189016D02*
X168761904Y-60522350D01*
X168761904Y-60522350D02*
X169238095Y-59189016D01*
X170380952Y-58522350D02*
X170571429Y-58522350D01*
X170571429Y-58522350D02*
X170761905Y-58617588D01*
X170761905Y-58617588D02*
X170857143Y-58712826D01*
X170857143Y-58712826D02*
X170952381Y-58903302D01*
X170952381Y-58903302D02*
X171047619Y-59284254D01*
X171047619Y-59284254D02*
X171047619Y-59760445D01*
X171047619Y-59760445D02*
X170952381Y-60141397D01*
X170952381Y-60141397D02*
X170857143Y-60331873D01*
X170857143Y-60331873D02*
X170761905Y-60427112D01*
X170761905Y-60427112D02*
X170571429Y-60522350D01*
X170571429Y-60522350D02*
X170380952Y-60522350D01*
X170380952Y-60522350D02*
X170190476Y-60427112D01*
X170190476Y-60427112D02*
X170095238Y-60331873D01*
X170095238Y-60331873D02*
X170000000Y-60141397D01*
X170000000Y-60141397D02*
X169904762Y-59760445D01*
X169904762Y-59760445D02*
X169904762Y-59284254D01*
X169904762Y-59284254D02*
X170000000Y-58903302D01*
X170000000Y-58903302D02*
X170095238Y-58712826D01*
X170095238Y-58712826D02*
X170190476Y-58617588D01*
X170190476Y-58617588D02*
X170380952Y-58522350D01*
X171904762Y-60331873D02*
X172000000Y-60427112D01*
X172000000Y-60427112D02*
X171904762Y-60522350D01*
X171904762Y-60522350D02*
X171809524Y-60427112D01*
X171809524Y-60427112D02*
X171904762Y-60331873D01*
X171904762Y-60331873D02*
X171904762Y-60522350D01*
X173904762Y-60522350D02*
X172761905Y-60522350D01*
X173333333Y-60522350D02*
X173333333Y-58522350D01*
X173333333Y-58522350D02*
X173142857Y-58808064D01*
X173142857Y-58808064D02*
X172952381Y-58998540D01*
X172952381Y-58998540D02*
X172761905Y-59093778D01*
X155285713Y-61742238D02*
X155476190Y-61742238D01*
X155476190Y-61742238D02*
X155666666Y-61837476D01*
X155666666Y-61837476D02*
X155761904Y-61932714D01*
X155761904Y-61932714D02*
X155857142Y-62123190D01*
X155857142Y-62123190D02*
X155952380Y-62504142D01*
X155952380Y-62504142D02*
X155952380Y-62980333D01*
X155952380Y-62980333D02*
X155857142Y-63361285D01*
X155857142Y-63361285D02*
X155761904Y-63551761D01*
X155761904Y-63551761D02*
X155666666Y-63647000D01*
X155666666Y-63647000D02*
X155476190Y-63742238D01*
X155476190Y-63742238D02*
X155285713Y-63742238D01*
X155285713Y-63742238D02*
X155095237Y-63647000D01*
X155095237Y-63647000D02*
X154999999Y-63551761D01*
X154999999Y-63551761D02*
X154904761Y-63361285D01*
X154904761Y-63361285D02*
X154809523Y-62980333D01*
X154809523Y-62980333D02*
X154809523Y-62504142D01*
X154809523Y-62504142D02*
X154904761Y-62123190D01*
X154904761Y-62123190D02*
X154999999Y-61932714D01*
X154999999Y-61932714D02*
X155095237Y-61837476D01*
X155095237Y-61837476D02*
X155285713Y-61742238D01*
X156619047Y-61742238D02*
X157857142Y-61742238D01*
X157857142Y-61742238D02*
X157190475Y-62504142D01*
X157190475Y-62504142D02*
X157476190Y-62504142D01*
X157476190Y-62504142D02*
X157666666Y-62599380D01*
X157666666Y-62599380D02*
X157761904Y-62694619D01*
X157761904Y-62694619D02*
X157857142Y-62885095D01*
X157857142Y-62885095D02*
X157857142Y-63361285D01*
X157857142Y-63361285D02*
X157761904Y-63551761D01*
X157761904Y-63551761D02*
X157666666Y-63647000D01*
X157666666Y-63647000D02*
X157476190Y-63742238D01*
X157476190Y-63742238D02*
X156904761Y-63742238D01*
X156904761Y-63742238D02*
X156714285Y-63647000D01*
X156714285Y-63647000D02*
X156619047Y-63551761D01*
X158714285Y-63551761D02*
X158809523Y-63647000D01*
X158809523Y-63647000D02*
X158714285Y-63742238D01*
X158714285Y-63742238D02*
X158619047Y-63647000D01*
X158619047Y-63647000D02*
X158714285Y-63551761D01*
X158714285Y-63551761D02*
X158714285Y-63742238D01*
X160047618Y-61742238D02*
X160238095Y-61742238D01*
X160238095Y-61742238D02*
X160428571Y-61837476D01*
X160428571Y-61837476D02*
X160523809Y-61932714D01*
X160523809Y-61932714D02*
X160619047Y-62123190D01*
X160619047Y-62123190D02*
X160714285Y-62504142D01*
X160714285Y-62504142D02*
X160714285Y-62980333D01*
X160714285Y-62980333D02*
X160619047Y-63361285D01*
X160619047Y-63361285D02*
X160523809Y-63551761D01*
X160523809Y-63551761D02*
X160428571Y-63647000D01*
X160428571Y-63647000D02*
X160238095Y-63742238D01*
X160238095Y-63742238D02*
X160047618Y-63742238D01*
X160047618Y-63742238D02*
X159857142Y-63647000D01*
X159857142Y-63647000D02*
X159761904Y-63551761D01*
X159761904Y-63551761D02*
X159666666Y-63361285D01*
X159666666Y-63361285D02*
X159571428Y-62980333D01*
X159571428Y-62980333D02*
X159571428Y-62504142D01*
X159571428Y-62504142D02*
X159666666Y-62123190D01*
X159666666Y-62123190D02*
X159761904Y-61932714D01*
X159761904Y-61932714D02*
X159857142Y-61837476D01*
X159857142Y-61837476D02*
X160047618Y-61742238D01*
X161380952Y-61742238D02*
X162619047Y-61742238D01*
X162619047Y-61742238D02*
X161952380Y-62504142D01*
X161952380Y-62504142D02*
X162238095Y-62504142D01*
X162238095Y-62504142D02*
X162428571Y-62599380D01*
X162428571Y-62599380D02*
X162523809Y-62694619D01*
X162523809Y-62694619D02*
X162619047Y-62885095D01*
X162619047Y-62885095D02*
X162619047Y-63361285D01*
X162619047Y-63361285D02*
X162523809Y-63551761D01*
X162523809Y-63551761D02*
X162428571Y-63647000D01*
X162428571Y-63647000D02*
X162238095Y-63742238D01*
X162238095Y-63742238D02*
X161666666Y-63742238D01*
X161666666Y-63742238D02*
X161476190Y-63647000D01*
X161476190Y-63647000D02*
X161380952Y-63551761D01*
X163476190Y-63551761D02*
X163571428Y-63647000D01*
X163571428Y-63647000D02*
X163476190Y-63742238D01*
X163476190Y-63742238D02*
X163380952Y-63647000D01*
X163380952Y-63647000D02*
X163476190Y-63551761D01*
X163476190Y-63551761D02*
X163476190Y-63742238D01*
X164333333Y-61932714D02*
X164428571Y-61837476D01*
X164428571Y-61837476D02*
X164619047Y-61742238D01*
X164619047Y-61742238D02*
X165095238Y-61742238D01*
X165095238Y-61742238D02*
X165285714Y-61837476D01*
X165285714Y-61837476D02*
X165380952Y-61932714D01*
X165380952Y-61932714D02*
X165476190Y-62123190D01*
X165476190Y-62123190D02*
X165476190Y-62313666D01*
X165476190Y-62313666D02*
X165380952Y-62599380D01*
X165380952Y-62599380D02*
X164238095Y-63742238D01*
X164238095Y-63742238D02*
X165476190Y-63742238D01*
X166714285Y-61742238D02*
X166904762Y-61742238D01*
X166904762Y-61742238D02*
X167095238Y-61837476D01*
X167095238Y-61837476D02*
X167190476Y-61932714D01*
X167190476Y-61932714D02*
X167285714Y-62123190D01*
X167285714Y-62123190D02*
X167380952Y-62504142D01*
X167380952Y-62504142D02*
X167380952Y-62980333D01*
X167380952Y-62980333D02*
X167285714Y-63361285D01*
X167285714Y-63361285D02*
X167190476Y-63551761D01*
X167190476Y-63551761D02*
X167095238Y-63647000D01*
X167095238Y-63647000D02*
X166904762Y-63742238D01*
X166904762Y-63742238D02*
X166714285Y-63742238D01*
X166714285Y-63742238D02*
X166523809Y-63647000D01*
X166523809Y-63647000D02*
X166428571Y-63551761D01*
X166428571Y-63551761D02*
X166333333Y-63361285D01*
X166333333Y-63361285D02*
X166238095Y-62980333D01*
X166238095Y-62980333D02*
X166238095Y-62504142D01*
X166238095Y-62504142D02*
X166333333Y-62123190D01*
X166333333Y-62123190D02*
X166428571Y-61932714D01*
X166428571Y-61932714D02*
X166523809Y-61837476D01*
X166523809Y-61837476D02*
X166714285Y-61742238D01*
X168142857Y-61932714D02*
X168238095Y-61837476D01*
X168238095Y-61837476D02*
X168428571Y-61742238D01*
X168428571Y-61742238D02*
X168904762Y-61742238D01*
X168904762Y-61742238D02*
X169095238Y-61837476D01*
X169095238Y-61837476D02*
X169190476Y-61932714D01*
X169190476Y-61932714D02*
X169285714Y-62123190D01*
X169285714Y-62123190D02*
X169285714Y-62313666D01*
X169285714Y-62313666D02*
X169190476Y-62599380D01*
X169190476Y-62599380D02*
X168047619Y-63742238D01*
X168047619Y-63742238D02*
X169285714Y-63742238D01*
X171095238Y-61742238D02*
X170142857Y-61742238D01*
X170142857Y-61742238D02*
X170047619Y-62694619D01*
X170047619Y-62694619D02*
X170142857Y-62599380D01*
X170142857Y-62599380D02*
X170333333Y-62504142D01*
X170333333Y-62504142D02*
X170809524Y-62504142D01*
X170809524Y-62504142D02*
X171000000Y-62599380D01*
X171000000Y-62599380D02*
X171095238Y-62694619D01*
X171095238Y-62694619D02*
X171190476Y-62885095D01*
X171190476Y-62885095D02*
X171190476Y-63361285D01*
X171190476Y-63361285D02*
X171095238Y-63551761D01*
X171095238Y-63551761D02*
X171000000Y-63647000D01*
X171000000Y-63647000D02*
X170809524Y-63742238D01*
X170809524Y-63742238D02*
X170333333Y-63742238D01*
X170333333Y-63742238D02*
X170142857Y-63647000D01*
X170142857Y-63647000D02*
X170047619Y-63551761D01*
D11*
X132526015Y-65379803D02*
X132526015Y-65960375D01*
X132526015Y-65960375D02*
X132487310Y-66076489D01*
X132487310Y-66076489D02*
X132409901Y-66153899D01*
X132409901Y-66153899D02*
X132293786Y-66192603D01*
X132293786Y-66192603D02*
X132216377Y-66192603D01*
X133300110Y-66192603D02*
X132913062Y-66192603D01*
X132913062Y-66192603D02*
X132913062Y-65379803D01*
X134035500Y-66115194D02*
X133996796Y-66153899D01*
X133996796Y-66153899D02*
X133880681Y-66192603D01*
X133880681Y-66192603D02*
X133803272Y-66192603D01*
X133803272Y-66192603D02*
X133687158Y-66153899D01*
X133687158Y-66153899D02*
X133609748Y-66076489D01*
X133609748Y-66076489D02*
X133571043Y-65999079D01*
X133571043Y-65999079D02*
X133532339Y-65844260D01*
X133532339Y-65844260D02*
X133532339Y-65728146D01*
X133532339Y-65728146D02*
X133571043Y-65573327D01*
X133571043Y-65573327D02*
X133609748Y-65495918D01*
X133609748Y-65495918D02*
X133687158Y-65418508D01*
X133687158Y-65418508D02*
X133803272Y-65379803D01*
X133803272Y-65379803D02*
X133880681Y-65379803D01*
X133880681Y-65379803D02*
X133996796Y-65418508D01*
X133996796Y-65418508D02*
X134035500Y-65457213D01*
X134616072Y-65379803D02*
X134616072Y-65960375D01*
X134616072Y-65960375D02*
X134577367Y-66076489D01*
X134577367Y-66076489D02*
X134499958Y-66153899D01*
X134499958Y-66153899D02*
X134383843Y-66192603D01*
X134383843Y-66192603D02*
X134306434Y-66192603D01*
X135390167Y-66192603D02*
X135003119Y-66192603D01*
X135003119Y-66192603D02*
X135003119Y-65379803D01*
X136125557Y-66115194D02*
X136086853Y-66153899D01*
X136086853Y-66153899D02*
X135970738Y-66192603D01*
X135970738Y-66192603D02*
X135893329Y-66192603D01*
X135893329Y-66192603D02*
X135777215Y-66153899D01*
X135777215Y-66153899D02*
X135699805Y-66076489D01*
X135699805Y-66076489D02*
X135661100Y-65999079D01*
X135661100Y-65999079D02*
X135622396Y-65844260D01*
X135622396Y-65844260D02*
X135622396Y-65728146D01*
X135622396Y-65728146D02*
X135661100Y-65573327D01*
X135661100Y-65573327D02*
X135699805Y-65495918D01*
X135699805Y-65495918D02*
X135777215Y-65418508D01*
X135777215Y-65418508D02*
X135893329Y-65379803D01*
X135893329Y-65379803D02*
X135970738Y-65379803D01*
X135970738Y-65379803D02*
X136086853Y-65418508D01*
X136086853Y-65418508D02*
X136125557Y-65457213D01*
X136706129Y-65379803D02*
X136706129Y-65960375D01*
X136706129Y-65960375D02*
X136667424Y-66076489D01*
X136667424Y-66076489D02*
X136590015Y-66153899D01*
X136590015Y-66153899D02*
X136473900Y-66192603D01*
X136473900Y-66192603D02*
X136396491Y-66192603D01*
X137480224Y-66192603D02*
X137093176Y-66192603D01*
X137093176Y-66192603D02*
X137093176Y-65379803D01*
X138215614Y-66115194D02*
X138176910Y-66153899D01*
X138176910Y-66153899D02*
X138060795Y-66192603D01*
X138060795Y-66192603D02*
X137983386Y-66192603D01*
X137983386Y-66192603D02*
X137867272Y-66153899D01*
X137867272Y-66153899D02*
X137789862Y-66076489D01*
X137789862Y-66076489D02*
X137751157Y-65999079D01*
X137751157Y-65999079D02*
X137712453Y-65844260D01*
X137712453Y-65844260D02*
X137712453Y-65728146D01*
X137712453Y-65728146D02*
X137751157Y-65573327D01*
X137751157Y-65573327D02*
X137789862Y-65495918D01*
X137789862Y-65495918D02*
X137867272Y-65418508D01*
X137867272Y-65418508D02*
X137983386Y-65379803D01*
X137983386Y-65379803D02*
X138060795Y-65379803D01*
X138060795Y-65379803D02*
X138176910Y-65418508D01*
X138176910Y-65418508D02*
X138215614Y-65457213D01*
X138796186Y-65379803D02*
X138796186Y-65960375D01*
X138796186Y-65960375D02*
X138757481Y-66076489D01*
X138757481Y-66076489D02*
X138680072Y-66153899D01*
X138680072Y-66153899D02*
X138563957Y-66192603D01*
X138563957Y-66192603D02*
X138486548Y-66192603D01*
X139570281Y-66192603D02*
X139183233Y-66192603D01*
X139183233Y-66192603D02*
X139183233Y-65379803D01*
X140305671Y-66115194D02*
X140266967Y-66153899D01*
X140266967Y-66153899D02*
X140150852Y-66192603D01*
X140150852Y-66192603D02*
X140073443Y-66192603D01*
X140073443Y-66192603D02*
X139957329Y-66153899D01*
X139957329Y-66153899D02*
X139879919Y-66076489D01*
X139879919Y-66076489D02*
X139841214Y-65999079D01*
X139841214Y-65999079D02*
X139802510Y-65844260D01*
X139802510Y-65844260D02*
X139802510Y-65728146D01*
X139802510Y-65728146D02*
X139841214Y-65573327D01*
X139841214Y-65573327D02*
X139879919Y-65495918D01*
X139879919Y-65495918D02*
X139957329Y-65418508D01*
X139957329Y-65418508D02*
X140073443Y-65379803D01*
X140073443Y-65379803D02*
X140150852Y-65379803D01*
X140150852Y-65379803D02*
X140266967Y-65418508D01*
X140266967Y-65418508D02*
X140305671Y-65457213D01*
D12*
%TO.C,U1*%
X113110000Y-62683000D02*
X113110000Y-70557000D01*
X113110000Y-62683000D02*
X115650000Y-62683000D01*
X113110000Y-70557000D02*
X115650000Y-70557000D01*
X115650000Y-57603000D02*
X115650000Y-62683000D01*
X115650000Y-70557000D02*
X115650000Y-75637000D01*
X115650000Y-75637000D02*
X148670000Y-75640000D01*
X118190000Y-60270000D02*
X118190000Y-57600000D01*
X118190000Y-72970000D02*
X118190000Y-75640000D01*
X120730000Y-72970000D02*
X120730000Y-75640000D01*
X146130000Y-60270000D02*
X118190000Y-60270000D01*
X146130000Y-60270000D02*
X148670000Y-60270000D01*
X148670000Y-57603000D02*
X115650000Y-57603000D01*
X148670000Y-60270000D02*
X148670000Y-57603000D01*
X148670000Y-72970000D02*
X118190000Y-72970000D01*
X148670000Y-72970000D02*
X148670000Y-75640000D01*
X148670000Y-75637000D02*
X148670000Y-60270000D01*
%TO.C,SW11*%
X110015000Y-96015000D02*
X123985000Y-96015000D01*
X110015000Y-109985000D02*
X110015000Y-96015000D01*
X123985000Y-96015000D02*
X123985000Y-109985000D01*
X123985000Y-109985000D02*
X110015000Y-109985000D01*
%TO.C,SW8*%
X145015000Y-96095000D02*
X158985000Y-96095000D01*
X145015000Y-110065000D02*
X145015000Y-96095000D01*
X158985000Y-96095000D02*
X158985000Y-110065000D01*
X158985000Y-110065000D02*
X145015000Y-110065000D01*
D13*
%TO.C,SW2*%
X148000000Y-80500000D02*
X156000000Y-80500000D01*
X148000000Y-93500000D02*
X148000000Y-80500000D01*
X156000000Y-80500000D02*
X156000000Y-93500000D01*
X156000000Y-93500000D02*
X148000000Y-93500000D01*
D14*
%TO.C,G\u002A\u002A\u002A*%
G36*
X160267431Y-70288093D02*
G01*
X160267431Y-70593219D01*
X160085978Y-70593219D01*
X159904525Y-70593219D01*
X159838714Y-70494901D01*
X159808231Y-70449879D01*
X159783285Y-70413995D01*
X159767808Y-70392864D01*
X159765150Y-70389802D01*
X159748074Y-70367697D01*
X159723880Y-70327614D01*
X159696102Y-70276515D01*
X159668274Y-70221365D01*
X159643929Y-70169128D01*
X159626601Y-70126767D01*
X159620041Y-70103822D01*
X159618842Y-70065167D01*
X159631905Y-70037286D01*
X159650715Y-70017767D01*
X159688263Y-69982968D01*
X159977847Y-69982968D01*
X160267431Y-69982968D01*
X160267431Y-70288093D01*
G37*
G36*
X167923307Y-70016254D02*
G01*
X167949837Y-70057111D01*
X167952451Y-70104453D01*
X167931072Y-70160825D01*
X167918234Y-70182643D01*
X167896983Y-70216412D01*
X167865559Y-70266559D01*
X167828122Y-70326433D01*
X167788832Y-70389388D01*
X167787079Y-70392201D01*
X167740925Y-70466580D01*
X167705474Y-70521506D01*
X167676117Y-70559912D01*
X167648245Y-70584730D01*
X167617248Y-70598894D01*
X167578518Y-70605336D01*
X167527444Y-70606990D01*
X167459420Y-70606789D01*
X167449886Y-70606780D01*
X167264975Y-70606780D01*
X167264975Y-70294874D01*
X167264975Y-69982968D01*
X167577498Y-69982968D01*
X167890020Y-69982968D01*
X167923307Y-70016254D01*
G37*
G36*
X159845870Y-69097308D02*
G01*
X159938574Y-69098104D01*
X160267431Y-69101494D01*
X160267431Y-69406620D01*
X160267431Y-69711745D01*
X160013160Y-69708865D01*
X159919860Y-69707652D01*
X159823812Y-69706132D01*
X159733085Y-69704450D01*
X159655750Y-69702754D01*
X159613827Y-69701633D01*
X159468765Y-69697281D01*
X159381846Y-69565512D01*
X159309804Y-69454177D01*
X159254422Y-69363847D01*
X159215538Y-69294251D01*
X159199118Y-69260200D01*
X159186428Y-69216106D01*
X159183283Y-69170470D01*
X159189654Y-69133332D01*
X159199492Y-69117987D01*
X159221020Y-69111749D01*
X159268339Y-69106547D01*
X159340138Y-69102416D01*
X159435102Y-69099391D01*
X159551921Y-69097508D01*
X159689281Y-69096802D01*
X159845870Y-69097308D01*
G37*
G36*
X168116505Y-69084759D02*
G01*
X168185778Y-69085278D01*
X168240675Y-69086199D01*
X168283016Y-69087559D01*
X168314623Y-69089401D01*
X168337316Y-69091765D01*
X168352915Y-69094691D01*
X168363243Y-69098220D01*
X168370119Y-69102391D01*
X168375364Y-69107246D01*
X168379804Y-69111844D01*
X168404523Y-69153782D01*
X168404837Y-69202675D01*
X168380978Y-69254143D01*
X168371543Y-69266560D01*
X168349852Y-69296320D01*
X168319007Y-69342992D01*
X168283289Y-69399928D01*
X168250468Y-69454532D01*
X168212747Y-69516696D01*
X168174632Y-69576123D01*
X168140925Y-69625507D01*
X168119172Y-69654314D01*
X168071863Y-69711256D01*
X167670434Y-69711501D01*
X167269006Y-69711745D01*
X167259427Y-69448200D01*
X167255929Y-69338206D01*
X167254577Y-69252447D01*
X167255664Y-69188100D01*
X167259486Y-69142341D01*
X167266336Y-69112346D01*
X167276509Y-69095292D01*
X167290299Y-69088355D01*
X167296997Y-69087779D01*
X167490765Y-69086747D01*
X167659232Y-69085873D01*
X167804219Y-69085196D01*
X167927546Y-69084758D01*
X168031034Y-69084599D01*
X168116505Y-69084759D01*
G37*
G36*
X159322405Y-68194812D02*
G01*
X159472408Y-68195271D01*
X159535099Y-68195485D01*
X160267431Y-68198008D01*
X160267431Y-68500579D01*
X160267431Y-68803149D01*
X159884329Y-68806540D01*
X159704989Y-68808018D01*
X159551208Y-68809037D01*
X159421426Y-68809590D01*
X159314082Y-68809670D01*
X159227617Y-68809270D01*
X159160471Y-68808381D01*
X159111085Y-68806998D01*
X159077898Y-68805112D01*
X159059350Y-68802716D01*
X159059155Y-68802671D01*
X159035224Y-68787311D01*
X159001543Y-68752410D01*
X158961286Y-68702273D01*
X158917629Y-68641205D01*
X158873745Y-68573511D01*
X158832808Y-68503494D01*
X158817661Y-68475207D01*
X158790900Y-68424305D01*
X158767153Y-68380187D01*
X158750464Y-68350333D01*
X158747287Y-68345033D01*
X158737818Y-68306636D01*
X158747755Y-68261943D01*
X158774809Y-68220935D01*
X158776020Y-68219707D01*
X158782589Y-68213883D01*
X158791151Y-68208982D01*
X158803913Y-68204935D01*
X158823087Y-68201670D01*
X158850881Y-68199118D01*
X158889505Y-68197207D01*
X158941168Y-68195868D01*
X159008080Y-68195029D01*
X159092451Y-68194621D01*
X159196489Y-68194572D01*
X159322405Y-68194812D01*
G37*
G36*
X168788846Y-68233967D02*
G01*
X168811501Y-68264942D01*
X168823781Y-68289614D01*
X168824505Y-68294015D01*
X168817591Y-68319145D01*
X168798683Y-68362066D01*
X168770533Y-68417806D01*
X168735893Y-68481391D01*
X168697517Y-68547850D01*
X168658155Y-68612210D01*
X168620559Y-68669499D01*
X168602756Y-68694660D01*
X168569190Y-68739159D01*
X168540576Y-68770534D01*
X168510985Y-68791438D01*
X168474490Y-68804521D01*
X168425161Y-68812436D01*
X168357071Y-68817834D01*
X168322744Y-68819913D01*
X168242362Y-68824705D01*
X168157342Y-68829867D01*
X168079144Y-68834699D01*
X168030931Y-68837746D01*
X167976064Y-68840427D01*
X167932109Y-68840996D01*
X167905593Y-68839443D01*
X167901011Y-68837975D01*
X167885752Y-68835656D01*
X167847510Y-68833555D01*
X167790426Y-68831792D01*
X167718638Y-68830486D01*
X167636286Y-68829755D01*
X167613098Y-68829673D01*
X167519051Y-68829347D01*
X167448211Y-68828618D01*
X167396659Y-68827083D01*
X167360481Y-68824338D01*
X167335759Y-68819977D01*
X167318577Y-68813598D01*
X167305019Y-68804796D01*
X167295500Y-68796903D01*
X167258195Y-68764813D01*
X167262727Y-68495807D01*
X167264751Y-68412633D01*
X167267735Y-68338527D01*
X167271407Y-68277843D01*
X167275497Y-68234936D01*
X167279732Y-68214161D01*
X167280345Y-68213240D01*
X167297014Y-68209970D01*
X167339847Y-68206947D01*
X167407886Y-68204195D01*
X167500173Y-68201736D01*
X167615751Y-68199593D01*
X167753663Y-68197788D01*
X167912950Y-68196344D01*
X168023308Y-68195633D01*
X168753186Y-68191588D01*
X168788846Y-68233967D01*
G37*
G36*
X163889763Y-66880622D02*
G01*
X163956901Y-66899503D01*
X164025152Y-66919916D01*
X164082868Y-66938341D01*
X164098451Y-66943678D01*
X164126326Y-66953236D01*
X164177326Y-66970451D01*
X164248830Y-66994449D01*
X164338218Y-67024355D01*
X164442869Y-67059294D01*
X164560164Y-67098391D01*
X164687481Y-67140770D01*
X164822201Y-67185556D01*
X164918899Y-67217669D01*
X165056227Y-67263380D01*
X165187154Y-67307200D01*
X165309174Y-67348276D01*
X165419786Y-67385754D01*
X165516483Y-67418778D01*
X165596762Y-67446496D01*
X165658118Y-67468052D01*
X165698049Y-67482592D01*
X165712226Y-67488284D01*
X165761402Y-67507619D01*
X165816441Y-67524362D01*
X165830000Y-67527622D01*
X165881636Y-67541001D01*
X165940069Y-67558879D01*
X165965611Y-67567639D01*
X165999370Y-67579298D01*
X166054195Y-67597645D01*
X166125315Y-67621112D01*
X166207961Y-67648129D01*
X166297364Y-67677125D01*
X166342818Y-67691781D01*
X166450441Y-67726758D01*
X166535207Y-67755265D01*
X166600247Y-67778604D01*
X166648689Y-67798078D01*
X166683663Y-67814988D01*
X166708297Y-67830636D01*
X166725720Y-67846323D01*
X166731996Y-67853684D01*
X166739106Y-67877141D01*
X166742784Y-67920562D01*
X166743058Y-67977011D01*
X166739955Y-68039551D01*
X166733502Y-68101244D01*
X166730955Y-68118312D01*
X166727874Y-68145214D01*
X166723536Y-68193700D01*
X166718386Y-68258286D01*
X166712868Y-68333486D01*
X166709022Y-68389535D01*
X166703218Y-68468916D01*
X166696957Y-68541520D01*
X166690786Y-68601860D01*
X166685250Y-68644450D01*
X166682047Y-68660758D01*
X166677961Y-68688182D01*
X166674359Y-68736944D01*
X166671530Y-68801256D01*
X166669759Y-68875334D01*
X166669350Y-68916341D01*
X166668559Y-68990312D01*
X166667083Y-69054740D01*
X166665095Y-69104740D01*
X166662769Y-69135426D01*
X166661288Y-69142528D01*
X166659138Y-69158414D01*
X166656372Y-69198024D01*
X166653151Y-69257972D01*
X166649638Y-69334869D01*
X166645992Y-69425330D01*
X166642376Y-69525967D01*
X166640862Y-69571781D01*
X166636888Y-69688029D01*
X166632418Y-69806546D01*
X166627698Y-69921564D01*
X166622976Y-70027314D01*
X166618501Y-70118027D01*
X166614519Y-70187933D01*
X166614183Y-70193165D01*
X166608429Y-70287180D01*
X166602379Y-70395321D01*
X166596730Y-70504607D01*
X166592177Y-70602061D01*
X166591946Y-70607431D01*
X166582937Y-70818280D01*
X166628774Y-70871873D01*
X166649060Y-70894129D01*
X166685857Y-70932999D01*
X166736595Y-70985827D01*
X166798701Y-71049954D01*
X166869604Y-71122723D01*
X166946732Y-71201476D01*
X167008717Y-71264495D01*
X167122210Y-71379940D01*
X167217622Y-71477650D01*
X167296175Y-71558939D01*
X167359089Y-71625126D01*
X167407587Y-71677526D01*
X167442891Y-71717456D01*
X167466221Y-71746233D01*
X167478801Y-71765173D01*
X167481953Y-71774478D01*
X167473182Y-71797662D01*
X167449503Y-71834694D01*
X167414875Y-71879934D01*
X167378345Y-71922210D01*
X167343883Y-71961477D01*
X167311390Y-72000890D01*
X167304028Y-72010357D01*
X167282782Y-72037172D01*
X167248949Y-72078640D01*
X167207482Y-72128728D01*
X167170345Y-72173091D01*
X167122623Y-72230549D01*
X167074946Y-72289243D01*
X167033788Y-72341141D01*
X167011871Y-72369727D01*
X166975562Y-72416758D01*
X166938331Y-72462557D01*
X166913912Y-72490829D01*
X166888534Y-72522417D01*
X166873485Y-72548144D01*
X166871702Y-72555245D01*
X166863654Y-72571667D01*
X166858361Y-72573144D01*
X166845852Y-72583116D01*
X166818734Y-72611023D01*
X166779626Y-72653853D01*
X166731146Y-72708594D01*
X166675913Y-72772235D01*
X166616546Y-72841763D01*
X166555665Y-72914166D01*
X166495889Y-72986433D01*
X166451307Y-73041273D01*
X166412546Y-73089046D01*
X166375908Y-73133620D01*
X166347921Y-73167070D01*
X166342712Y-73173145D01*
X166308703Y-73212437D01*
X165834170Y-73211277D01*
X165359636Y-73210116D01*
X165336580Y-73288293D01*
X165321065Y-73346985D01*
X165305871Y-73414131D01*
X165298007Y-73454618D01*
X165284912Y-73518086D01*
X165267987Y-73586192D01*
X165257048Y-73624132D01*
X165242749Y-73671888D01*
X165224561Y-73735524D01*
X165204420Y-73807930D01*
X165184263Y-73881998D01*
X165166027Y-73950618D01*
X165151648Y-74006681D01*
X165143614Y-74040493D01*
X165119356Y-74096209D01*
X165074102Y-74135149D01*
X165007451Y-74157644D01*
X164999526Y-74159012D01*
X164939644Y-74170804D01*
X164875349Y-74186671D01*
X164850354Y-74193902D01*
X164755346Y-74223205D01*
X164682010Y-74245628D01*
X164626134Y-74262401D01*
X164583510Y-74274757D01*
X164549926Y-74283928D01*
X164521174Y-74291145D01*
X164505285Y-74294868D01*
X164472413Y-74302908D01*
X164430386Y-74314174D01*
X164376232Y-74329531D01*
X164306980Y-74349847D01*
X164219660Y-74375990D01*
X164111301Y-74408825D01*
X164030853Y-74433352D01*
X163885593Y-74468263D01*
X163753250Y-74480448D01*
X163634586Y-74469850D01*
X163610250Y-74464420D01*
X163554646Y-74449413D01*
X163488114Y-74429867D01*
X163427175Y-74410694D01*
X163363890Y-74390853D01*
X163288708Y-74368658D01*
X163216041Y-74348342D01*
X163203416Y-74344967D01*
X163139929Y-74327658D01*
X163061234Y-74305476D01*
X162978059Y-74281475D01*
X162911852Y-74261926D01*
X162834767Y-74238909D01*
X162754516Y-74215024D01*
X162681225Y-74193281D01*
X162630629Y-74178338D01*
X162557523Y-74153265D01*
X162507356Y-74126626D01*
X162475983Y-74095411D01*
X162459260Y-74056612D01*
X162458491Y-74053358D01*
X162451436Y-74026384D01*
X162438371Y-73980139D01*
X162421210Y-73921291D01*
X162403361Y-73861452D01*
X162381946Y-73789680D01*
X162356048Y-73701746D01*
X162328575Y-73607584D01*
X162302435Y-73517128D01*
X162296175Y-73495301D01*
X162259766Y-73368326D01*
X162229900Y-73264810D01*
X162205749Y-73182111D01*
X162186484Y-73117587D01*
X162171279Y-73068594D01*
X162159304Y-73032491D01*
X162149734Y-73006636D01*
X162141739Y-72988385D01*
X162134492Y-72975097D01*
X162131954Y-72971091D01*
X162115749Y-72950466D01*
X162096654Y-72941247D01*
X162065352Y-72940635D01*
X162038698Y-72943039D01*
X162002026Y-72950480D01*
X161946623Y-72966150D01*
X161878808Y-72987873D01*
X161804899Y-73013470D01*
X161731211Y-73040767D01*
X161664063Y-73067586D01*
X161616764Y-73088420D01*
X161585139Y-73101949D01*
X161538366Y-73120367D01*
X161482521Y-73141465D01*
X161423682Y-73163037D01*
X161367926Y-73182875D01*
X161321329Y-73198773D01*
X161289969Y-73208522D01*
X161280606Y-73210517D01*
X161261442Y-73200488D01*
X161228458Y-73172577D01*
X161184817Y-73130054D01*
X161133680Y-73076187D01*
X161078209Y-73014242D01*
X161021565Y-72947489D01*
X160997215Y-72917598D01*
X160956804Y-72867787D01*
X163224056Y-72867787D01*
X163233265Y-72891295D01*
X163257605Y-72926435D01*
X163291675Y-72967114D01*
X163330079Y-73007238D01*
X163367419Y-73040711D01*
X163393272Y-73058820D01*
X163435737Y-73071476D01*
X163491060Y-73073342D01*
X163547164Y-73064299D01*
X163559516Y-73060453D01*
X163592665Y-73040566D01*
X163608833Y-73016379D01*
X163621392Y-72992156D01*
X163647290Y-72955557D01*
X163681258Y-72913942D01*
X163686222Y-72908288D01*
X163755755Y-72829818D01*
X163822667Y-72899607D01*
X163859426Y-72939288D01*
X163890786Y-72975512D01*
X163909506Y-72999807D01*
X163934997Y-73026775D01*
X163970970Y-73052493D01*
X163975597Y-73055080D01*
X164007950Y-73069941D01*
X164035236Y-73072497D01*
X164071334Y-73063545D01*
X164079065Y-73061030D01*
X164122715Y-73039902D01*
X164171636Y-73006060D01*
X164219177Y-72965399D01*
X164258685Y-72923815D01*
X164283509Y-72887204D01*
X164287624Y-72876162D01*
X164290438Y-72853903D01*
X164287302Y-72827899D01*
X164276863Y-72795500D01*
X164257772Y-72754054D01*
X164228676Y-72700910D01*
X164188225Y-72633415D01*
X164135067Y-72548918D01*
X164067850Y-72444768D01*
X164067555Y-72444313D01*
X164006092Y-72350104D01*
X163957449Y-72276309D01*
X163919910Y-72220445D01*
X163891760Y-72180028D01*
X163871282Y-72152575D01*
X163856760Y-72135601D01*
X163849709Y-72129017D01*
X163812459Y-72112561D01*
X163772867Y-72122380D01*
X163730094Y-72158723D01*
X163723702Y-72166061D01*
X163689125Y-72205770D01*
X163646373Y-72253251D01*
X163613640Y-72288651D01*
X163581421Y-72324853D01*
X163558320Y-72354417D01*
X163549231Y-72371071D01*
X163549225Y-72371259D01*
X163539855Y-72387506D01*
X163515792Y-72414194D01*
X163494781Y-72434148D01*
X163461879Y-72469660D01*
X163423762Y-72519710D01*
X163387614Y-72574711D01*
X163380649Y-72586504D01*
X163350828Y-72635838D01*
X163323151Y-72677507D01*
X163302253Y-72704673D01*
X163297333Y-72709541D01*
X163273166Y-72739417D01*
X163249214Y-72783957D01*
X163231004Y-72831226D01*
X163224056Y-72867787D01*
X160956804Y-72867787D01*
X160946062Y-72854546D01*
X160885839Y-72781213D01*
X160825080Y-72707951D01*
X160784846Y-72659937D01*
X160740065Y-72606770D01*
X160699895Y-72558998D01*
X160668511Y-72521587D01*
X160650084Y-72499505D01*
X160649235Y-72498477D01*
X160633170Y-72479314D01*
X160602971Y-72443571D01*
X160562085Y-72395318D01*
X160513959Y-72338625D01*
X160476927Y-72295060D01*
X160399380Y-72202616D01*
X160326946Y-72113836D01*
X160261542Y-72031259D01*
X160205087Y-71957428D01*
X160159499Y-71894883D01*
X160126697Y-71846166D01*
X160108598Y-71813817D01*
X160105599Y-71803179D01*
X160115123Y-71770296D01*
X160139563Y-71723023D01*
X160175475Y-71666933D01*
X160219418Y-71607601D01*
X160247089Y-71574059D01*
X160274143Y-71544284D01*
X160317424Y-71498695D01*
X160373814Y-71440486D01*
X160440191Y-71372850D01*
X160460553Y-71352315D01*
X161302481Y-71352315D01*
X161308175Y-71413325D01*
X161321337Y-71479212D01*
X161325386Y-71495780D01*
X161353444Y-71594728D01*
X161385222Y-71675407D01*
X161425564Y-71746615D01*
X161479312Y-71817154D01*
X161537818Y-71881752D01*
X161598165Y-71942482D01*
X161647487Y-71985426D01*
X161690833Y-72014647D01*
X161721781Y-72029720D01*
X161766504Y-72048618D01*
X161804447Y-72065259D01*
X161820181Y-72072560D01*
X161893061Y-72098562D01*
X161983791Y-72116239D01*
X162084255Y-72125110D01*
X162186341Y-72124695D01*
X162281934Y-72114514D01*
X162334614Y-72103022D01*
X162387522Y-72087283D01*
X162426227Y-72071118D01*
X162460564Y-72048930D01*
X162500369Y-72015121D01*
X162518868Y-71998161D01*
X162548419Y-71972030D01*
X162568017Y-71957022D01*
X162572824Y-71955605D01*
X162583595Y-71956044D01*
X162609825Y-71947225D01*
X162612801Y-71945981D01*
X162644109Y-71927496D01*
X162682583Y-71897671D01*
X162722299Y-71862111D01*
X162757336Y-71826424D01*
X162781770Y-71796215D01*
X162789802Y-71778414D01*
X162798278Y-71749631D01*
X162820393Y-71709740D01*
X162851173Y-71667361D01*
X162859539Y-71657502D01*
X162883839Y-71614556D01*
X162902857Y-71550583D01*
X162916250Y-71471225D01*
X162923672Y-71382125D01*
X162924666Y-71298398D01*
X164601516Y-71298398D01*
X164604044Y-71402855D01*
X164614841Y-71489923D01*
X164636233Y-71568676D01*
X164670550Y-71648190D01*
X164709561Y-71719630D01*
X164787495Y-71830661D01*
X164883067Y-71929606D01*
X164991221Y-72012410D01*
X165106899Y-72075020D01*
X165190122Y-72104796D01*
X165272895Y-72119195D01*
X165371152Y-72122418D01*
X165475904Y-72114975D01*
X165578160Y-72097378D01*
X165644420Y-72078967D01*
X165753309Y-72036404D01*
X165844480Y-71985417D01*
X165927224Y-71920036D01*
X165990579Y-71856629D01*
X166077508Y-71750682D01*
X166140235Y-71644669D01*
X166181055Y-71532731D01*
X166202261Y-71409015D01*
X166206675Y-71305178D01*
X166204436Y-71218707D01*
X166196395Y-71148511D01*
X166180248Y-71083967D01*
X166153691Y-71014455D01*
X166134243Y-70971181D01*
X166087782Y-70880340D01*
X166040157Y-70808572D01*
X165985545Y-70748231D01*
X165925773Y-70697505D01*
X165801876Y-70614091D01*
X165677851Y-70555738D01*
X165548968Y-70520776D01*
X165410497Y-70507536D01*
X165386758Y-70507323D01*
X165267919Y-70513504D01*
X165164500Y-70533206D01*
X165070614Y-70568967D01*
X164980374Y-70623323D01*
X164887893Y-70698811D01*
X164842434Y-70741865D01*
X164756417Y-70833306D01*
X164692323Y-70919521D01*
X164647474Y-71006701D01*
X164619191Y-71101034D01*
X164604792Y-71208710D01*
X164601516Y-71298398D01*
X162924666Y-71298398D01*
X162924778Y-71288923D01*
X162919223Y-71197263D01*
X162906661Y-71112786D01*
X162895606Y-71067858D01*
X162869286Y-70993000D01*
X162835725Y-70919028D01*
X162798646Y-70852799D01*
X162761769Y-70801165D01*
X162737760Y-70777131D01*
X162707025Y-70749929D01*
X162671882Y-70714858D01*
X162663077Y-70705384D01*
X162622684Y-70669186D01*
X162575731Y-70637807D01*
X162566753Y-70633126D01*
X162518221Y-70607831D01*
X162467517Y-70579070D01*
X162457554Y-70573058D01*
X162377896Y-70537016D01*
X162280537Y-70513110D01*
X162172069Y-70501415D01*
X162059083Y-70502004D01*
X161948171Y-70514952D01*
X161845925Y-70540333D01*
X161783204Y-70565457D01*
X161656269Y-70640414D01*
X161546018Y-70733263D01*
X161454768Y-70841148D01*
X161384838Y-70961218D01*
X161338545Y-71090618D01*
X161331456Y-71121541D01*
X161313997Y-71214124D01*
X161304380Y-71288482D01*
X161302481Y-71352315D01*
X160460553Y-71352315D01*
X160513435Y-71298982D01*
X160590426Y-71222074D01*
X160609934Y-71202706D01*
X160685273Y-71127608D01*
X160755758Y-71056597D01*
X160818669Y-70992469D01*
X160871291Y-70938021D01*
X160910904Y-70896051D01*
X160934790Y-70869354D01*
X160938792Y-70864327D01*
X160955813Y-70838019D01*
X160965988Y-70810697D01*
X160971007Y-70774339D01*
X160972564Y-70720920D01*
X160972610Y-70703977D01*
X160971280Y-70639222D01*
X160967711Y-70560041D01*
X160962534Y-70478979D01*
X160959285Y-70438779D01*
X160953423Y-70372509D01*
X160945928Y-70287807D01*
X160937559Y-70193258D01*
X160929077Y-70097449D01*
X160924343Y-70043993D01*
X160917570Y-69962576D01*
X160912173Y-69887964D01*
X160908471Y-69825403D01*
X160906779Y-69780141D01*
X160907156Y-69759209D01*
X160907977Y-69728171D01*
X160906672Y-69674761D01*
X160903562Y-69603620D01*
X160898972Y-69519388D01*
X160893224Y-69426705D01*
X160886643Y-69330210D01*
X160879550Y-69234545D01*
X160872270Y-69144348D01*
X160865126Y-69064260D01*
X160858441Y-68998922D01*
X160852539Y-68952972D01*
X160849991Y-68938761D01*
X160844617Y-68902362D01*
X160839302Y-68846010D01*
X160834600Y-68776869D01*
X160831066Y-68702102D01*
X160830573Y-68687880D01*
X160826274Y-68563267D01*
X160821557Y-68440132D01*
X160816581Y-68321590D01*
X160811504Y-68210759D01*
X160806484Y-68110753D01*
X160801679Y-68024688D01*
X160797247Y-67955680D01*
X160793347Y-67906845D01*
X160790137Y-67881298D01*
X160789523Y-67879072D01*
X160793132Y-67852683D01*
X160821760Y-67823946D01*
X160873537Y-67794029D01*
X160946589Y-67764102D01*
X161003504Y-67745524D01*
X161054825Y-67729706D01*
X161124510Y-67707636D01*
X161209534Y-67680318D01*
X161306869Y-67648755D01*
X161413490Y-67613950D01*
X161526370Y-67576907D01*
X161642483Y-67538628D01*
X161758801Y-67500117D01*
X161872299Y-67462377D01*
X161979951Y-67426411D01*
X162078729Y-67393224D01*
X162165607Y-67363817D01*
X162237560Y-67339195D01*
X162291560Y-67320360D01*
X162324580Y-67308315D01*
X162333001Y-67304798D01*
X162370687Y-67289087D01*
X162404213Y-67278859D01*
X162450289Y-67266425D01*
X162517387Y-67246568D01*
X162600903Y-67220740D01*
X162696231Y-67190392D01*
X162798763Y-67156974D01*
X162903895Y-67121937D01*
X162925413Y-67114665D01*
X162991522Y-67092388D01*
X163057408Y-67070469D01*
X163126738Y-67047731D01*
X163203179Y-67022993D01*
X163290397Y-66995077D01*
X163392060Y-66962804D01*
X163511834Y-66924995D01*
X163653386Y-66880472D01*
X163672785Y-66874378D01*
X163762443Y-66846219D01*
X163889763Y-66880622D01*
G37*
G36*
X157635520Y-65487965D02*
G01*
X157650027Y-65488459D01*
X157690245Y-65489012D01*
X157754759Y-65489619D01*
X157842157Y-65490275D01*
X157951027Y-65490975D01*
X158079955Y-65491715D01*
X158227530Y-65492491D01*
X158392339Y-65493298D01*
X158572968Y-65494131D01*
X158768006Y-65494986D01*
X158976040Y-65495858D01*
X159195656Y-65496743D01*
X159425443Y-65497637D01*
X159663987Y-65498534D01*
X159909877Y-65499430D01*
X160161699Y-65500320D01*
X160418040Y-65501201D01*
X160677489Y-65502067D01*
X160938632Y-65502915D01*
X161200057Y-65503738D01*
X161460351Y-65504534D01*
X161718101Y-65505296D01*
X161971895Y-65506022D01*
X162220320Y-65506706D01*
X162461964Y-65507343D01*
X162695414Y-65507930D01*
X162919256Y-65508461D01*
X163132080Y-65508932D01*
X163332471Y-65509338D01*
X163519017Y-65509676D01*
X163690306Y-65509940D01*
X163844925Y-65510126D01*
X163981461Y-65510229D01*
X164098501Y-65510245D01*
X164194634Y-65510169D01*
X164268446Y-65509997D01*
X164318524Y-65509724D01*
X164335771Y-65509524D01*
X164350893Y-65509492D01*
X164392034Y-65509456D01*
X164458088Y-65509414D01*
X164547950Y-65509368D01*
X164660517Y-65509318D01*
X164794683Y-65509264D01*
X164949345Y-65509206D01*
X165123397Y-65509146D01*
X165315736Y-65509083D01*
X165525256Y-65509017D01*
X165750853Y-65508949D01*
X165991423Y-65508880D01*
X166245862Y-65508809D01*
X166513063Y-65508737D01*
X166791924Y-65508664D01*
X167081340Y-65508591D01*
X167380206Y-65508518D01*
X167687417Y-65508446D01*
X168001870Y-65508374D01*
X168074130Y-65508357D01*
X171792147Y-65507527D01*
X171905149Y-65542925D01*
X172084198Y-65612554D01*
X172249058Y-65703853D01*
X172398177Y-65814881D01*
X172530003Y-65943699D01*
X172642982Y-66088367D01*
X172735561Y-66246945D01*
X172806189Y-66417494D01*
X172853311Y-66598074D01*
X172873332Y-66752403D01*
X172875825Y-66848979D01*
X172871459Y-66968895D01*
X172860630Y-67109355D01*
X172843733Y-67267565D01*
X172821163Y-67440730D01*
X172793316Y-67626054D01*
X172760588Y-67820744D01*
X172723373Y-68022004D01*
X172682068Y-68227039D01*
X172637067Y-68433055D01*
X172633076Y-68450560D01*
X172529243Y-68870504D01*
X172412112Y-69278979D01*
X172280024Y-69680499D01*
X172131319Y-70079575D01*
X171964340Y-70480721D01*
X171777426Y-70888450D01*
X171618609Y-71210250D01*
X171564180Y-71316114D01*
X171506263Y-71426510D01*
X171447998Y-71535606D01*
X171392528Y-71637569D01*
X171342994Y-71726564D01*
X171304537Y-71793379D01*
X171261630Y-71866927D01*
X171221759Y-71936854D01*
X171187755Y-71998074D01*
X171162448Y-72045501D01*
X171149798Y-72071382D01*
X171127969Y-72113059D01*
X171095790Y-72164928D01*
X171060015Y-72216138D01*
X171058087Y-72218708D01*
X171018580Y-72275444D01*
X170976499Y-72342633D01*
X170940686Y-72406128D01*
X170939419Y-72408564D01*
X170911382Y-72460844D01*
X170884601Y-72507608D01*
X170863856Y-72540586D01*
X170859934Y-72546022D01*
X170840743Y-72573009D01*
X170812264Y-72615220D01*
X170779677Y-72664936D01*
X170768930Y-72681633D01*
X170728596Y-72738671D01*
X170677225Y-72803039D01*
X170623763Y-72863730D01*
X170604939Y-72883359D01*
X170564000Y-72925313D01*
X170531329Y-72959809D01*
X170510929Y-72982558D01*
X170506086Y-72989280D01*
X170498060Y-73001442D01*
X170476101Y-73030537D01*
X170443383Y-73072452D01*
X170403082Y-73123076D01*
X170394811Y-73133364D01*
X170199914Y-73368965D01*
X169998151Y-73600716D01*
X169793644Y-73824181D01*
X169590514Y-74034924D01*
X169392885Y-74228510D01*
X169278073Y-74335114D01*
X169194095Y-74411305D01*
X169126925Y-74472096D01*
X169073303Y-74520330D01*
X169029967Y-74558854D01*
X168993659Y-74590511D01*
X168961118Y-74618148D01*
X168929084Y-74644608D01*
X168894298Y-74672738D01*
X168856979Y-74702602D01*
X168806039Y-74743300D01*
X168758762Y-74781095D01*
X168721917Y-74810577D01*
X168707806Y-74821885D01*
X168670697Y-74850695D01*
X168627901Y-74882640D01*
X168618195Y-74889691D01*
X168583643Y-74919891D01*
X168558019Y-74951596D01*
X168553205Y-74960709D01*
X168530915Y-74992545D01*
X168499711Y-75018374D01*
X168465767Y-75041072D01*
X168424479Y-75072162D01*
X168406159Y-75087023D01*
X168376437Y-75108837D01*
X168327232Y-75141545D01*
X168262660Y-75182677D01*
X168186840Y-75229764D01*
X168103890Y-75280337D01*
X168017927Y-75331928D01*
X167933071Y-75382067D01*
X167853439Y-75428286D01*
X167783149Y-75468115D01*
X167726319Y-75499086D01*
X167687067Y-75518730D01*
X167683328Y-75520384D01*
X167633921Y-75540036D01*
X167576885Y-75559183D01*
X167506965Y-75579380D01*
X167418911Y-75602185D01*
X167353123Y-75618265D01*
X167300382Y-75632200D01*
X167231847Y-75652062D01*
X167157361Y-75674932D01*
X167102242Y-75692721D01*
X166992063Y-75725827D01*
X166870450Y-75756738D01*
X166748247Y-75782990D01*
X166636298Y-75802115D01*
X166600480Y-75806795D01*
X166557519Y-75810200D01*
X166489159Y-75813455D01*
X166397124Y-75816556D01*
X166283136Y-75819497D01*
X166148918Y-75822276D01*
X165996194Y-75824887D01*
X165826686Y-75827325D01*
X165642118Y-75829586D01*
X165444212Y-75831666D01*
X165234691Y-75833559D01*
X165015279Y-75835262D01*
X164787699Y-75836770D01*
X164553674Y-75838078D01*
X164314926Y-75839182D01*
X164073180Y-75840076D01*
X163830157Y-75840758D01*
X163587581Y-75841221D01*
X163347175Y-75841462D01*
X163110662Y-75841476D01*
X162879765Y-75841258D01*
X162656207Y-75840804D01*
X162441712Y-75840109D01*
X162238001Y-75839169D01*
X162046799Y-75837979D01*
X161869828Y-75836535D01*
X161708812Y-75834832D01*
X161565473Y-75832866D01*
X161441534Y-75830631D01*
X161338719Y-75828124D01*
X161258751Y-75825340D01*
X161203352Y-75822274D01*
X161189588Y-75821084D01*
X161123010Y-75813944D01*
X161062552Y-75806303D01*
X161002602Y-75797171D01*
X160937550Y-75785562D01*
X160861785Y-75770488D01*
X160769697Y-75750962D01*
X160681046Y-75731592D01*
X160628311Y-75719023D01*
X160562932Y-75702000D01*
X160489991Y-75682013D01*
X160414569Y-75660548D01*
X160341750Y-75639095D01*
X160276615Y-75619141D01*
X160224246Y-75602174D01*
X160189726Y-75589682D01*
X160179284Y-75584680D01*
X160160786Y-75575216D01*
X160124463Y-75558985D01*
X160077686Y-75539263D01*
X160070795Y-75536439D01*
X159941151Y-75479414D01*
X159800554Y-75410462D01*
X159659062Y-75334805D01*
X159526736Y-75257665D01*
X159491849Y-75235974D01*
X159441851Y-75203541D01*
X159380412Y-75162382D01*
X159311171Y-75115073D01*
X159237770Y-75064190D01*
X159163851Y-75012309D01*
X159093053Y-74962005D01*
X159029020Y-74915856D01*
X158975391Y-74876436D01*
X158935809Y-74846322D01*
X158913914Y-74828089D01*
X158911318Y-74825294D01*
X158897975Y-74813299D01*
X158868676Y-74789610D01*
X158829147Y-74758829D01*
X158818960Y-74751040D01*
X158732192Y-74682690D01*
X158630501Y-74598724D01*
X158518126Y-74502717D01*
X158399312Y-74398243D01*
X158383253Y-74383903D01*
X158355441Y-74358047D01*
X158311354Y-74315841D01*
X158253894Y-74260118D01*
X158185961Y-74193708D01*
X158110456Y-74119444D01*
X158030278Y-74040159D01*
X157976999Y-73987240D01*
X157898597Y-73909788D01*
X157825672Y-73838822D01*
X157760577Y-73776546D01*
X157705661Y-73725165D01*
X157663275Y-73686886D01*
X157635770Y-73663912D01*
X157626091Y-73658035D01*
X157605321Y-73662856D01*
X157566177Y-73675795D01*
X157515330Y-73694564D01*
X157485537Y-73706243D01*
X157387005Y-73744954D01*
X157304359Y-73775497D01*
X157228752Y-73800833D01*
X157151336Y-73823921D01*
X157063263Y-73847721D01*
X157060223Y-73848513D01*
X157001464Y-73863369D01*
X156944722Y-73876563D01*
X156884829Y-73889089D01*
X156816618Y-73901942D01*
X156734919Y-73916114D01*
X156634566Y-73932600D01*
X156565242Y-73943699D01*
X156508917Y-73953368D01*
X156454486Y-73963863D01*
X156422850Y-73970791D01*
X156328370Y-73992664D01*
X156252283Y-74007675D01*
X156186987Y-74016696D01*
X156124880Y-74020597D01*
X156058359Y-74020250D01*
X156009236Y-74018163D01*
X155935799Y-74013016D01*
X155861970Y-74005585D01*
X155797992Y-73997009D01*
X155765135Y-73991058D01*
X155704813Y-73978213D01*
X155642235Y-73965134D01*
X155605484Y-73957604D01*
X155550605Y-73943068D01*
X155495632Y-73923268D01*
X155476653Y-73914696D01*
X155443797Y-73900778D01*
X155391011Y-73881170D01*
X155324333Y-73858000D01*
X155249806Y-73833394D01*
X155209129Y-73820479D01*
X154927519Y-73719780D01*
X154660656Y-73598765D01*
X154410379Y-73458420D01*
X154178529Y-73299730D01*
X154059768Y-73205186D01*
X153985367Y-73138980D01*
X153901628Y-73058369D01*
X153815184Y-72970224D01*
X153732668Y-72881414D01*
X153660714Y-72798810D01*
X153626255Y-72756219D01*
X153478303Y-72544956D01*
X153348754Y-72315279D01*
X153238763Y-72069709D01*
X153149487Y-71810765D01*
X153093998Y-71596743D01*
X153080063Y-71515053D01*
X153069209Y-71411977D01*
X153061642Y-71293100D01*
X153057571Y-71164004D01*
X153057202Y-71030275D01*
X153060743Y-70897495D01*
X153065065Y-70816977D01*
X153069631Y-70762733D01*
X154357985Y-70762733D01*
X154370192Y-71115322D01*
X154374154Y-71214018D01*
X154378903Y-71306899D01*
X154384132Y-71389539D01*
X154389536Y-71457509D01*
X154394808Y-71506382D01*
X154398775Y-71528937D01*
X154408605Y-71566516D01*
X154414736Y-71591761D01*
X154415679Y-71596743D01*
X154422328Y-71619473D01*
X154438445Y-71659722D01*
X154461045Y-71710917D01*
X154487140Y-71766483D01*
X154513747Y-71819846D01*
X154534793Y-71859020D01*
X154590811Y-71950050D01*
X154655704Y-72041980D01*
X154725996Y-72130933D01*
X154798210Y-72213031D01*
X154868869Y-72284395D01*
X154934496Y-72341147D01*
X154991615Y-72379410D01*
X155008683Y-72387603D01*
X155047006Y-72410917D01*
X155076910Y-72441080D01*
X155077802Y-72442407D01*
X155102075Y-72467111D01*
X155142014Y-72495914D01*
X155183091Y-72519447D01*
X155239159Y-72550103D01*
X155297289Y-72585510D01*
X155331320Y-72608443D01*
X155372405Y-72634529D01*
X155409517Y-72652327D01*
X155428830Y-72657271D01*
X155455174Y-72661874D01*
X155499548Y-72673215D01*
X155554318Y-72689261D01*
X155582057Y-72698038D01*
X155725950Y-72739543D01*
X155865198Y-72767998D01*
X156013375Y-72786019D01*
X156056700Y-72789437D01*
X156143521Y-72794678D01*
X156216313Y-72796314D01*
X156284469Y-72793919D01*
X156357382Y-72787069D01*
X156444443Y-72775341D01*
X156477095Y-72770447D01*
X156599217Y-72749512D01*
X156697867Y-72727582D01*
X156772317Y-72704925D01*
X156821838Y-72681811D01*
X156845703Y-72658509D01*
X156843183Y-72635288D01*
X156843016Y-72635048D01*
X156702971Y-72429048D01*
X156557541Y-72202160D01*
X156409631Y-71959322D01*
X156262145Y-71705469D01*
X156117987Y-71445538D01*
X155980062Y-71184466D01*
X155919459Y-71065250D01*
X155881531Y-70989392D01*
X155848111Y-70922020D01*
X155820989Y-70866790D01*
X155801957Y-70827359D01*
X155792808Y-70807382D01*
X155792258Y-70805725D01*
X155786844Y-70791777D01*
X155772139Y-70758439D01*
X155750445Y-70710841D01*
X155726434Y-70659161D01*
X155691592Y-70583467D01*
X155653334Y-70498278D01*
X155617743Y-70417217D01*
X155603075Y-70383021D01*
X155578292Y-70324622D01*
X155556508Y-70273318D01*
X155540491Y-70235626D01*
X155533961Y-70220288D01*
X155506896Y-70155049D01*
X155473868Y-70072613D01*
X155438133Y-69981289D01*
X155402946Y-69889387D01*
X155374586Y-69813454D01*
X155352044Y-69752292D01*
X155332278Y-69698889D01*
X155317547Y-69659335D01*
X155310437Y-69640549D01*
X155298893Y-69623147D01*
X155280018Y-69616838D01*
X155250911Y-69622622D01*
X155208670Y-69641502D01*
X155150396Y-69674479D01*
X155073400Y-69722421D01*
X154987999Y-69784041D01*
X154895565Y-69862927D01*
X154802571Y-69952828D01*
X154715493Y-70047492D01*
X154642089Y-70138921D01*
X154578832Y-70235433D01*
X154516148Y-70350674D01*
X154458007Y-70476460D01*
X154408378Y-70604613D01*
X154391643Y-70655201D01*
X154357985Y-70762733D01*
X153069631Y-70762733D01*
X153073442Y-70717455D01*
X153085803Y-70622811D01*
X153103314Y-70528315D01*
X153127145Y-70429238D01*
X153158464Y-70320852D01*
X153198437Y-70198427D01*
X153248235Y-70057234D01*
X153262187Y-70018912D01*
X153282440Y-69963664D01*
X153298961Y-69920380D01*
X153314409Y-69884119D01*
X153331443Y-69849942D01*
X153352722Y-69812907D01*
X153380907Y-69768073D01*
X153418657Y-69710502D01*
X153468632Y-69635250D01*
X153469086Y-69634568D01*
X153643820Y-69394558D01*
X153834464Y-69176485D01*
X154040984Y-68980381D01*
X154263343Y-68806276D01*
X154501507Y-68654203D01*
X154659903Y-68569597D01*
X154727191Y-68536577D01*
X154789774Y-68506579D01*
X154841737Y-68482389D01*
X154877165Y-68466792D01*
X154883662Y-68464214D01*
X154922807Y-68444849D01*
X154950400Y-68422555D01*
X154960484Y-68402618D01*
X154958942Y-68397438D01*
X154956883Y-68391442D01*
X154953510Y-68377008D01*
X154948444Y-68352041D01*
X154941302Y-68314443D01*
X154931703Y-68262121D01*
X154919265Y-68192978D01*
X154903609Y-68104919D01*
X154884352Y-67995849D01*
X154861114Y-67863671D01*
X154841552Y-67752162D01*
X154805059Y-67534365D01*
X154776295Y-67340685D01*
X154755119Y-67169285D01*
X154741389Y-67018325D01*
X154735173Y-66890244D01*
X155921300Y-66890244D01*
X155923605Y-66969381D01*
X155931771Y-67067055D01*
X155945930Y-67184413D01*
X155966217Y-67322602D01*
X155992766Y-67482768D01*
X156025710Y-67666058D01*
X156065182Y-67873617D01*
X156098716Y-68043726D01*
X156120650Y-68145946D01*
X156149353Y-68268068D01*
X156183253Y-68404184D01*
X156220780Y-68548388D01*
X156260362Y-68694772D01*
X156300428Y-68837429D01*
X156339406Y-68970454D01*
X156375726Y-69087938D01*
X156380084Y-69101494D01*
X156398502Y-69156875D01*
X156422450Y-69226513D01*
X156450121Y-69305395D01*
X156479707Y-69388510D01*
X156509401Y-69470844D01*
X156537396Y-69547385D01*
X156561884Y-69613121D01*
X156581059Y-69663039D01*
X156592779Y-69691404D01*
X156604648Y-69719392D01*
X156621393Y-69761199D01*
X156631809Y-69788030D01*
X156653203Y-69841781D01*
X156676315Y-69896836D01*
X156685125Y-69916860D01*
X156700934Y-69952408D01*
X156724413Y-70005702D01*
X156752431Y-70069611D01*
X156781853Y-70137002D01*
X156782688Y-70138921D01*
X156973287Y-70548801D01*
X157187951Y-70959410D01*
X157424122Y-71366283D01*
X157679245Y-71764952D01*
X157873127Y-72044260D01*
X157914788Y-72101396D01*
X157964168Y-72167720D01*
X158018204Y-72239263D01*
X158073835Y-72312059D01*
X158127998Y-72382141D01*
X158177630Y-72445542D01*
X158219669Y-72498294D01*
X158251052Y-72536431D01*
X158266471Y-72553794D01*
X158282908Y-72572720D01*
X158308240Y-72604018D01*
X158321409Y-72620816D01*
X158350968Y-72657200D01*
X158390754Y-72703934D01*
X158432599Y-72751439D01*
X158436197Y-72755436D01*
X158479059Y-72803120D01*
X158522040Y-72851210D01*
X158556280Y-72889791D01*
X158558078Y-72891831D01*
X158590257Y-72926739D01*
X158638445Y-72976909D01*
X158699088Y-73038815D01*
X158768632Y-73108930D01*
X158843523Y-73183731D01*
X158920208Y-73259690D01*
X158995133Y-73333283D01*
X159064745Y-73400984D01*
X159125488Y-73459268D01*
X159173811Y-73504608D01*
X159196102Y-73524786D01*
X159339601Y-73648024D01*
X159490680Y-73771356D01*
X159645650Y-73892115D01*
X159800823Y-74007635D01*
X159952507Y-74115248D01*
X160097014Y-74212287D01*
X160230655Y-74296085D01*
X160349740Y-74363975D01*
X160375920Y-74377696D01*
X160594957Y-74475584D01*
X160829192Y-74552377D01*
X160999732Y-74592846D01*
X161045375Y-74602005D01*
X161088129Y-74610284D01*
X161129512Y-74617722D01*
X161171041Y-74624360D01*
X161214234Y-74630238D01*
X161260609Y-74635396D01*
X161311684Y-74639874D01*
X161368977Y-74643713D01*
X161434004Y-74646952D01*
X161508285Y-74649632D01*
X161593337Y-74651793D01*
X161690677Y-74653475D01*
X161801824Y-74654719D01*
X161928296Y-74655565D01*
X162071609Y-74656052D01*
X162233282Y-74656221D01*
X162414833Y-74656113D01*
X162617779Y-74655766D01*
X162843638Y-74655223D01*
X163093928Y-74654522D01*
X163305125Y-74653898D01*
X163527135Y-74653225D01*
X163742263Y-74652550D01*
X163948886Y-74651879D01*
X164145383Y-74651218D01*
X164330133Y-74650574D01*
X164501513Y-74649952D01*
X164657902Y-74649359D01*
X164797679Y-74648801D01*
X164919220Y-74648285D01*
X165020906Y-74647816D01*
X165101114Y-74647402D01*
X165158223Y-74647047D01*
X165190610Y-74646758D01*
X165196903Y-74646644D01*
X165222333Y-74646287D01*
X165271587Y-74646030D01*
X165341364Y-74645876D01*
X165428367Y-74645826D01*
X165529295Y-74645882D01*
X165640850Y-74646044D01*
X165759732Y-74646315D01*
X165784925Y-74646385D01*
X165987962Y-74645990D01*
X166164839Y-74643534D01*
X166316444Y-74638962D01*
X166443663Y-74632218D01*
X166547386Y-74623247D01*
X166628499Y-74611993D01*
X166687891Y-74598400D01*
X166715749Y-74588061D01*
X166744171Y-74576297D01*
X166791680Y-74558176D01*
X166851710Y-74536147D01*
X166917695Y-74512661D01*
X166919166Y-74512145D01*
X167049930Y-74463291D01*
X167173030Y-74410320D01*
X167294455Y-74350142D01*
X167420192Y-74279670D01*
X167556228Y-74195813D01*
X167647258Y-74136482D01*
X167697530Y-74101813D01*
X167761632Y-74055570D01*
X167835473Y-74000903D01*
X167914964Y-73940960D01*
X167996013Y-73878893D01*
X168074531Y-73817849D01*
X168146428Y-73760980D01*
X168207613Y-73711433D01*
X168253997Y-73672360D01*
X168276443Y-73651985D01*
X168292685Y-73637011D01*
X168323768Y-73608958D01*
X168364239Y-73572737D01*
X168384932Y-73554305D01*
X168494755Y-73454455D01*
X168608199Y-73347296D01*
X168723137Y-73235127D01*
X168837440Y-73120250D01*
X168948979Y-73004966D01*
X169055627Y-72891574D01*
X169155256Y-72782376D01*
X169245737Y-72679672D01*
X169324943Y-72585763D01*
X169390744Y-72502950D01*
X169441013Y-72433533D01*
X169473622Y-72379813D01*
X169476239Y-72374548D01*
X169501136Y-72330783D01*
X169536674Y-72277822D01*
X169575423Y-72226696D01*
X169577736Y-72223869D01*
X169617717Y-72171967D01*
X169656261Y-72116464D01*
X169685212Y-72069124D01*
X169685867Y-72067916D01*
X169711715Y-72024780D01*
X169748294Y-71969763D01*
X169789345Y-71912129D01*
X169807226Y-71888307D01*
X169850534Y-71829962D01*
X169901090Y-71759195D01*
X169951526Y-71686428D01*
X169981943Y-71641200D01*
X170021127Y-71584103D01*
X170058886Y-71532813D01*
X170090772Y-71493153D01*
X170111406Y-71471686D01*
X170132052Y-71448467D01*
X170163241Y-71405235D01*
X170202597Y-71345826D01*
X170247740Y-71274073D01*
X170296292Y-71193809D01*
X170345877Y-71108870D01*
X170394114Y-71023088D01*
X170424976Y-70966150D01*
X170468816Y-70882944D01*
X170516879Y-70790169D01*
X170566515Y-70693085D01*
X170615073Y-70596954D01*
X170659900Y-70507039D01*
X170698345Y-70428599D01*
X170727757Y-70366896D01*
X170735929Y-70349118D01*
X170765426Y-70284103D01*
X170797924Y-70212714D01*
X170825440Y-70152482D01*
X170994411Y-69757505D01*
X171150156Y-69339370D01*
X171292467Y-68898714D01*
X171421136Y-68436175D01*
X171515707Y-68043726D01*
X171529968Y-67975759D01*
X171546364Y-67889827D01*
X171564308Y-67789740D01*
X171583209Y-67679306D01*
X171602480Y-67562336D01*
X171621531Y-67442640D01*
X171639773Y-67324027D01*
X171656619Y-67210308D01*
X171671478Y-67105292D01*
X171683763Y-67012788D01*
X171692885Y-66936608D01*
X171698254Y-66880559D01*
X171699465Y-66854707D01*
X171690031Y-66810548D01*
X171666089Y-66762704D01*
X171634176Y-66721944D01*
X171606216Y-66701157D01*
X171596636Y-66698099D01*
X171581100Y-66695206D01*
X171558931Y-66692474D01*
X171529452Y-66689901D01*
X171491986Y-66687484D01*
X171445858Y-66685218D01*
X171390389Y-66683102D01*
X171324903Y-66681131D01*
X171248724Y-66679303D01*
X171161174Y-66677614D01*
X171061576Y-66676062D01*
X170949255Y-66674643D01*
X170823533Y-66673354D01*
X170683733Y-66672191D01*
X170529178Y-66671153D01*
X170359193Y-66670234D01*
X170173099Y-66669434D01*
X169970221Y-66668747D01*
X169749881Y-66668171D01*
X169511402Y-66667703D01*
X169254109Y-66667340D01*
X168977323Y-66667078D01*
X168680369Y-66666914D01*
X168362569Y-66666846D01*
X168023247Y-66666869D01*
X167661726Y-66666981D01*
X167277328Y-66667179D01*
X166869379Y-66667460D01*
X166437199Y-66667820D01*
X165980113Y-66668255D01*
X165497445Y-66668764D01*
X164988516Y-66669343D01*
X164844313Y-66669513D01*
X164446789Y-66669983D01*
X164055389Y-66670440D01*
X163671026Y-66670881D01*
X163294615Y-66671308D01*
X162927069Y-66671717D01*
X162569301Y-66672110D01*
X162222226Y-66672485D01*
X161886757Y-66672841D01*
X161563807Y-66673177D01*
X161254292Y-66673492D01*
X160959123Y-66673786D01*
X160679216Y-66674057D01*
X160415483Y-66674305D01*
X160168839Y-66674529D01*
X159940197Y-66674727D01*
X159730471Y-66674900D01*
X159540575Y-66675046D01*
X159371421Y-66675165D01*
X159223925Y-66675255D01*
X159099000Y-66675315D01*
X158997559Y-66675345D01*
X158920517Y-66675344D01*
X158868786Y-66675311D01*
X158843512Y-66675247D01*
X158775653Y-66674777D01*
X158687446Y-66674126D01*
X158585664Y-66673346D01*
X158477083Y-66672488D01*
X158368474Y-66671606D01*
X158321409Y-66671215D01*
X158183838Y-66670343D01*
X158035340Y-66669908D01*
X157878174Y-66669882D01*
X157714596Y-66670238D01*
X157546864Y-66670947D01*
X157377234Y-66671984D01*
X157207964Y-66673318D01*
X157041312Y-66674924D01*
X156879533Y-66676774D01*
X156724886Y-66678839D01*
X156579628Y-66681093D01*
X156446015Y-66683507D01*
X156326306Y-66686055D01*
X156222757Y-66688708D01*
X156137625Y-66691438D01*
X156073168Y-66694219D01*
X156031642Y-66697023D01*
X156016016Y-66699421D01*
X155978122Y-66722768D01*
X155948211Y-66752594D01*
X155933736Y-66782997D01*
X155924722Y-66828498D01*
X155921300Y-66890244D01*
X154735173Y-66890244D01*
X154734965Y-66885968D01*
X154735707Y-66770375D01*
X154743472Y-66669709D01*
X154753600Y-66604049D01*
X154802801Y-66417740D01*
X154876137Y-66243221D01*
X154972658Y-66081968D01*
X155091415Y-65935459D01*
X155231456Y-65805169D01*
X155302030Y-65751608D01*
X155438528Y-65663893D01*
X155574510Y-65596707D01*
X155719498Y-65545381D01*
X155727442Y-65543064D01*
X155845702Y-65508906D01*
X156692865Y-65508321D01*
X156889807Y-65507953D01*
X157063072Y-65507141D01*
X157212164Y-65505894D01*
X157336585Y-65504219D01*
X157435839Y-65502126D01*
X157509430Y-65499622D01*
X157556860Y-65496715D01*
X157577077Y-65493651D01*
X157611302Y-65486011D01*
X157635520Y-65487965D01*
G37*
D12*
%TO.C,SW9*%
X163015000Y-96095000D02*
X176985000Y-96095000D01*
X163015000Y-110065000D02*
X163015000Y-96095000D01*
X176985000Y-96095000D02*
X176985000Y-110065000D01*
X176985000Y-110065000D02*
X163015000Y-110065000D01*
D13*
%TO.C,SW4*%
X113000000Y-80500000D02*
X121000000Y-80500000D01*
X113000000Y-93500000D02*
X113000000Y-80500000D01*
X121000000Y-80500000D02*
X121000000Y-93500000D01*
X121000000Y-93500000D02*
X113000000Y-93500000D01*
%TO.C,SW3*%
X130000000Y-80500000D02*
X138000000Y-80500000D01*
X130000000Y-93500000D02*
X130000000Y-80500000D01*
X138000000Y-80500000D02*
X138000000Y-93500000D01*
X138000000Y-93500000D02*
X130000000Y-93500000D01*
D12*
%TO.C,SW10*%
X127475000Y-96095000D02*
X141445000Y-96095000D01*
X127475000Y-110065000D02*
X127475000Y-96095000D01*
X141445000Y-96095000D02*
X141445000Y-110065000D01*
X141445000Y-110065000D02*
X127475000Y-110065000D01*
D13*
%TO.C,SW5*%
X165000000Y-80500000D02*
X173000000Y-80500000D01*
X165000000Y-93500000D02*
X165000000Y-80500000D01*
X173000000Y-80500000D02*
X173000000Y-93500000D01*
X173000000Y-93500000D02*
X165000000Y-93500000D01*
%TD*%
M02*
