%TF.GenerationSoftware,KiCad,Pcbnew,9.0.0*%
%TF.CreationDate,2025-03-03T22:53:20+00:00*%
%TF.ProjectId,controller,636f6e74-726f-46c6-9c65-722e6b696361,rev?*%
%TF.SameCoordinates,Original*%
%TF.FileFunction,Drillmap*%
%TF.FilePolarity,Positive*%
%FSLAX45Y45*%
G04 Gerber Fmt 4.5, Leading zero omitted, Abs format (unit mm)*
G04 Created by KiCad (PCBNEW 9.0.0) date 2025-03-03 22:53:20*
%MOMM*%
%LPD*%
G01*
G04 APERTURE LIST*
%ADD10C,0.038100*%
%ADD11C,0.200000*%
%ADD12C,0.220000*%
%ADD13C,0.400000*%
G04 APERTURE END LIST*
D10*
X18100000Y-11500000D02*
X18100000Y-5290000D01*
X10600000Y-5300000D02*
X10600000Y-11500000D01*
X10600000Y-11500000D02*
X18100000Y-11500000D01*
X10600000Y-5300000D02*
X18100000Y-5290000D01*
D11*
D12*
X10790000Y-5490000D02*
X11010000Y-5710000D01*
X11010000Y-5490000D02*
X10790000Y-5710000D01*
X10790000Y-11090000D02*
X11010000Y-11310000D01*
X11010000Y-11090000D02*
X10790000Y-11310000D01*
X17590000Y-5490000D02*
X17810000Y-5710000D01*
X17810000Y-5490000D02*
X17590000Y-5710000D01*
X17690000Y-11090000D02*
X17910000Y-11310000D01*
X17910000Y-11090000D02*
X17690000Y-11310000D01*
D13*
X11900000Y-10300000D02*
G75*
G02*
X11500000Y-10300000I-200000J0D01*
G01*
X11500000Y-10300000D02*
G75*
G02*
X11900000Y-10300000I200000J0D01*
G01*
X13646000Y-10308000D02*
G75*
G02*
X13246000Y-10308000I-200000J0D01*
G01*
X13246000Y-10308000D02*
G75*
G02*
X13646000Y-10308000I200000J0D01*
G01*
X15400000Y-10308000D02*
G75*
G02*
X15000000Y-10308000I-200000J0D01*
G01*
X15000000Y-10308000D02*
G75*
G02*
X15400000Y-10308000I200000J0D01*
G01*
X17200000Y-10308000D02*
G75*
G02*
X16800000Y-10308000I-200000J0D01*
G01*
X16800000Y-10308000D02*
G75*
G02*
X17200000Y-10308000I200000J0D01*
G01*
D11*
X10858872Y-11813389D02*
X10858872Y-11613389D01*
X10858872Y-11613389D02*
X10906491Y-11613389D01*
X10906491Y-11613389D02*
X10935062Y-11622913D01*
X10935062Y-11622913D02*
X10954110Y-11641960D01*
X10954110Y-11641960D02*
X10963634Y-11661008D01*
X10963634Y-11661008D02*
X10973158Y-11699103D01*
X10973158Y-11699103D02*
X10973158Y-11727674D01*
X10973158Y-11727674D02*
X10963634Y-11765770D01*
X10963634Y-11765770D02*
X10954110Y-11784817D01*
X10954110Y-11784817D02*
X10935062Y-11803865D01*
X10935062Y-11803865D02*
X10906491Y-11813389D01*
X10906491Y-11813389D02*
X10858872Y-11813389D01*
X11058872Y-11813389D02*
X11058872Y-11680055D01*
X11058872Y-11718151D02*
X11068396Y-11699103D01*
X11068396Y-11699103D02*
X11077919Y-11689579D01*
X11077919Y-11689579D02*
X11096967Y-11680055D01*
X11096967Y-11680055D02*
X11116015Y-11680055D01*
X11182681Y-11813389D02*
X11182681Y-11680055D01*
X11182681Y-11613389D02*
X11173158Y-11622913D01*
X11173158Y-11622913D02*
X11182681Y-11632436D01*
X11182681Y-11632436D02*
X11192205Y-11622913D01*
X11192205Y-11622913D02*
X11182681Y-11613389D01*
X11182681Y-11613389D02*
X11182681Y-11632436D01*
X11306491Y-11813389D02*
X11287443Y-11803865D01*
X11287443Y-11803865D02*
X11277919Y-11784817D01*
X11277919Y-11784817D02*
X11277919Y-11613389D01*
X11411253Y-11813389D02*
X11392205Y-11803865D01*
X11392205Y-11803865D02*
X11382681Y-11784817D01*
X11382681Y-11784817D02*
X11382681Y-11613389D01*
X11639824Y-11813389D02*
X11639824Y-11613389D01*
X11639824Y-11613389D02*
X11706491Y-11756246D01*
X11706491Y-11756246D02*
X11773157Y-11613389D01*
X11773157Y-11613389D02*
X11773157Y-11813389D01*
X11954110Y-11813389D02*
X11954110Y-11708627D01*
X11954110Y-11708627D02*
X11944586Y-11689579D01*
X11944586Y-11689579D02*
X11925538Y-11680055D01*
X11925538Y-11680055D02*
X11887443Y-11680055D01*
X11887443Y-11680055D02*
X11868396Y-11689579D01*
X11954110Y-11803865D02*
X11935062Y-11813389D01*
X11935062Y-11813389D02*
X11887443Y-11813389D01*
X11887443Y-11813389D02*
X11868396Y-11803865D01*
X11868396Y-11803865D02*
X11858872Y-11784817D01*
X11858872Y-11784817D02*
X11858872Y-11765770D01*
X11858872Y-11765770D02*
X11868396Y-11746722D01*
X11868396Y-11746722D02*
X11887443Y-11737198D01*
X11887443Y-11737198D02*
X11935062Y-11737198D01*
X11935062Y-11737198D02*
X11954110Y-11727674D01*
X12049348Y-11680055D02*
X12049348Y-11880055D01*
X12049348Y-11689579D02*
X12068396Y-11680055D01*
X12068396Y-11680055D02*
X12106491Y-11680055D01*
X12106491Y-11680055D02*
X12125538Y-11689579D01*
X12125538Y-11689579D02*
X12135062Y-11699103D01*
X12135062Y-11699103D02*
X12144586Y-11718151D01*
X12144586Y-11718151D02*
X12144586Y-11775293D01*
X12144586Y-11775293D02*
X12135062Y-11794341D01*
X12135062Y-11794341D02*
X12125538Y-11803865D01*
X12125538Y-11803865D02*
X12106491Y-11813389D01*
X12106491Y-11813389D02*
X12068396Y-11813389D01*
X12068396Y-11813389D02*
X12049348Y-11803865D01*
X12230300Y-11794341D02*
X12239824Y-11803865D01*
X12239824Y-11803865D02*
X12230300Y-11813389D01*
X12230300Y-11813389D02*
X12220777Y-11803865D01*
X12220777Y-11803865D02*
X12230300Y-11794341D01*
X12230300Y-11794341D02*
X12230300Y-11813389D01*
X12230300Y-11689579D02*
X12239824Y-11699103D01*
X12239824Y-11699103D02*
X12230300Y-11708627D01*
X12230300Y-11708627D02*
X12220777Y-11699103D01*
X12220777Y-11699103D02*
X12230300Y-11689579D01*
X12230300Y-11689579D02*
X12230300Y-11708627D01*
X10398095Y-12041905D02*
X10598095Y-12241905D01*
X10598095Y-12041905D02*
X10398095Y-12241905D01*
X10849348Y-12052436D02*
X10858872Y-12042913D01*
X10858872Y-12042913D02*
X10877919Y-12033389D01*
X10877919Y-12033389D02*
X10925539Y-12033389D01*
X10925539Y-12033389D02*
X10944586Y-12042913D01*
X10944586Y-12042913D02*
X10954110Y-12052436D01*
X10954110Y-12052436D02*
X10963634Y-12071484D01*
X10963634Y-12071484D02*
X10963634Y-12090532D01*
X10963634Y-12090532D02*
X10954110Y-12119103D01*
X10954110Y-12119103D02*
X10839824Y-12233389D01*
X10839824Y-12233389D02*
X10963634Y-12233389D01*
X11049348Y-12214341D02*
X11058872Y-12223865D01*
X11058872Y-12223865D02*
X11049348Y-12233389D01*
X11049348Y-12233389D02*
X11039824Y-12223865D01*
X11039824Y-12223865D02*
X11049348Y-12214341D01*
X11049348Y-12214341D02*
X11049348Y-12233389D01*
X11135062Y-12052436D02*
X11144586Y-12042913D01*
X11144586Y-12042913D02*
X11163634Y-12033389D01*
X11163634Y-12033389D02*
X11211253Y-12033389D01*
X11211253Y-12033389D02*
X11230300Y-12042913D01*
X11230300Y-12042913D02*
X11239824Y-12052436D01*
X11239824Y-12052436D02*
X11249348Y-12071484D01*
X11249348Y-12071484D02*
X11249348Y-12090532D01*
X11249348Y-12090532D02*
X11239824Y-12119103D01*
X11239824Y-12119103D02*
X11125539Y-12233389D01*
X11125539Y-12233389D02*
X11249348Y-12233389D01*
X11373157Y-12033389D02*
X11392205Y-12033389D01*
X11392205Y-12033389D02*
X11411253Y-12042913D01*
X11411253Y-12042913D02*
X11420777Y-12052436D01*
X11420777Y-12052436D02*
X11430300Y-12071484D01*
X11430300Y-12071484D02*
X11439824Y-12109579D01*
X11439824Y-12109579D02*
X11439824Y-12157198D01*
X11439824Y-12157198D02*
X11430300Y-12195293D01*
X11430300Y-12195293D02*
X11420777Y-12214341D01*
X11420777Y-12214341D02*
X11411253Y-12223865D01*
X11411253Y-12223865D02*
X11392205Y-12233389D01*
X11392205Y-12233389D02*
X11373157Y-12233389D01*
X11373157Y-12233389D02*
X11354110Y-12223865D01*
X11354110Y-12223865D02*
X11344586Y-12214341D01*
X11344586Y-12214341D02*
X11335062Y-12195293D01*
X11335062Y-12195293D02*
X11325538Y-12157198D01*
X11325538Y-12157198D02*
X11325538Y-12109579D01*
X11325538Y-12109579D02*
X11335062Y-12071484D01*
X11335062Y-12071484D02*
X11344586Y-12052436D01*
X11344586Y-12052436D02*
X11354110Y-12042913D01*
X11354110Y-12042913D02*
X11373157Y-12033389D01*
X11563634Y-12033389D02*
X11582681Y-12033389D01*
X11582681Y-12033389D02*
X11601729Y-12042913D01*
X11601729Y-12042913D02*
X11611253Y-12052436D01*
X11611253Y-12052436D02*
X11620777Y-12071484D01*
X11620777Y-12071484D02*
X11630300Y-12109579D01*
X11630300Y-12109579D02*
X11630300Y-12157198D01*
X11630300Y-12157198D02*
X11620777Y-12195293D01*
X11620777Y-12195293D02*
X11611253Y-12214341D01*
X11611253Y-12214341D02*
X11601729Y-12223865D01*
X11601729Y-12223865D02*
X11582681Y-12233389D01*
X11582681Y-12233389D02*
X11563634Y-12233389D01*
X11563634Y-12233389D02*
X11544586Y-12223865D01*
X11544586Y-12223865D02*
X11535062Y-12214341D01*
X11535062Y-12214341D02*
X11525538Y-12195293D01*
X11525538Y-12195293D02*
X11516015Y-12157198D01*
X11516015Y-12157198D02*
X11516015Y-12109579D01*
X11516015Y-12109579D02*
X11525538Y-12071484D01*
X11525538Y-12071484D02*
X11535062Y-12052436D01*
X11535062Y-12052436D02*
X11544586Y-12042913D01*
X11544586Y-12042913D02*
X11563634Y-12033389D01*
X11716015Y-12233389D02*
X11716015Y-12100055D01*
X11716015Y-12119103D02*
X11725538Y-12109579D01*
X11725538Y-12109579D02*
X11744586Y-12100055D01*
X11744586Y-12100055D02*
X11773158Y-12100055D01*
X11773158Y-12100055D02*
X11792205Y-12109579D01*
X11792205Y-12109579D02*
X11801729Y-12128627D01*
X11801729Y-12128627D02*
X11801729Y-12233389D01*
X11801729Y-12128627D02*
X11811253Y-12109579D01*
X11811253Y-12109579D02*
X11830300Y-12100055D01*
X11830300Y-12100055D02*
X11858872Y-12100055D01*
X11858872Y-12100055D02*
X11877919Y-12109579D01*
X11877919Y-12109579D02*
X11887443Y-12128627D01*
X11887443Y-12128627D02*
X11887443Y-12233389D01*
X11982681Y-12233389D02*
X11982681Y-12100055D01*
X11982681Y-12119103D02*
X11992205Y-12109579D01*
X11992205Y-12109579D02*
X12011253Y-12100055D01*
X12011253Y-12100055D02*
X12039824Y-12100055D01*
X12039824Y-12100055D02*
X12058872Y-12109579D01*
X12058872Y-12109579D02*
X12068396Y-12128627D01*
X12068396Y-12128627D02*
X12068396Y-12233389D01*
X12068396Y-12128627D02*
X12077919Y-12109579D01*
X12077919Y-12109579D02*
X12096967Y-12100055D01*
X12096967Y-12100055D02*
X12125538Y-12100055D01*
X12125538Y-12100055D02*
X12144586Y-12109579D01*
X12144586Y-12109579D02*
X12154110Y-12128627D01*
X12154110Y-12128627D02*
X12154110Y-12233389D01*
X12544586Y-12023865D02*
X12373158Y-12281008D01*
X12801729Y-12033389D02*
X12820777Y-12033389D01*
X12820777Y-12033389D02*
X12839824Y-12042913D01*
X12839824Y-12042913D02*
X12849348Y-12052436D01*
X12849348Y-12052436D02*
X12858872Y-12071484D01*
X12858872Y-12071484D02*
X12868396Y-12109579D01*
X12868396Y-12109579D02*
X12868396Y-12157198D01*
X12868396Y-12157198D02*
X12858872Y-12195293D01*
X12858872Y-12195293D02*
X12849348Y-12214341D01*
X12849348Y-12214341D02*
X12839824Y-12223865D01*
X12839824Y-12223865D02*
X12820777Y-12233389D01*
X12820777Y-12233389D02*
X12801729Y-12233389D01*
X12801729Y-12233389D02*
X12782681Y-12223865D01*
X12782681Y-12223865D02*
X12773158Y-12214341D01*
X12773158Y-12214341D02*
X12763634Y-12195293D01*
X12763634Y-12195293D02*
X12754110Y-12157198D01*
X12754110Y-12157198D02*
X12754110Y-12109579D01*
X12754110Y-12109579D02*
X12763634Y-12071484D01*
X12763634Y-12071484D02*
X12773158Y-12052436D01*
X12773158Y-12052436D02*
X12782681Y-12042913D01*
X12782681Y-12042913D02*
X12801729Y-12033389D01*
X12954110Y-12214341D02*
X12963634Y-12223865D01*
X12963634Y-12223865D02*
X12954110Y-12233389D01*
X12954110Y-12233389D02*
X12944586Y-12223865D01*
X12944586Y-12223865D02*
X12954110Y-12214341D01*
X12954110Y-12214341D02*
X12954110Y-12233389D01*
X13087443Y-12033389D02*
X13106491Y-12033389D01*
X13106491Y-12033389D02*
X13125539Y-12042913D01*
X13125539Y-12042913D02*
X13135062Y-12052436D01*
X13135062Y-12052436D02*
X13144586Y-12071484D01*
X13144586Y-12071484D02*
X13154110Y-12109579D01*
X13154110Y-12109579D02*
X13154110Y-12157198D01*
X13154110Y-12157198D02*
X13144586Y-12195293D01*
X13144586Y-12195293D02*
X13135062Y-12214341D01*
X13135062Y-12214341D02*
X13125539Y-12223865D01*
X13125539Y-12223865D02*
X13106491Y-12233389D01*
X13106491Y-12233389D02*
X13087443Y-12233389D01*
X13087443Y-12233389D02*
X13068396Y-12223865D01*
X13068396Y-12223865D02*
X13058872Y-12214341D01*
X13058872Y-12214341D02*
X13049348Y-12195293D01*
X13049348Y-12195293D02*
X13039824Y-12157198D01*
X13039824Y-12157198D02*
X13039824Y-12109579D01*
X13039824Y-12109579D02*
X13049348Y-12071484D01*
X13049348Y-12071484D02*
X13058872Y-12052436D01*
X13058872Y-12052436D02*
X13068396Y-12042913D01*
X13068396Y-12042913D02*
X13087443Y-12033389D01*
X13268396Y-12119103D02*
X13249348Y-12109579D01*
X13249348Y-12109579D02*
X13239824Y-12100055D01*
X13239824Y-12100055D02*
X13230301Y-12081008D01*
X13230301Y-12081008D02*
X13230301Y-12071484D01*
X13230301Y-12071484D02*
X13239824Y-12052436D01*
X13239824Y-12052436D02*
X13249348Y-12042913D01*
X13249348Y-12042913D02*
X13268396Y-12033389D01*
X13268396Y-12033389D02*
X13306491Y-12033389D01*
X13306491Y-12033389D02*
X13325539Y-12042913D01*
X13325539Y-12042913D02*
X13335062Y-12052436D01*
X13335062Y-12052436D02*
X13344586Y-12071484D01*
X13344586Y-12071484D02*
X13344586Y-12081008D01*
X13344586Y-12081008D02*
X13335062Y-12100055D01*
X13335062Y-12100055D02*
X13325539Y-12109579D01*
X13325539Y-12109579D02*
X13306491Y-12119103D01*
X13306491Y-12119103D02*
X13268396Y-12119103D01*
X13268396Y-12119103D02*
X13249348Y-12128627D01*
X13249348Y-12128627D02*
X13239824Y-12138151D01*
X13239824Y-12138151D02*
X13230301Y-12157198D01*
X13230301Y-12157198D02*
X13230301Y-12195293D01*
X13230301Y-12195293D02*
X13239824Y-12214341D01*
X13239824Y-12214341D02*
X13249348Y-12223865D01*
X13249348Y-12223865D02*
X13268396Y-12233389D01*
X13268396Y-12233389D02*
X13306491Y-12233389D01*
X13306491Y-12233389D02*
X13325539Y-12223865D01*
X13325539Y-12223865D02*
X13335062Y-12214341D01*
X13335062Y-12214341D02*
X13344586Y-12195293D01*
X13344586Y-12195293D02*
X13344586Y-12157198D01*
X13344586Y-12157198D02*
X13335062Y-12138151D01*
X13335062Y-12138151D02*
X13325539Y-12128627D01*
X13325539Y-12128627D02*
X13306491Y-12119103D01*
X13516015Y-12033389D02*
X13477920Y-12033389D01*
X13477920Y-12033389D02*
X13458872Y-12042913D01*
X13458872Y-12042913D02*
X13449348Y-12052436D01*
X13449348Y-12052436D02*
X13430301Y-12081008D01*
X13430301Y-12081008D02*
X13420777Y-12119103D01*
X13420777Y-12119103D02*
X13420777Y-12195293D01*
X13420777Y-12195293D02*
X13430301Y-12214341D01*
X13430301Y-12214341D02*
X13439824Y-12223865D01*
X13439824Y-12223865D02*
X13458872Y-12233389D01*
X13458872Y-12233389D02*
X13496967Y-12233389D01*
X13496967Y-12233389D02*
X13516015Y-12223865D01*
X13516015Y-12223865D02*
X13525539Y-12214341D01*
X13525539Y-12214341D02*
X13535062Y-12195293D01*
X13535062Y-12195293D02*
X13535062Y-12147674D01*
X13535062Y-12147674D02*
X13525539Y-12128627D01*
X13525539Y-12128627D02*
X13516015Y-12119103D01*
X13516015Y-12119103D02*
X13496967Y-12109579D01*
X13496967Y-12109579D02*
X13458872Y-12109579D01*
X13458872Y-12109579D02*
X13439824Y-12119103D01*
X13439824Y-12119103D02*
X13430301Y-12128627D01*
X13430301Y-12128627D02*
X13420777Y-12147674D01*
X13706491Y-12033389D02*
X13668396Y-12033389D01*
X13668396Y-12033389D02*
X13649348Y-12042913D01*
X13649348Y-12042913D02*
X13639824Y-12052436D01*
X13639824Y-12052436D02*
X13620777Y-12081008D01*
X13620777Y-12081008D02*
X13611253Y-12119103D01*
X13611253Y-12119103D02*
X13611253Y-12195293D01*
X13611253Y-12195293D02*
X13620777Y-12214341D01*
X13620777Y-12214341D02*
X13630301Y-12223865D01*
X13630301Y-12223865D02*
X13649348Y-12233389D01*
X13649348Y-12233389D02*
X13687443Y-12233389D01*
X13687443Y-12233389D02*
X13706491Y-12223865D01*
X13706491Y-12223865D02*
X13716015Y-12214341D01*
X13716015Y-12214341D02*
X13725539Y-12195293D01*
X13725539Y-12195293D02*
X13725539Y-12147674D01*
X13725539Y-12147674D02*
X13716015Y-12128627D01*
X13716015Y-12128627D02*
X13706491Y-12119103D01*
X13706491Y-12119103D02*
X13687443Y-12109579D01*
X13687443Y-12109579D02*
X13649348Y-12109579D01*
X13649348Y-12109579D02*
X13630301Y-12119103D01*
X13630301Y-12119103D02*
X13620777Y-12128627D01*
X13620777Y-12128627D02*
X13611253Y-12147674D01*
X13801729Y-12033389D02*
X13801729Y-12071484D01*
X13877920Y-12033389D02*
X13877920Y-12071484D01*
X14173158Y-12309579D02*
X14163634Y-12300055D01*
X14163634Y-12300055D02*
X14144586Y-12271484D01*
X14144586Y-12271484D02*
X14135063Y-12252436D01*
X14135063Y-12252436D02*
X14125539Y-12223865D01*
X14125539Y-12223865D02*
X14116015Y-12176246D01*
X14116015Y-12176246D02*
X14116015Y-12138151D01*
X14116015Y-12138151D02*
X14125539Y-12090532D01*
X14125539Y-12090532D02*
X14135063Y-12061960D01*
X14135063Y-12061960D02*
X14144586Y-12042913D01*
X14144586Y-12042913D02*
X14163634Y-12014341D01*
X14163634Y-12014341D02*
X14173158Y-12004817D01*
X14335063Y-12100055D02*
X14335063Y-12233389D01*
X14287443Y-12023865D02*
X14239824Y-12166722D01*
X14239824Y-12166722D02*
X14363634Y-12166722D01*
X14592205Y-12233389D02*
X14592205Y-12033389D01*
X14677920Y-12233389D02*
X14677920Y-12128627D01*
X14677920Y-12128627D02*
X14668396Y-12109579D01*
X14668396Y-12109579D02*
X14649348Y-12100055D01*
X14649348Y-12100055D02*
X14620777Y-12100055D01*
X14620777Y-12100055D02*
X14601729Y-12109579D01*
X14601729Y-12109579D02*
X14592205Y-12119103D01*
X14801729Y-12233389D02*
X14782682Y-12223865D01*
X14782682Y-12223865D02*
X14773158Y-12214341D01*
X14773158Y-12214341D02*
X14763634Y-12195293D01*
X14763634Y-12195293D02*
X14763634Y-12138151D01*
X14763634Y-12138151D02*
X14773158Y-12119103D01*
X14773158Y-12119103D02*
X14782682Y-12109579D01*
X14782682Y-12109579D02*
X14801729Y-12100055D01*
X14801729Y-12100055D02*
X14830301Y-12100055D01*
X14830301Y-12100055D02*
X14849348Y-12109579D01*
X14849348Y-12109579D02*
X14858872Y-12119103D01*
X14858872Y-12119103D02*
X14868396Y-12138151D01*
X14868396Y-12138151D02*
X14868396Y-12195293D01*
X14868396Y-12195293D02*
X14858872Y-12214341D01*
X14858872Y-12214341D02*
X14849348Y-12223865D01*
X14849348Y-12223865D02*
X14830301Y-12233389D01*
X14830301Y-12233389D02*
X14801729Y-12233389D01*
X14982682Y-12233389D02*
X14963634Y-12223865D01*
X14963634Y-12223865D02*
X14954110Y-12204817D01*
X14954110Y-12204817D02*
X14954110Y-12033389D01*
X15135063Y-12223865D02*
X15116015Y-12233389D01*
X15116015Y-12233389D02*
X15077920Y-12233389D01*
X15077920Y-12233389D02*
X15058872Y-12223865D01*
X15058872Y-12223865D02*
X15049348Y-12204817D01*
X15049348Y-12204817D02*
X15049348Y-12128627D01*
X15049348Y-12128627D02*
X15058872Y-12109579D01*
X15058872Y-12109579D02*
X15077920Y-12100055D01*
X15077920Y-12100055D02*
X15116015Y-12100055D01*
X15116015Y-12100055D02*
X15135063Y-12109579D01*
X15135063Y-12109579D02*
X15144586Y-12128627D01*
X15144586Y-12128627D02*
X15144586Y-12147674D01*
X15144586Y-12147674D02*
X15049348Y-12166722D01*
X15220777Y-12223865D02*
X15239825Y-12233389D01*
X15239825Y-12233389D02*
X15277920Y-12233389D01*
X15277920Y-12233389D02*
X15296967Y-12223865D01*
X15296967Y-12223865D02*
X15306491Y-12204817D01*
X15306491Y-12204817D02*
X15306491Y-12195293D01*
X15306491Y-12195293D02*
X15296967Y-12176246D01*
X15296967Y-12176246D02*
X15277920Y-12166722D01*
X15277920Y-12166722D02*
X15249348Y-12166722D01*
X15249348Y-12166722D02*
X15230301Y-12157198D01*
X15230301Y-12157198D02*
X15220777Y-12138151D01*
X15220777Y-12138151D02*
X15220777Y-12128627D01*
X15220777Y-12128627D02*
X15230301Y-12109579D01*
X15230301Y-12109579D02*
X15249348Y-12100055D01*
X15249348Y-12100055D02*
X15277920Y-12100055D01*
X15277920Y-12100055D02*
X15296967Y-12109579D01*
X15373158Y-12309579D02*
X15382682Y-12300055D01*
X15382682Y-12300055D02*
X15401729Y-12271484D01*
X15401729Y-12271484D02*
X15411253Y-12252436D01*
X15411253Y-12252436D02*
X15420777Y-12223865D01*
X15420777Y-12223865D02*
X15430301Y-12176246D01*
X15430301Y-12176246D02*
X15430301Y-12138151D01*
X15430301Y-12138151D02*
X15420777Y-12090532D01*
X15420777Y-12090532D02*
X15411253Y-12061960D01*
X15411253Y-12061960D02*
X15401729Y-12042913D01*
X15401729Y-12042913D02*
X15382682Y-12014341D01*
X15382682Y-12014341D02*
X15373158Y-12004817D01*
X15735063Y-12309579D02*
X15725539Y-12300055D01*
X15725539Y-12300055D02*
X15706491Y-12271484D01*
X15706491Y-12271484D02*
X15696967Y-12252436D01*
X15696967Y-12252436D02*
X15687444Y-12223865D01*
X15687444Y-12223865D02*
X15677920Y-12176246D01*
X15677920Y-12176246D02*
X15677920Y-12138151D01*
X15677920Y-12138151D02*
X15687444Y-12090532D01*
X15687444Y-12090532D02*
X15696967Y-12061960D01*
X15696967Y-12061960D02*
X15706491Y-12042913D01*
X15706491Y-12042913D02*
X15725539Y-12014341D01*
X15725539Y-12014341D02*
X15735063Y-12004817D01*
X15811253Y-12100055D02*
X15811253Y-12233389D01*
X15811253Y-12119103D02*
X15820777Y-12109579D01*
X15820777Y-12109579D02*
X15839825Y-12100055D01*
X15839825Y-12100055D02*
X15868396Y-12100055D01*
X15868396Y-12100055D02*
X15887444Y-12109579D01*
X15887444Y-12109579D02*
X15896967Y-12128627D01*
X15896967Y-12128627D02*
X15896967Y-12233389D01*
X16020777Y-12233389D02*
X16001729Y-12223865D01*
X16001729Y-12223865D02*
X15992206Y-12214341D01*
X15992206Y-12214341D02*
X15982682Y-12195293D01*
X15982682Y-12195293D02*
X15982682Y-12138151D01*
X15982682Y-12138151D02*
X15992206Y-12119103D01*
X15992206Y-12119103D02*
X16001729Y-12109579D01*
X16001729Y-12109579D02*
X16020777Y-12100055D01*
X16020777Y-12100055D02*
X16049348Y-12100055D01*
X16049348Y-12100055D02*
X16068396Y-12109579D01*
X16068396Y-12109579D02*
X16077920Y-12119103D01*
X16077920Y-12119103D02*
X16087444Y-12138151D01*
X16087444Y-12138151D02*
X16087444Y-12195293D01*
X16087444Y-12195293D02*
X16077920Y-12214341D01*
X16077920Y-12214341D02*
X16068396Y-12223865D01*
X16068396Y-12223865D02*
X16049348Y-12233389D01*
X16049348Y-12233389D02*
X16020777Y-12233389D01*
X16144587Y-12100055D02*
X16220777Y-12100055D01*
X16173158Y-12033389D02*
X16173158Y-12204817D01*
X16173158Y-12204817D02*
X16182682Y-12223865D01*
X16182682Y-12223865D02*
X16201729Y-12233389D01*
X16201729Y-12233389D02*
X16220777Y-12233389D01*
X16439825Y-12100055D02*
X16439825Y-12300055D01*
X16439825Y-12109579D02*
X16458872Y-12100055D01*
X16458872Y-12100055D02*
X16496968Y-12100055D01*
X16496968Y-12100055D02*
X16516015Y-12109579D01*
X16516015Y-12109579D02*
X16525539Y-12119103D01*
X16525539Y-12119103D02*
X16535063Y-12138151D01*
X16535063Y-12138151D02*
X16535063Y-12195293D01*
X16535063Y-12195293D02*
X16525539Y-12214341D01*
X16525539Y-12214341D02*
X16516015Y-12223865D01*
X16516015Y-12223865D02*
X16496968Y-12233389D01*
X16496968Y-12233389D02*
X16458872Y-12233389D01*
X16458872Y-12233389D02*
X16439825Y-12223865D01*
X16649348Y-12233389D02*
X16630301Y-12223865D01*
X16630301Y-12223865D02*
X16620777Y-12204817D01*
X16620777Y-12204817D02*
X16620777Y-12033389D01*
X16811253Y-12233389D02*
X16811253Y-12128627D01*
X16811253Y-12128627D02*
X16801730Y-12109579D01*
X16801730Y-12109579D02*
X16782682Y-12100055D01*
X16782682Y-12100055D02*
X16744587Y-12100055D01*
X16744587Y-12100055D02*
X16725539Y-12109579D01*
X16811253Y-12223865D02*
X16792206Y-12233389D01*
X16792206Y-12233389D02*
X16744587Y-12233389D01*
X16744587Y-12233389D02*
X16725539Y-12223865D01*
X16725539Y-12223865D02*
X16716015Y-12204817D01*
X16716015Y-12204817D02*
X16716015Y-12185770D01*
X16716015Y-12185770D02*
X16725539Y-12166722D01*
X16725539Y-12166722D02*
X16744587Y-12157198D01*
X16744587Y-12157198D02*
X16792206Y-12157198D01*
X16792206Y-12157198D02*
X16811253Y-12147674D01*
X16877920Y-12100055D02*
X16954110Y-12100055D01*
X16906491Y-12033389D02*
X16906491Y-12204817D01*
X16906491Y-12204817D02*
X16916015Y-12223865D01*
X16916015Y-12223865D02*
X16935063Y-12233389D01*
X16935063Y-12233389D02*
X16954110Y-12233389D01*
X17096968Y-12223865D02*
X17077920Y-12233389D01*
X17077920Y-12233389D02*
X17039825Y-12233389D01*
X17039825Y-12233389D02*
X17020777Y-12223865D01*
X17020777Y-12223865D02*
X17011253Y-12204817D01*
X17011253Y-12204817D02*
X17011253Y-12128627D01*
X17011253Y-12128627D02*
X17020777Y-12109579D01*
X17020777Y-12109579D02*
X17039825Y-12100055D01*
X17039825Y-12100055D02*
X17077920Y-12100055D01*
X17077920Y-12100055D02*
X17096968Y-12109579D01*
X17096968Y-12109579D02*
X17106491Y-12128627D01*
X17106491Y-12128627D02*
X17106491Y-12147674D01*
X17106491Y-12147674D02*
X17011253Y-12166722D01*
X17277920Y-12233389D02*
X17277920Y-12033389D01*
X17277920Y-12223865D02*
X17258872Y-12233389D01*
X17258872Y-12233389D02*
X17220777Y-12233389D01*
X17220777Y-12233389D02*
X17201730Y-12223865D01*
X17201730Y-12223865D02*
X17192206Y-12214341D01*
X17192206Y-12214341D02*
X17182682Y-12195293D01*
X17182682Y-12195293D02*
X17182682Y-12138151D01*
X17182682Y-12138151D02*
X17192206Y-12119103D01*
X17192206Y-12119103D02*
X17201730Y-12109579D01*
X17201730Y-12109579D02*
X17220777Y-12100055D01*
X17220777Y-12100055D02*
X17258872Y-12100055D01*
X17258872Y-12100055D02*
X17277920Y-12109579D01*
X17354111Y-12309579D02*
X17363634Y-12300055D01*
X17363634Y-12300055D02*
X17382682Y-12271484D01*
X17382682Y-12271484D02*
X17392206Y-12252436D01*
X17392206Y-12252436D02*
X17401730Y-12223865D01*
X17401730Y-12223865D02*
X17411253Y-12176246D01*
X17411253Y-12176246D02*
X17411253Y-12138151D01*
X17411253Y-12138151D02*
X17401730Y-12090532D01*
X17401730Y-12090532D02*
X17392206Y-12061960D01*
X17392206Y-12061960D02*
X17382682Y-12042913D01*
X17382682Y-12042913D02*
X17363634Y-12014341D01*
X17363634Y-12014341D02*
X17354111Y-12004817D01*
X10598095Y-12461905D02*
G75*
G02*
X10398095Y-12461905I-100000J0D01*
G01*
X10398095Y-12461905D02*
G75*
G02*
X10598095Y-12461905I100000J0D01*
G01*
X10944586Y-12420055D02*
X10944586Y-12553389D01*
X10896967Y-12343865D02*
X10849348Y-12486722D01*
X10849348Y-12486722D02*
X10973158Y-12486722D01*
X11049348Y-12534341D02*
X11058872Y-12543865D01*
X11058872Y-12543865D02*
X11049348Y-12553389D01*
X11049348Y-12553389D02*
X11039824Y-12543865D01*
X11039824Y-12543865D02*
X11049348Y-12534341D01*
X11049348Y-12534341D02*
X11049348Y-12553389D01*
X11182681Y-12353389D02*
X11201729Y-12353389D01*
X11201729Y-12353389D02*
X11220777Y-12362913D01*
X11220777Y-12362913D02*
X11230300Y-12372436D01*
X11230300Y-12372436D02*
X11239824Y-12391484D01*
X11239824Y-12391484D02*
X11249348Y-12429579D01*
X11249348Y-12429579D02*
X11249348Y-12477198D01*
X11249348Y-12477198D02*
X11239824Y-12515293D01*
X11239824Y-12515293D02*
X11230300Y-12534341D01*
X11230300Y-12534341D02*
X11220777Y-12543865D01*
X11220777Y-12543865D02*
X11201729Y-12553389D01*
X11201729Y-12553389D02*
X11182681Y-12553389D01*
X11182681Y-12553389D02*
X11163634Y-12543865D01*
X11163634Y-12543865D02*
X11154110Y-12534341D01*
X11154110Y-12534341D02*
X11144586Y-12515293D01*
X11144586Y-12515293D02*
X11135062Y-12477198D01*
X11135062Y-12477198D02*
X11135062Y-12429579D01*
X11135062Y-12429579D02*
X11144586Y-12391484D01*
X11144586Y-12391484D02*
X11154110Y-12372436D01*
X11154110Y-12372436D02*
X11163634Y-12362913D01*
X11163634Y-12362913D02*
X11182681Y-12353389D01*
X11373157Y-12353389D02*
X11392205Y-12353389D01*
X11392205Y-12353389D02*
X11411253Y-12362913D01*
X11411253Y-12362913D02*
X11420777Y-12372436D01*
X11420777Y-12372436D02*
X11430300Y-12391484D01*
X11430300Y-12391484D02*
X11439824Y-12429579D01*
X11439824Y-12429579D02*
X11439824Y-12477198D01*
X11439824Y-12477198D02*
X11430300Y-12515293D01*
X11430300Y-12515293D02*
X11420777Y-12534341D01*
X11420777Y-12534341D02*
X11411253Y-12543865D01*
X11411253Y-12543865D02*
X11392205Y-12553389D01*
X11392205Y-12553389D02*
X11373157Y-12553389D01*
X11373157Y-12553389D02*
X11354110Y-12543865D01*
X11354110Y-12543865D02*
X11344586Y-12534341D01*
X11344586Y-12534341D02*
X11335062Y-12515293D01*
X11335062Y-12515293D02*
X11325538Y-12477198D01*
X11325538Y-12477198D02*
X11325538Y-12429579D01*
X11325538Y-12429579D02*
X11335062Y-12391484D01*
X11335062Y-12391484D02*
X11344586Y-12372436D01*
X11344586Y-12372436D02*
X11354110Y-12362913D01*
X11354110Y-12362913D02*
X11373157Y-12353389D01*
X11563634Y-12353389D02*
X11582681Y-12353389D01*
X11582681Y-12353389D02*
X11601729Y-12362913D01*
X11601729Y-12362913D02*
X11611253Y-12372436D01*
X11611253Y-12372436D02*
X11620777Y-12391484D01*
X11620777Y-12391484D02*
X11630300Y-12429579D01*
X11630300Y-12429579D02*
X11630300Y-12477198D01*
X11630300Y-12477198D02*
X11620777Y-12515293D01*
X11620777Y-12515293D02*
X11611253Y-12534341D01*
X11611253Y-12534341D02*
X11601729Y-12543865D01*
X11601729Y-12543865D02*
X11582681Y-12553389D01*
X11582681Y-12553389D02*
X11563634Y-12553389D01*
X11563634Y-12553389D02*
X11544586Y-12543865D01*
X11544586Y-12543865D02*
X11535062Y-12534341D01*
X11535062Y-12534341D02*
X11525538Y-12515293D01*
X11525538Y-12515293D02*
X11516015Y-12477198D01*
X11516015Y-12477198D02*
X11516015Y-12429579D01*
X11516015Y-12429579D02*
X11525538Y-12391484D01*
X11525538Y-12391484D02*
X11535062Y-12372436D01*
X11535062Y-12372436D02*
X11544586Y-12362913D01*
X11544586Y-12362913D02*
X11563634Y-12353389D01*
X11716015Y-12553389D02*
X11716015Y-12420055D01*
X11716015Y-12439103D02*
X11725538Y-12429579D01*
X11725538Y-12429579D02*
X11744586Y-12420055D01*
X11744586Y-12420055D02*
X11773158Y-12420055D01*
X11773158Y-12420055D02*
X11792205Y-12429579D01*
X11792205Y-12429579D02*
X11801729Y-12448627D01*
X11801729Y-12448627D02*
X11801729Y-12553389D01*
X11801729Y-12448627D02*
X11811253Y-12429579D01*
X11811253Y-12429579D02*
X11830300Y-12420055D01*
X11830300Y-12420055D02*
X11858872Y-12420055D01*
X11858872Y-12420055D02*
X11877919Y-12429579D01*
X11877919Y-12429579D02*
X11887443Y-12448627D01*
X11887443Y-12448627D02*
X11887443Y-12553389D01*
X11982681Y-12553389D02*
X11982681Y-12420055D01*
X11982681Y-12439103D02*
X11992205Y-12429579D01*
X11992205Y-12429579D02*
X12011253Y-12420055D01*
X12011253Y-12420055D02*
X12039824Y-12420055D01*
X12039824Y-12420055D02*
X12058872Y-12429579D01*
X12058872Y-12429579D02*
X12068396Y-12448627D01*
X12068396Y-12448627D02*
X12068396Y-12553389D01*
X12068396Y-12448627D02*
X12077919Y-12429579D01*
X12077919Y-12429579D02*
X12096967Y-12420055D01*
X12096967Y-12420055D02*
X12125538Y-12420055D01*
X12125538Y-12420055D02*
X12144586Y-12429579D01*
X12144586Y-12429579D02*
X12154110Y-12448627D01*
X12154110Y-12448627D02*
X12154110Y-12553389D01*
X12544586Y-12343865D02*
X12373158Y-12601008D01*
X12801729Y-12353389D02*
X12820777Y-12353389D01*
X12820777Y-12353389D02*
X12839824Y-12362913D01*
X12839824Y-12362913D02*
X12849348Y-12372436D01*
X12849348Y-12372436D02*
X12858872Y-12391484D01*
X12858872Y-12391484D02*
X12868396Y-12429579D01*
X12868396Y-12429579D02*
X12868396Y-12477198D01*
X12868396Y-12477198D02*
X12858872Y-12515293D01*
X12858872Y-12515293D02*
X12849348Y-12534341D01*
X12849348Y-12534341D02*
X12839824Y-12543865D01*
X12839824Y-12543865D02*
X12820777Y-12553389D01*
X12820777Y-12553389D02*
X12801729Y-12553389D01*
X12801729Y-12553389D02*
X12782681Y-12543865D01*
X12782681Y-12543865D02*
X12773158Y-12534341D01*
X12773158Y-12534341D02*
X12763634Y-12515293D01*
X12763634Y-12515293D02*
X12754110Y-12477198D01*
X12754110Y-12477198D02*
X12754110Y-12429579D01*
X12754110Y-12429579D02*
X12763634Y-12391484D01*
X12763634Y-12391484D02*
X12773158Y-12372436D01*
X12773158Y-12372436D02*
X12782681Y-12362913D01*
X12782681Y-12362913D02*
X12801729Y-12353389D01*
X12954110Y-12534341D02*
X12963634Y-12543865D01*
X12963634Y-12543865D02*
X12954110Y-12553389D01*
X12954110Y-12553389D02*
X12944586Y-12543865D01*
X12944586Y-12543865D02*
X12954110Y-12534341D01*
X12954110Y-12534341D02*
X12954110Y-12553389D01*
X13154110Y-12553389D02*
X13039824Y-12553389D01*
X13096967Y-12553389D02*
X13096967Y-12353389D01*
X13096967Y-12353389D02*
X13077920Y-12381960D01*
X13077920Y-12381960D02*
X13058872Y-12401008D01*
X13058872Y-12401008D02*
X13039824Y-12410532D01*
X13335062Y-12353389D02*
X13239824Y-12353389D01*
X13239824Y-12353389D02*
X13230301Y-12448627D01*
X13230301Y-12448627D02*
X13239824Y-12439103D01*
X13239824Y-12439103D02*
X13258872Y-12429579D01*
X13258872Y-12429579D02*
X13306491Y-12429579D01*
X13306491Y-12429579D02*
X13325539Y-12439103D01*
X13325539Y-12439103D02*
X13335062Y-12448627D01*
X13335062Y-12448627D02*
X13344586Y-12467674D01*
X13344586Y-12467674D02*
X13344586Y-12515293D01*
X13344586Y-12515293D02*
X13335062Y-12534341D01*
X13335062Y-12534341D02*
X13325539Y-12543865D01*
X13325539Y-12543865D02*
X13306491Y-12553389D01*
X13306491Y-12553389D02*
X13258872Y-12553389D01*
X13258872Y-12553389D02*
X13239824Y-12543865D01*
X13239824Y-12543865D02*
X13230301Y-12534341D01*
X13411253Y-12353389D02*
X13544586Y-12353389D01*
X13544586Y-12353389D02*
X13458872Y-12553389D01*
X13716015Y-12353389D02*
X13620777Y-12353389D01*
X13620777Y-12353389D02*
X13611253Y-12448627D01*
X13611253Y-12448627D02*
X13620777Y-12439103D01*
X13620777Y-12439103D02*
X13639824Y-12429579D01*
X13639824Y-12429579D02*
X13687443Y-12429579D01*
X13687443Y-12429579D02*
X13706491Y-12439103D01*
X13706491Y-12439103D02*
X13716015Y-12448627D01*
X13716015Y-12448627D02*
X13725539Y-12467674D01*
X13725539Y-12467674D02*
X13725539Y-12515293D01*
X13725539Y-12515293D02*
X13716015Y-12534341D01*
X13716015Y-12534341D02*
X13706491Y-12543865D01*
X13706491Y-12543865D02*
X13687443Y-12553389D01*
X13687443Y-12553389D02*
X13639824Y-12553389D01*
X13639824Y-12553389D02*
X13620777Y-12543865D01*
X13620777Y-12543865D02*
X13611253Y-12534341D01*
X13801729Y-12353389D02*
X13801729Y-12391484D01*
X13877920Y-12353389D02*
X13877920Y-12391484D01*
X14173158Y-12629579D02*
X14163634Y-12620055D01*
X14163634Y-12620055D02*
X14144586Y-12591484D01*
X14144586Y-12591484D02*
X14135063Y-12572436D01*
X14135063Y-12572436D02*
X14125539Y-12543865D01*
X14125539Y-12543865D02*
X14116015Y-12496246D01*
X14116015Y-12496246D02*
X14116015Y-12458151D01*
X14116015Y-12458151D02*
X14125539Y-12410532D01*
X14125539Y-12410532D02*
X14135063Y-12381960D01*
X14135063Y-12381960D02*
X14144586Y-12362913D01*
X14144586Y-12362913D02*
X14163634Y-12334341D01*
X14163634Y-12334341D02*
X14173158Y-12324817D01*
X14335063Y-12420055D02*
X14335063Y-12553389D01*
X14287443Y-12343865D02*
X14239824Y-12486722D01*
X14239824Y-12486722D02*
X14363634Y-12486722D01*
X14592205Y-12553389D02*
X14592205Y-12353389D01*
X14677920Y-12553389D02*
X14677920Y-12448627D01*
X14677920Y-12448627D02*
X14668396Y-12429579D01*
X14668396Y-12429579D02*
X14649348Y-12420055D01*
X14649348Y-12420055D02*
X14620777Y-12420055D01*
X14620777Y-12420055D02*
X14601729Y-12429579D01*
X14601729Y-12429579D02*
X14592205Y-12439103D01*
X14801729Y-12553389D02*
X14782682Y-12543865D01*
X14782682Y-12543865D02*
X14773158Y-12534341D01*
X14773158Y-12534341D02*
X14763634Y-12515293D01*
X14763634Y-12515293D02*
X14763634Y-12458151D01*
X14763634Y-12458151D02*
X14773158Y-12439103D01*
X14773158Y-12439103D02*
X14782682Y-12429579D01*
X14782682Y-12429579D02*
X14801729Y-12420055D01*
X14801729Y-12420055D02*
X14830301Y-12420055D01*
X14830301Y-12420055D02*
X14849348Y-12429579D01*
X14849348Y-12429579D02*
X14858872Y-12439103D01*
X14858872Y-12439103D02*
X14868396Y-12458151D01*
X14868396Y-12458151D02*
X14868396Y-12515293D01*
X14868396Y-12515293D02*
X14858872Y-12534341D01*
X14858872Y-12534341D02*
X14849348Y-12543865D01*
X14849348Y-12543865D02*
X14830301Y-12553389D01*
X14830301Y-12553389D02*
X14801729Y-12553389D01*
X14982682Y-12553389D02*
X14963634Y-12543865D01*
X14963634Y-12543865D02*
X14954110Y-12524817D01*
X14954110Y-12524817D02*
X14954110Y-12353389D01*
X15135063Y-12543865D02*
X15116015Y-12553389D01*
X15116015Y-12553389D02*
X15077920Y-12553389D01*
X15077920Y-12553389D02*
X15058872Y-12543865D01*
X15058872Y-12543865D02*
X15049348Y-12524817D01*
X15049348Y-12524817D02*
X15049348Y-12448627D01*
X15049348Y-12448627D02*
X15058872Y-12429579D01*
X15058872Y-12429579D02*
X15077920Y-12420055D01*
X15077920Y-12420055D02*
X15116015Y-12420055D01*
X15116015Y-12420055D02*
X15135063Y-12429579D01*
X15135063Y-12429579D02*
X15144586Y-12448627D01*
X15144586Y-12448627D02*
X15144586Y-12467674D01*
X15144586Y-12467674D02*
X15049348Y-12486722D01*
X15220777Y-12543865D02*
X15239825Y-12553389D01*
X15239825Y-12553389D02*
X15277920Y-12553389D01*
X15277920Y-12553389D02*
X15296967Y-12543865D01*
X15296967Y-12543865D02*
X15306491Y-12524817D01*
X15306491Y-12524817D02*
X15306491Y-12515293D01*
X15306491Y-12515293D02*
X15296967Y-12496246D01*
X15296967Y-12496246D02*
X15277920Y-12486722D01*
X15277920Y-12486722D02*
X15249348Y-12486722D01*
X15249348Y-12486722D02*
X15230301Y-12477198D01*
X15230301Y-12477198D02*
X15220777Y-12458151D01*
X15220777Y-12458151D02*
X15220777Y-12448627D01*
X15220777Y-12448627D02*
X15230301Y-12429579D01*
X15230301Y-12429579D02*
X15249348Y-12420055D01*
X15249348Y-12420055D02*
X15277920Y-12420055D01*
X15277920Y-12420055D02*
X15296967Y-12429579D01*
X15373158Y-12629579D02*
X15382682Y-12620055D01*
X15382682Y-12620055D02*
X15401729Y-12591484D01*
X15401729Y-12591484D02*
X15411253Y-12572436D01*
X15411253Y-12572436D02*
X15420777Y-12543865D01*
X15420777Y-12543865D02*
X15430301Y-12496246D01*
X15430301Y-12496246D02*
X15430301Y-12458151D01*
X15430301Y-12458151D02*
X15420777Y-12410532D01*
X15420777Y-12410532D02*
X15411253Y-12381960D01*
X15411253Y-12381960D02*
X15401729Y-12362913D01*
X15401729Y-12362913D02*
X15382682Y-12334341D01*
X15382682Y-12334341D02*
X15373158Y-12324817D01*
X15735063Y-12629579D02*
X15725539Y-12620055D01*
X15725539Y-12620055D02*
X15706491Y-12591484D01*
X15706491Y-12591484D02*
X15696967Y-12572436D01*
X15696967Y-12572436D02*
X15687444Y-12543865D01*
X15687444Y-12543865D02*
X15677920Y-12496246D01*
X15677920Y-12496246D02*
X15677920Y-12458151D01*
X15677920Y-12458151D02*
X15687444Y-12410532D01*
X15687444Y-12410532D02*
X15696967Y-12381960D01*
X15696967Y-12381960D02*
X15706491Y-12362913D01*
X15706491Y-12362913D02*
X15725539Y-12334341D01*
X15725539Y-12334341D02*
X15735063Y-12324817D01*
X15811253Y-12420055D02*
X15811253Y-12553389D01*
X15811253Y-12439103D02*
X15820777Y-12429579D01*
X15820777Y-12429579D02*
X15839825Y-12420055D01*
X15839825Y-12420055D02*
X15868396Y-12420055D01*
X15868396Y-12420055D02*
X15887444Y-12429579D01*
X15887444Y-12429579D02*
X15896967Y-12448627D01*
X15896967Y-12448627D02*
X15896967Y-12553389D01*
X16020777Y-12553389D02*
X16001729Y-12543865D01*
X16001729Y-12543865D02*
X15992206Y-12534341D01*
X15992206Y-12534341D02*
X15982682Y-12515293D01*
X15982682Y-12515293D02*
X15982682Y-12458151D01*
X15982682Y-12458151D02*
X15992206Y-12439103D01*
X15992206Y-12439103D02*
X16001729Y-12429579D01*
X16001729Y-12429579D02*
X16020777Y-12420055D01*
X16020777Y-12420055D02*
X16049348Y-12420055D01*
X16049348Y-12420055D02*
X16068396Y-12429579D01*
X16068396Y-12429579D02*
X16077920Y-12439103D01*
X16077920Y-12439103D02*
X16087444Y-12458151D01*
X16087444Y-12458151D02*
X16087444Y-12515293D01*
X16087444Y-12515293D02*
X16077920Y-12534341D01*
X16077920Y-12534341D02*
X16068396Y-12543865D01*
X16068396Y-12543865D02*
X16049348Y-12553389D01*
X16049348Y-12553389D02*
X16020777Y-12553389D01*
X16144587Y-12420055D02*
X16220777Y-12420055D01*
X16173158Y-12353389D02*
X16173158Y-12524817D01*
X16173158Y-12524817D02*
X16182682Y-12543865D01*
X16182682Y-12543865D02*
X16201729Y-12553389D01*
X16201729Y-12553389D02*
X16220777Y-12553389D01*
X16439825Y-12420055D02*
X16439825Y-12620055D01*
X16439825Y-12429579D02*
X16458872Y-12420055D01*
X16458872Y-12420055D02*
X16496968Y-12420055D01*
X16496968Y-12420055D02*
X16516015Y-12429579D01*
X16516015Y-12429579D02*
X16525539Y-12439103D01*
X16525539Y-12439103D02*
X16535063Y-12458151D01*
X16535063Y-12458151D02*
X16535063Y-12515293D01*
X16535063Y-12515293D02*
X16525539Y-12534341D01*
X16525539Y-12534341D02*
X16516015Y-12543865D01*
X16516015Y-12543865D02*
X16496968Y-12553389D01*
X16496968Y-12553389D02*
X16458872Y-12553389D01*
X16458872Y-12553389D02*
X16439825Y-12543865D01*
X16649348Y-12553389D02*
X16630301Y-12543865D01*
X16630301Y-12543865D02*
X16620777Y-12524817D01*
X16620777Y-12524817D02*
X16620777Y-12353389D01*
X16811253Y-12553389D02*
X16811253Y-12448627D01*
X16811253Y-12448627D02*
X16801730Y-12429579D01*
X16801730Y-12429579D02*
X16782682Y-12420055D01*
X16782682Y-12420055D02*
X16744587Y-12420055D01*
X16744587Y-12420055D02*
X16725539Y-12429579D01*
X16811253Y-12543865D02*
X16792206Y-12553389D01*
X16792206Y-12553389D02*
X16744587Y-12553389D01*
X16744587Y-12553389D02*
X16725539Y-12543865D01*
X16725539Y-12543865D02*
X16716015Y-12524817D01*
X16716015Y-12524817D02*
X16716015Y-12505770D01*
X16716015Y-12505770D02*
X16725539Y-12486722D01*
X16725539Y-12486722D02*
X16744587Y-12477198D01*
X16744587Y-12477198D02*
X16792206Y-12477198D01*
X16792206Y-12477198D02*
X16811253Y-12467674D01*
X16877920Y-12420055D02*
X16954110Y-12420055D01*
X16906491Y-12353389D02*
X16906491Y-12524817D01*
X16906491Y-12524817D02*
X16916015Y-12543865D01*
X16916015Y-12543865D02*
X16935063Y-12553389D01*
X16935063Y-12553389D02*
X16954110Y-12553389D01*
X17096968Y-12543865D02*
X17077920Y-12553389D01*
X17077920Y-12553389D02*
X17039825Y-12553389D01*
X17039825Y-12553389D02*
X17020777Y-12543865D01*
X17020777Y-12543865D02*
X17011253Y-12524817D01*
X17011253Y-12524817D02*
X17011253Y-12448627D01*
X17011253Y-12448627D02*
X17020777Y-12429579D01*
X17020777Y-12429579D02*
X17039825Y-12420055D01*
X17039825Y-12420055D02*
X17077920Y-12420055D01*
X17077920Y-12420055D02*
X17096968Y-12429579D01*
X17096968Y-12429579D02*
X17106491Y-12448627D01*
X17106491Y-12448627D02*
X17106491Y-12467674D01*
X17106491Y-12467674D02*
X17011253Y-12486722D01*
X17277920Y-12553389D02*
X17277920Y-12353389D01*
X17277920Y-12543865D02*
X17258872Y-12553389D01*
X17258872Y-12553389D02*
X17220777Y-12553389D01*
X17220777Y-12553389D02*
X17201730Y-12543865D01*
X17201730Y-12543865D02*
X17192206Y-12534341D01*
X17192206Y-12534341D02*
X17182682Y-12515293D01*
X17182682Y-12515293D02*
X17182682Y-12458151D01*
X17182682Y-12458151D02*
X17192206Y-12439103D01*
X17192206Y-12439103D02*
X17201730Y-12429579D01*
X17201730Y-12429579D02*
X17220777Y-12420055D01*
X17220777Y-12420055D02*
X17258872Y-12420055D01*
X17258872Y-12420055D02*
X17277920Y-12429579D01*
X17354111Y-12629579D02*
X17363634Y-12620055D01*
X17363634Y-12620055D02*
X17382682Y-12591484D01*
X17382682Y-12591484D02*
X17392206Y-12572436D01*
X17392206Y-12572436D02*
X17401730Y-12543865D01*
X17401730Y-12543865D02*
X17411253Y-12496246D01*
X17411253Y-12496246D02*
X17411253Y-12458151D01*
X17411253Y-12458151D02*
X17401730Y-12410532D01*
X17401730Y-12410532D02*
X17392206Y-12381960D01*
X17392206Y-12381960D02*
X17382682Y-12362913D01*
X17382682Y-12362913D02*
X17363634Y-12334341D01*
X17363634Y-12334341D02*
X17354111Y-12324817D01*
M02*
