%TF.GenerationSoftware,KiCad,Pcbnew,9.0.0*%
%TF.CreationDate,2025-03-03T22:54:26+00:00*%
%TF.ProjectId,controller,636f6e74-726f-46c6-9c65-722e6b696361,rev?*%
%TF.SameCoordinates,Original*%
%TF.FileFunction,Copper,L1,Top*%
%TF.FilePolarity,Positive*%
%FSLAX46Y46*%
G04 Gerber Fmt 4.6, Leading zero omitted, Abs format (unit mm)*
G04 Created by KiCad (PCBNEW 9.0.0) date 2025-03-03 22:54:26*
%MOMM*%
%LPD*%
G01*
G04 APERTURE LIST*
%TA.AperFunction,ComponentPad*%
%ADD10R,1.600000X1.600000*%
%TD*%
%TA.AperFunction,ComponentPad*%
%ADD11O,1.600000X1.600000*%
%TD*%
%TA.AperFunction,ComponentPad*%
%ADD12C,2.200000*%
%TD*%
%TA.AperFunction,ComponentPad*%
%ADD13R,3.000000X1.500000*%
%TD*%
%TA.AperFunction,ComponentPad*%
%ADD14O,3.000000X1.500000*%
%TD*%
%TA.AperFunction,Conductor*%
%ADD15C,0.127000*%
%TD*%
%TA.AperFunction,Conductor*%
%ADD16C,0.200000*%
%TD*%
G04 APERTURE END LIST*
D10*
%TO.P,U1,1,D1/TX*%
%TO.N,unconnected-(U1-D1{slash}TX-Pad1)*%
X119460000Y-74240000D03*
D11*
%TO.P,U1,2,D0/RX*%
%TO.N,unconnected-(U1-D0{slash}RX-Pad2)*%
X122000000Y-74240000D03*
%TO.P,U1,3,GND*%
%TO.N,GND*%
X124540000Y-74240000D03*
%TO.P,U1,4,GND*%
X127080000Y-74240000D03*
%TO.P,U1,5,D2*%
%TO.N,Net-(SW4-B)*%
X129620000Y-74240000D03*
%TO.P,U1,6,~D3*%
%TO.N,Net-(U1-~D3)*%
X132160000Y-74240000D03*
%TO.P,U1,7,D4/A6*%
%TO.N,Net-(SW3-B)*%
X134700000Y-74240000D03*
%TO.P,U1,8,~D5*%
%TO.N,Net-(U1-~D5)*%
X137240000Y-74240000D03*
%TO.P,U1,9,~D6/A7*%
%TO.N,Net-(SW2-B)*%
X139780000Y-74240000D03*
%TO.P,U1,10,D7*%
%TO.N,Net-(U1-D7)*%
X142320000Y-74240000D03*
%TO.P,U1,11,D8/A8*%
%TO.N,Net-(U1-D8{slash}A8)*%
X144860000Y-74240000D03*
%TO.P,U1,12,~D9/A9*%
%TO.N,Net-(SW5-B)*%
X147400000Y-74240000D03*
%TO.P,U1,13,~D10/A10*%
%TO.N,unconnected-(U1-~D10{slash}A10-Pad13)*%
X147400000Y-59000000D03*
%TO.P,U1,14,D16*%
%TO.N,unconnected-(U1-D16-Pad14)*%
X144860000Y-59000000D03*
%TO.P,U1,15,D14*%
%TO.N,unconnected-(U1-D14-Pad15)*%
X142320000Y-59000000D03*
%TO.P,U1,16,D15*%
%TO.N,unconnected-(U1-D15-Pad16)*%
X139780000Y-59000000D03*
%TO.P,U1,17,D18/A0*%
%TO.N,unconnected-(U1-D18{slash}A0-Pad17)*%
X137240000Y-59000000D03*
%TO.P,U1,18,D19/A1*%
%TO.N,unconnected-(U1-D19{slash}A1-Pad18)*%
X134700000Y-59000000D03*
%TO.P,U1,19,D20/A2*%
%TO.N,unconnected-(U1-D20{slash}A2-Pad19)*%
X132160000Y-59000000D03*
%TO.P,U1,20,D21/A3*%
%TO.N,unconnected-(U1-D21{slash}A3-Pad20)*%
X129620000Y-59000000D03*
%TO.P,U1,21,VCC*%
%TO.N,+5V*%
X127080000Y-59000000D03*
%TO.P,U1,22,RST*%
%TO.N,unconnected-(U1-RST-Pad22)*%
X124540000Y-59000000D03*
%TO.P,U1,23,GND*%
%TO.N,GND*%
X122000000Y-59000000D03*
%TO.P,U1,24,RAW*%
%TO.N,unconnected-(U1-RAW-Pad24)*%
X119460000Y-59000000D03*
%TD*%
D12*
%TO.P,SW11,1,1*%
%TO.N,Net-(U1-~D3)*%
X119540000Y-97920000D03*
%TO.P,SW11,2,2*%
%TO.N,GND*%
X113190000Y-100460000D03*
%TD*%
%TO.P,SW8,1,1*%
%TO.N,Net-(U1-D7)*%
X154540000Y-98000000D03*
%TO.P,SW8,2,2*%
%TO.N,GND*%
X148190000Y-100540000D03*
%TD*%
D13*
%TO.P,SW2,1,A*%
%TO.N,GND*%
X152000000Y-82000000D03*
D14*
%TO.P,SW2,2,B*%
%TO.N,Net-(SW2-B)*%
X152000000Y-87000000D03*
%TO.P,SW2,3,C*%
%TO.N,+5V*%
X152000000Y-91572000D03*
%TD*%
D12*
%TO.P,SW9,1,1*%
%TO.N,Net-(U1-D8{slash}A8)*%
X172540000Y-98000000D03*
%TO.P,SW9,2,2*%
%TO.N,GND*%
X166190000Y-100540000D03*
%TD*%
D13*
%TO.P,SW4,1,A*%
%TO.N,GND*%
X117000000Y-82000000D03*
D14*
%TO.P,SW4,2,B*%
%TO.N,Net-(SW4-B)*%
X117000000Y-87000000D03*
%TO.P,SW4,3,C*%
%TO.N,+5V*%
X117000000Y-91572000D03*
%TD*%
D13*
%TO.P,SW3,1,A*%
%TO.N,GND*%
X134000000Y-82000000D03*
D14*
%TO.P,SW3,2,B*%
%TO.N,Net-(SW3-B)*%
X134000000Y-87000000D03*
%TO.P,SW3,3,C*%
%TO.N,+5V*%
X134000000Y-91572000D03*
%TD*%
D12*
%TO.P,SW10,1,1*%
%TO.N,Net-(U1-~D5)*%
X137000000Y-98000000D03*
%TO.P,SW10,2,2*%
%TO.N,GND*%
X130650000Y-100540000D03*
%TD*%
D13*
%TO.P,SW5,1,A*%
%TO.N,GND*%
X169000000Y-82000000D03*
D14*
%TO.P,SW5,2,B*%
%TO.N,Net-(SW5-B)*%
X169000000Y-87000000D03*
%TO.P,SW5,3,C*%
%TO.N,+5V*%
X169000000Y-91572000D03*
%TD*%
D15*
%TO.N,Net-(SW2-B)*%
X139780000Y-74240000D02*
X144200000Y-78660000D01*
X144200000Y-78660000D02*
X144200000Y-84700000D01*
X144200000Y-84700000D02*
X146500000Y-87000000D01*
X146500000Y-87000000D02*
X152000000Y-87000000D01*
%TO.N,Net-(SW3-B)*%
X138200000Y-87000000D02*
X140000000Y-85200000D01*
X140000000Y-85200000D02*
X140000000Y-79600000D01*
X140000000Y-79540000D02*
X134700000Y-74240000D01*
X140000000Y-79600000D02*
X140000000Y-79540000D01*
X134000000Y-87000000D02*
X138200000Y-87000000D01*
%TO.N,Net-(SW4-B)*%
X129620000Y-76380000D02*
X129620000Y-74240000D01*
X126300000Y-79700000D02*
X129620000Y-76380000D01*
X121500000Y-87000000D02*
X126300000Y-82200000D01*
X126300000Y-79900000D02*
X126300000Y-79700000D01*
X126300000Y-82200000D02*
X126300000Y-79900000D01*
X117000000Y-87000000D02*
X121500000Y-87000000D01*
%TO.N,Net-(SW5-B)*%
X171300000Y-76900000D02*
X174400000Y-80000000D01*
X173600000Y-87000000D02*
X169000000Y-87000000D01*
X174400000Y-80000000D02*
X174400000Y-86200000D01*
X150060000Y-76900000D02*
X171300000Y-76900000D01*
X174400000Y-86200000D02*
X173600000Y-87000000D01*
X147400000Y-74240000D02*
X150060000Y-76900000D01*
%TO.N,Net-(U1-D7)*%
X157300000Y-80800000D02*
X157300000Y-95240000D01*
X156100000Y-79600000D02*
X157300000Y-80800000D01*
X157300000Y-95240000D02*
X154540000Y-98000000D01*
X147680000Y-79600000D02*
X156100000Y-79600000D01*
X142320000Y-74240000D02*
X147680000Y-79600000D01*
%TO.N,Net-(U1-D8{slash}A8)*%
X163400000Y-93300000D02*
X163400000Y-84100000D01*
X164900000Y-94800000D02*
X163400000Y-93300000D01*
X157700000Y-78400000D02*
X163400000Y-84100000D01*
X149020000Y-78400000D02*
X157700000Y-78400000D01*
X144860000Y-74240000D02*
X149020000Y-78400000D01*
X169340000Y-94800000D02*
X164900000Y-94800000D01*
X172540000Y-98000000D02*
X169340000Y-94800000D01*
%TO.N,Net-(U1-~D5)*%
X142100000Y-92900000D02*
X137000000Y-98000000D01*
X142100000Y-79100000D02*
X142100000Y-92900000D01*
X137240000Y-74240000D02*
X142100000Y-79100000D01*
D16*
%TO.N,Net-(U1-~D3)*%
X119540000Y-97920000D02*
X128100000Y-89360000D01*
X128100000Y-80900000D02*
X132160000Y-76840000D01*
X132160000Y-76840000D02*
X132160000Y-74240000D01*
X128100000Y-89360000D02*
X128100000Y-80900000D01*
%TD*%
%TA.AperFunction,Conductor*%
%TO.N,GND*%
G36*
X126759920Y-73994394D02*
G01*
X126707259Y-74085606D01*
X126680000Y-74187339D01*
X126680000Y-74292661D01*
X126707259Y-74394394D01*
X126759920Y-74485606D01*
X126764314Y-74490000D01*
X124855686Y-74490000D01*
X124860080Y-74485606D01*
X124912741Y-74394394D01*
X124940000Y-74292661D01*
X124940000Y-74187339D01*
X124912741Y-74085606D01*
X124860080Y-73994394D01*
X124855686Y-73990000D01*
X126764314Y-73990000D01*
X126759920Y-73994394D01*
G37*
%TD.AperFunction*%
%TA.AperFunction,Conductor*%
G36*
X180442400Y-53420928D02*
G01*
X180488226Y-53473671D01*
X180499500Y-53525333D01*
X180499500Y-114375500D01*
X180479815Y-114442539D01*
X180427011Y-114488294D01*
X180375500Y-114499500D01*
X106624500Y-114499500D01*
X106557461Y-114479815D01*
X106511706Y-114427011D01*
X106500500Y-114375500D01*
X106500500Y-111893713D01*
X107649500Y-111893713D01*
X107649500Y-112106286D01*
X107682753Y-112316239D01*
X107748444Y-112518414D01*
X107844951Y-112707820D01*
X107969890Y-112879786D01*
X108120213Y-113030109D01*
X108292179Y-113155048D01*
X108292181Y-113155049D01*
X108292184Y-113155051D01*
X108481588Y-113251557D01*
X108683757Y-113317246D01*
X108893713Y-113350500D01*
X108893714Y-113350500D01*
X109106286Y-113350500D01*
X109106287Y-113350500D01*
X109316243Y-113317246D01*
X109518412Y-113251557D01*
X109707816Y-113155051D01*
X109729789Y-113139086D01*
X109879786Y-113030109D01*
X109879788Y-113030106D01*
X109879792Y-113030104D01*
X110030104Y-112879792D01*
X110030106Y-112879788D01*
X110030109Y-112879786D01*
X110155048Y-112707820D01*
X110155047Y-112707820D01*
X110155051Y-112707816D01*
X110251557Y-112518412D01*
X110317246Y-112316243D01*
X110350500Y-112106287D01*
X110350500Y-111893713D01*
X176649500Y-111893713D01*
X176649500Y-112106286D01*
X176682753Y-112316239D01*
X176748444Y-112518414D01*
X176844951Y-112707820D01*
X176969890Y-112879786D01*
X177120213Y-113030109D01*
X177292179Y-113155048D01*
X177292181Y-113155049D01*
X177292184Y-113155051D01*
X177481588Y-113251557D01*
X177683757Y-113317246D01*
X177893713Y-113350500D01*
X177893714Y-113350500D01*
X178106286Y-113350500D01*
X178106287Y-113350500D01*
X178316243Y-113317246D01*
X178518412Y-113251557D01*
X178707816Y-113155051D01*
X178729789Y-113139086D01*
X178879786Y-113030109D01*
X178879788Y-113030106D01*
X178879792Y-113030104D01*
X179030104Y-112879792D01*
X179030106Y-112879788D01*
X179030109Y-112879786D01*
X179155048Y-112707820D01*
X179155047Y-112707820D01*
X179155051Y-112707816D01*
X179251557Y-112518412D01*
X179317246Y-112316243D01*
X179350500Y-112106287D01*
X179350500Y-111893713D01*
X179317246Y-111683757D01*
X179251557Y-111481588D01*
X179155051Y-111292184D01*
X179155049Y-111292181D01*
X179155048Y-111292179D01*
X179030109Y-111120213D01*
X178879786Y-110969890D01*
X178707820Y-110844951D01*
X178518414Y-110748444D01*
X178518413Y-110748443D01*
X178518412Y-110748443D01*
X178316243Y-110682754D01*
X178316241Y-110682753D01*
X178316240Y-110682753D01*
X178154957Y-110657208D01*
X178106287Y-110649500D01*
X177893713Y-110649500D01*
X177845042Y-110657208D01*
X177683760Y-110682753D01*
X177481585Y-110748444D01*
X177292179Y-110844951D01*
X177120213Y-110969890D01*
X176969890Y-111120213D01*
X176844951Y-111292179D01*
X176748444Y-111481585D01*
X176682753Y-111683760D01*
X176649500Y-111893713D01*
X110350500Y-111893713D01*
X110317246Y-111683757D01*
X110251557Y-111481588D01*
X110155051Y-111292184D01*
X110155049Y-111292181D01*
X110155048Y-111292179D01*
X110030109Y-111120213D01*
X109879786Y-110969890D01*
X109707820Y-110844951D01*
X109518414Y-110748444D01*
X109518413Y-110748443D01*
X109518412Y-110748443D01*
X109316243Y-110682754D01*
X109316241Y-110682753D01*
X109316240Y-110682753D01*
X109154957Y-110657208D01*
X109106287Y-110649500D01*
X108893713Y-110649500D01*
X108845042Y-110657208D01*
X108683760Y-110682753D01*
X108481585Y-110748444D01*
X108292179Y-110844951D01*
X108120213Y-110969890D01*
X107969890Y-111120213D01*
X107844951Y-111292179D01*
X107748444Y-111481585D01*
X107682753Y-111683760D01*
X107649500Y-111893713D01*
X106500500Y-111893713D01*
X106500500Y-102852486D01*
X114749500Y-102852486D01*
X114749500Y-103147513D01*
X114760031Y-103227499D01*
X114788007Y-103439993D01*
X114864361Y-103724951D01*
X114864364Y-103724961D01*
X114977254Y-103997500D01*
X114977258Y-103997510D01*
X115124761Y-104252993D01*
X115304352Y-104487040D01*
X115304358Y-104487047D01*
X115512952Y-104695641D01*
X115512959Y-104695647D01*
X115747006Y-104875238D01*
X116002489Y-105022741D01*
X116002490Y-105022741D01*
X116002493Y-105022743D01*
X116275048Y-105135639D01*
X116560007Y-105211993D01*
X116852494Y-105250500D01*
X116852501Y-105250500D01*
X117147499Y-105250500D01*
X117147506Y-105250500D01*
X117439993Y-105211993D01*
X117724952Y-105135639D01*
X117997507Y-105022743D01*
X118252994Y-104875238D01*
X118487042Y-104695646D01*
X118695646Y-104487042D01*
X118875238Y-104252994D01*
X119022743Y-103997507D01*
X119135639Y-103724952D01*
X119211993Y-103439993D01*
X119250500Y-103147506D01*
X119250500Y-102932486D01*
X132209500Y-102932486D01*
X132209500Y-103227513D01*
X132237475Y-103439993D01*
X132248007Y-103519993D01*
X132302928Y-103724961D01*
X132324361Y-103804951D01*
X132324364Y-103804961D01*
X132437254Y-104077500D01*
X132437258Y-104077510D01*
X132584761Y-104332993D01*
X132764352Y-104567040D01*
X132764358Y-104567047D01*
X132972952Y-104775641D01*
X132972959Y-104775647D01*
X133207006Y-104955238D01*
X133462489Y-105102741D01*
X133462490Y-105102741D01*
X133462493Y-105102743D01*
X133673296Y-105190060D01*
X133726245Y-105211993D01*
X133735048Y-105215639D01*
X134020007Y-105291993D01*
X134312494Y-105330500D01*
X134312501Y-105330500D01*
X134607499Y-105330500D01*
X134607506Y-105330500D01*
X134899993Y-105291993D01*
X135184952Y-105215639D01*
X135457507Y-105102743D01*
X135712994Y-104955238D01*
X135947042Y-104775646D01*
X136155646Y-104567042D01*
X136335238Y-104332994D01*
X136482743Y-104077507D01*
X136595639Y-103804952D01*
X136671993Y-103519993D01*
X136710500Y-103227506D01*
X136710500Y-102932494D01*
X136710499Y-102932486D01*
X149749500Y-102932486D01*
X149749500Y-103227513D01*
X149777475Y-103439993D01*
X149788007Y-103519993D01*
X149842928Y-103724961D01*
X149864361Y-103804951D01*
X149864364Y-103804961D01*
X149977254Y-104077500D01*
X149977258Y-104077510D01*
X150124761Y-104332993D01*
X150304352Y-104567040D01*
X150304358Y-104567047D01*
X150512952Y-104775641D01*
X150512959Y-104775647D01*
X150747006Y-104955238D01*
X151002489Y-105102741D01*
X151002490Y-105102741D01*
X151002493Y-105102743D01*
X151213296Y-105190060D01*
X151266245Y-105211993D01*
X151275048Y-105215639D01*
X151560007Y-105291993D01*
X151852494Y-105330500D01*
X151852501Y-105330500D01*
X152147499Y-105330500D01*
X152147506Y-105330500D01*
X152439993Y-105291993D01*
X152724952Y-105215639D01*
X152997507Y-105102743D01*
X153252994Y-104955238D01*
X153487042Y-104775646D01*
X153695646Y-104567042D01*
X153875238Y-104332994D01*
X154022743Y-104077507D01*
X154135639Y-103804952D01*
X154211993Y-103519993D01*
X154250500Y-103227506D01*
X154250500Y-102932494D01*
X154250499Y-102932486D01*
X167749500Y-102932486D01*
X167749500Y-103227513D01*
X167777475Y-103439993D01*
X167788007Y-103519993D01*
X167842928Y-103724961D01*
X167864361Y-103804951D01*
X167864364Y-103804961D01*
X167977254Y-104077500D01*
X167977258Y-104077510D01*
X168124761Y-104332993D01*
X168304352Y-104567040D01*
X168304358Y-104567047D01*
X168512952Y-104775641D01*
X168512959Y-104775647D01*
X168747006Y-104955238D01*
X169002489Y-105102741D01*
X169002490Y-105102741D01*
X169002493Y-105102743D01*
X169213296Y-105190060D01*
X169266245Y-105211993D01*
X169275048Y-105215639D01*
X169560007Y-105291993D01*
X169852494Y-105330500D01*
X169852501Y-105330500D01*
X170147499Y-105330500D01*
X170147506Y-105330500D01*
X170439993Y-105291993D01*
X170724952Y-105215639D01*
X170997507Y-105102743D01*
X171252994Y-104955238D01*
X171487042Y-104775646D01*
X171695646Y-104567042D01*
X171875238Y-104332994D01*
X172022743Y-104077507D01*
X172135639Y-103804952D01*
X172211993Y-103519993D01*
X172250500Y-103227506D01*
X172250500Y-102932494D01*
X172211993Y-102640007D01*
X172135639Y-102355048D01*
X172022743Y-102082493D01*
X171987010Y-102020602D01*
X171875238Y-101827006D01*
X171695647Y-101592959D01*
X171695641Y-101592952D01*
X171487047Y-101384358D01*
X171487040Y-101384352D01*
X171252993Y-101204761D01*
X170997510Y-101057258D01*
X170997500Y-101057254D01*
X170724961Y-100944364D01*
X170724954Y-100944362D01*
X170724952Y-100944361D01*
X170439993Y-100868007D01*
X170391113Y-100861571D01*
X170147513Y-100829500D01*
X170147506Y-100829500D01*
X169852494Y-100829500D01*
X169852486Y-100829500D01*
X169587678Y-100864364D01*
X169560007Y-100868007D01*
X169385861Y-100914669D01*
X169275048Y-100944361D01*
X169275038Y-100944364D01*
X169002499Y-101057254D01*
X169002489Y-101057258D01*
X168747006Y-101204761D01*
X168512959Y-101384352D01*
X168512952Y-101384358D01*
X168304358Y-101592952D01*
X168304352Y-101592959D01*
X168124761Y-101827006D01*
X167977258Y-102082489D01*
X167977254Y-102082499D01*
X167864364Y-102355038D01*
X167864361Y-102355048D01*
X167788008Y-102640004D01*
X167788006Y-102640015D01*
X167749500Y-102932486D01*
X154250499Y-102932486D01*
X154211993Y-102640007D01*
X154135639Y-102355048D01*
X154022743Y-102082493D01*
X153987010Y-102020602D01*
X153887931Y-101848991D01*
X153887930Y-101848990D01*
X153876069Y-101828446D01*
X153875238Y-101827006D01*
X153695646Y-101592958D01*
X153695641Y-101592952D01*
X153487047Y-101384358D01*
X153487040Y-101384352D01*
X153252993Y-101204761D01*
X152997510Y-101057258D01*
X152997500Y-101057254D01*
X152724961Y-100944364D01*
X152724954Y-100944362D01*
X152724952Y-100944361D01*
X152439993Y-100868007D01*
X152391113Y-100861571D01*
X152147513Y-100829500D01*
X152147506Y-100829500D01*
X151852494Y-100829500D01*
X151852486Y-100829500D01*
X151587678Y-100864364D01*
X151560007Y-100868007D01*
X151385861Y-100914669D01*
X151275048Y-100944361D01*
X151275038Y-100944364D01*
X151002499Y-101057254D01*
X151002489Y-101057258D01*
X150747006Y-101204761D01*
X150512959Y-101384352D01*
X150512952Y-101384358D01*
X150304358Y-101592952D01*
X150304352Y-101592959D01*
X150124761Y-101827006D01*
X149977258Y-102082489D01*
X149977254Y-102082499D01*
X149864364Y-102355038D01*
X149864361Y-102355048D01*
X149788008Y-102640004D01*
X149788006Y-102640015D01*
X149749500Y-102932486D01*
X136710499Y-102932486D01*
X136671993Y-102640007D01*
X136595639Y-102355048D01*
X136482743Y-102082493D01*
X136447010Y-102020602D01*
X136347931Y-101848991D01*
X136347930Y-101848990D01*
X136336069Y-101828446D01*
X136335238Y-101827006D01*
X136155646Y-101592958D01*
X136155641Y-101592952D01*
X135947047Y-101384358D01*
X135947040Y-101384352D01*
X135712993Y-101204761D01*
X135457510Y-101057258D01*
X135457500Y-101057254D01*
X135184961Y-100944364D01*
X135184954Y-100944362D01*
X135184952Y-100944361D01*
X134899993Y-100868007D01*
X134851113Y-100861571D01*
X134607513Y-100829500D01*
X134607506Y-100829500D01*
X134312494Y-100829500D01*
X134312486Y-100829500D01*
X134047678Y-100864364D01*
X134020007Y-100868007D01*
X133845861Y-100914669D01*
X133735048Y-100944361D01*
X133735038Y-100944364D01*
X133462499Y-101057254D01*
X133462489Y-101057258D01*
X133207006Y-101204761D01*
X132972959Y-101384352D01*
X132972952Y-101384358D01*
X132764358Y-101592952D01*
X132764352Y-101592959D01*
X132584761Y-101827006D01*
X132437258Y-102082489D01*
X132437254Y-102082499D01*
X132324364Y-102355038D01*
X132324361Y-102355048D01*
X132248008Y-102640004D01*
X132248006Y-102640015D01*
X132209500Y-102932486D01*
X119250500Y-102932486D01*
X119250500Y-102852494D01*
X119211993Y-102560007D01*
X119135639Y-102275048D01*
X119022743Y-102002493D01*
X118875238Y-101747006D01*
X118757033Y-101592959D01*
X118695647Y-101512959D01*
X118695641Y-101512952D01*
X118487047Y-101304358D01*
X118487040Y-101304352D01*
X118252993Y-101124761D01*
X117997510Y-100977258D01*
X117997500Y-100977254D01*
X117724961Y-100864364D01*
X117724954Y-100864362D01*
X117724952Y-100864361D01*
X117439993Y-100788007D01*
X117391113Y-100781571D01*
X117147513Y-100749500D01*
X117147506Y-100749500D01*
X116852494Y-100749500D01*
X116852486Y-100749500D01*
X116574085Y-100786153D01*
X116560007Y-100788007D01*
X116405152Y-100829500D01*
X116275048Y-100864361D01*
X116275038Y-100864364D01*
X116002499Y-100977254D01*
X116002489Y-100977258D01*
X115747006Y-101124761D01*
X115512959Y-101304352D01*
X115512952Y-101304358D01*
X115304358Y-101512952D01*
X115304352Y-101512959D01*
X115124761Y-101747006D01*
X114977258Y-102002489D01*
X114977254Y-102002499D01*
X114864364Y-102275038D01*
X114864361Y-102275048D01*
X114788008Y-102560004D01*
X114788006Y-102560015D01*
X114749500Y-102852486D01*
X106500500Y-102852486D01*
X106500500Y-100334071D01*
X111590000Y-100334071D01*
X111590000Y-100585928D01*
X111629397Y-100834669D01*
X111707219Y-101074184D01*
X111821557Y-101298583D01*
X111895748Y-101400697D01*
X111895748Y-101400698D01*
X112512421Y-100784024D01*
X112525359Y-100815258D01*
X112607437Y-100938097D01*
X112711903Y-101042563D01*
X112834742Y-101124641D01*
X112865974Y-101137577D01*
X112249300Y-101754250D01*
X112351416Y-101828442D01*
X112575815Y-101942780D01*
X112815330Y-102020602D01*
X113064072Y-102060000D01*
X113315928Y-102060000D01*
X113564669Y-102020602D01*
X113804184Y-101942780D01*
X114028575Y-101828446D01*
X114028581Y-101828442D01*
X114130697Y-101754250D01*
X114130698Y-101754250D01*
X113514025Y-101137578D01*
X113545258Y-101124641D01*
X113668097Y-101042563D01*
X113772563Y-100938097D01*
X113854641Y-100815258D01*
X113867577Y-100784025D01*
X114484250Y-101400698D01*
X114484250Y-101400697D01*
X114558442Y-101298581D01*
X114558446Y-101298575D01*
X114672780Y-101074184D01*
X114750602Y-100834669D01*
X114790000Y-100585928D01*
X114790000Y-100414071D01*
X129050000Y-100414071D01*
X129050000Y-100665928D01*
X129089397Y-100914669D01*
X129167219Y-101154184D01*
X129281557Y-101378583D01*
X129355748Y-101480697D01*
X129355748Y-101480698D01*
X129972421Y-100864024D01*
X129985359Y-100895258D01*
X130067437Y-101018097D01*
X130171903Y-101122563D01*
X130294742Y-101204641D01*
X130325974Y-101217577D01*
X129709300Y-101834250D01*
X129811416Y-101908442D01*
X130035815Y-102022780D01*
X130275330Y-102100602D01*
X130524072Y-102140000D01*
X130775928Y-102140000D01*
X131024669Y-102100602D01*
X131264184Y-102022780D01*
X131488575Y-101908446D01*
X131488581Y-101908442D01*
X131590697Y-101834250D01*
X131590698Y-101834250D01*
X130974025Y-101217578D01*
X131005258Y-101204641D01*
X131128097Y-101122563D01*
X131232563Y-101018097D01*
X131314641Y-100895258D01*
X131327577Y-100864025D01*
X131944250Y-101480698D01*
X131944250Y-101480697D01*
X132018442Y-101378581D01*
X132018446Y-101378575D01*
X132132780Y-101154184D01*
X132210602Y-100914669D01*
X132250000Y-100665928D01*
X132250000Y-100414071D01*
X146590000Y-100414071D01*
X146590000Y-100665928D01*
X146629397Y-100914669D01*
X146707219Y-101154184D01*
X146821557Y-101378583D01*
X146895748Y-101480697D01*
X146895748Y-101480698D01*
X147512421Y-100864024D01*
X147525359Y-100895258D01*
X147607437Y-101018097D01*
X147711903Y-101122563D01*
X147834742Y-101204641D01*
X147865974Y-101217577D01*
X147249300Y-101834250D01*
X147351416Y-101908442D01*
X147575815Y-102022780D01*
X147815330Y-102100602D01*
X148064072Y-102140000D01*
X148315928Y-102140000D01*
X148564669Y-102100602D01*
X148804184Y-102022780D01*
X149028575Y-101908446D01*
X149028581Y-101908442D01*
X149130697Y-101834250D01*
X149130698Y-101834250D01*
X148514025Y-101217578D01*
X148545258Y-101204641D01*
X148668097Y-101122563D01*
X148772563Y-101018097D01*
X148854641Y-100895258D01*
X148867577Y-100864025D01*
X149484250Y-101480698D01*
X149484250Y-101480697D01*
X149558442Y-101378581D01*
X149558446Y-101378575D01*
X149672780Y-101154184D01*
X149750602Y-100914669D01*
X149790000Y-100665928D01*
X149790000Y-100414071D01*
X164590000Y-100414071D01*
X164590000Y-100665928D01*
X164629397Y-100914669D01*
X164707219Y-101154184D01*
X164821557Y-101378583D01*
X164895748Y-101480697D01*
X164895748Y-101480698D01*
X165512421Y-100864024D01*
X165525359Y-100895258D01*
X165607437Y-101018097D01*
X165711903Y-101122563D01*
X165834742Y-101204641D01*
X165865974Y-101217577D01*
X165249300Y-101834250D01*
X165351416Y-101908442D01*
X165575815Y-102022780D01*
X165815330Y-102100602D01*
X166064072Y-102140000D01*
X166315928Y-102140000D01*
X166564669Y-102100602D01*
X166804184Y-102022780D01*
X167028575Y-101908446D01*
X167028581Y-101908442D01*
X167130697Y-101834250D01*
X167130698Y-101834250D01*
X166514025Y-101217578D01*
X166545258Y-101204641D01*
X166668097Y-101122563D01*
X166772563Y-101018097D01*
X166854641Y-100895258D01*
X166867578Y-100864025D01*
X167484250Y-101480698D01*
X167484250Y-101480697D01*
X167558442Y-101378581D01*
X167558446Y-101378575D01*
X167672780Y-101154184D01*
X167750602Y-100914669D01*
X167790000Y-100665928D01*
X167790000Y-100414071D01*
X167750602Y-100165330D01*
X167672780Y-99925815D01*
X167558442Y-99701416D01*
X167484250Y-99599301D01*
X167484250Y-99599300D01*
X166867577Y-100215973D01*
X166854641Y-100184742D01*
X166772563Y-100061903D01*
X166668097Y-99957437D01*
X166545258Y-99875359D01*
X166514024Y-99862421D01*
X167130698Y-99245748D01*
X167028583Y-99171557D01*
X166804184Y-99057219D01*
X166564669Y-98979397D01*
X166315928Y-98940000D01*
X166064072Y-98940000D01*
X165815330Y-98979397D01*
X165575815Y-99057219D01*
X165351413Y-99171559D01*
X165249301Y-99245747D01*
X165249300Y-99245748D01*
X165865974Y-99862421D01*
X165834742Y-99875359D01*
X165711903Y-99957437D01*
X165607437Y-100061903D01*
X165525359Y-100184742D01*
X165512421Y-100215974D01*
X164895748Y-99599300D01*
X164895747Y-99599301D01*
X164821559Y-99701413D01*
X164707219Y-99925815D01*
X164629397Y-100165330D01*
X164590000Y-100414071D01*
X149790000Y-100414071D01*
X149750602Y-100165330D01*
X149672780Y-99925815D01*
X149558442Y-99701416D01*
X149484250Y-99599301D01*
X149484250Y-99599300D01*
X148867577Y-100215973D01*
X148854641Y-100184742D01*
X148772563Y-100061903D01*
X148668097Y-99957437D01*
X148545258Y-99875359D01*
X148514024Y-99862421D01*
X149130698Y-99245748D01*
X149028583Y-99171557D01*
X148804184Y-99057219D01*
X148564669Y-98979397D01*
X148315928Y-98940000D01*
X148064072Y-98940000D01*
X147815330Y-98979397D01*
X147575815Y-99057219D01*
X147351413Y-99171559D01*
X147249301Y-99245747D01*
X147249300Y-99245748D01*
X147865974Y-99862421D01*
X147834742Y-99875359D01*
X147711903Y-99957437D01*
X147607437Y-100061903D01*
X147525359Y-100184742D01*
X147512421Y-100215974D01*
X146895748Y-99599300D01*
X146895747Y-99599301D01*
X146821559Y-99701413D01*
X146707219Y-99925815D01*
X146629397Y-100165330D01*
X146590000Y-100414071D01*
X132250000Y-100414071D01*
X132210602Y-100165330D01*
X132132780Y-99925815D01*
X132018442Y-99701416D01*
X131944250Y-99599301D01*
X131944250Y-99599300D01*
X131327577Y-100215973D01*
X131314641Y-100184742D01*
X131232563Y-100061903D01*
X131128097Y-99957437D01*
X131005258Y-99875359D01*
X130974024Y-99862421D01*
X131590698Y-99245748D01*
X131488583Y-99171557D01*
X131264184Y-99057219D01*
X131024669Y-98979397D01*
X130775928Y-98940000D01*
X130524072Y-98940000D01*
X130275330Y-98979397D01*
X130035815Y-99057219D01*
X129811413Y-99171559D01*
X129709301Y-99245747D01*
X129709300Y-99245748D01*
X130325974Y-99862421D01*
X130294742Y-99875359D01*
X130171903Y-99957437D01*
X130067437Y-100061903D01*
X129985359Y-100184742D01*
X129972421Y-100215974D01*
X129355748Y-99599300D01*
X129355747Y-99599301D01*
X129281559Y-99701413D01*
X129167219Y-99925815D01*
X129089397Y-100165330D01*
X129050000Y-100414071D01*
X114790000Y-100414071D01*
X114790000Y-100334071D01*
X114750602Y-100085330D01*
X114672780Y-99845815D01*
X114558442Y-99621416D01*
X114484250Y-99519301D01*
X114484250Y-99519300D01*
X113867577Y-100135973D01*
X113854641Y-100104742D01*
X113772563Y-99981903D01*
X113668097Y-99877437D01*
X113545258Y-99795359D01*
X113514024Y-99782421D01*
X114130698Y-99165748D01*
X114028583Y-99091557D01*
X113804184Y-98977219D01*
X113564669Y-98899397D01*
X113315928Y-98860000D01*
X113064072Y-98860000D01*
X112815330Y-98899397D01*
X112575815Y-98977219D01*
X112351413Y-99091559D01*
X112249301Y-99165747D01*
X112249300Y-99165748D01*
X112865974Y-99782421D01*
X112834742Y-99795359D01*
X112711903Y-99877437D01*
X112607437Y-99981903D01*
X112525359Y-100104742D01*
X112512421Y-100135974D01*
X111895748Y-99519300D01*
X111895747Y-99519301D01*
X111821559Y-99621413D01*
X111707219Y-99845815D01*
X111629397Y-100085330D01*
X111590000Y-100334071D01*
X106500500Y-100334071D01*
X106500500Y-91473577D01*
X114999500Y-91473577D01*
X114999500Y-91670422D01*
X115030290Y-91864826D01*
X115091117Y-92052029D01*
X115180476Y-92227405D01*
X115296172Y-92386646D01*
X115435354Y-92525828D01*
X115594595Y-92641524D01*
X115643386Y-92666384D01*
X115769970Y-92730882D01*
X115769972Y-92730882D01*
X115769975Y-92730884D01*
X115870317Y-92763487D01*
X115957173Y-92791709D01*
X116151578Y-92822500D01*
X116151583Y-92822500D01*
X117848422Y-92822500D01*
X118042826Y-92791709D01*
X118230025Y-92730884D01*
X118405405Y-92641524D01*
X118564646Y-92525828D01*
X118703828Y-92386646D01*
X118819524Y-92227405D01*
X118908884Y-92052025D01*
X118969709Y-91864826D01*
X119000500Y-91670422D01*
X119000500Y-91473577D01*
X118969709Y-91279173D01*
X118908882Y-91091970D01*
X118819523Y-90916594D01*
X118703828Y-90757354D01*
X118564646Y-90618172D01*
X118405405Y-90502476D01*
X118230029Y-90413117D01*
X118042826Y-90352290D01*
X117848422Y-90321500D01*
X117848417Y-90321500D01*
X116151583Y-90321500D01*
X116151578Y-90321500D01*
X115957173Y-90352290D01*
X115769970Y-90413117D01*
X115594594Y-90502476D01*
X115503741Y-90568485D01*
X115435354Y-90618172D01*
X115435352Y-90618174D01*
X115435351Y-90618174D01*
X115296174Y-90757351D01*
X115296174Y-90757352D01*
X115296172Y-90757354D01*
X115246485Y-90825741D01*
X115180476Y-90916594D01*
X115091117Y-91091970D01*
X115030290Y-91279173D01*
X114999500Y-91473577D01*
X106500500Y-91473577D01*
X106500500Y-86901577D01*
X114999500Y-86901577D01*
X114999500Y-87098422D01*
X115030290Y-87292826D01*
X115091117Y-87480029D01*
X115133903Y-87564000D01*
X115180476Y-87655405D01*
X115296172Y-87814646D01*
X115435354Y-87953828D01*
X115594595Y-88069524D01*
X115677455Y-88111743D01*
X115769970Y-88158882D01*
X115769972Y-88158882D01*
X115769975Y-88158884D01*
X115870317Y-88191487D01*
X115957173Y-88219709D01*
X116151578Y-88250500D01*
X116151583Y-88250500D01*
X117848422Y-88250500D01*
X118042826Y-88219709D01*
X118230025Y-88158884D01*
X118405405Y-88069524D01*
X118564646Y-87953828D01*
X118703828Y-87814646D01*
X118819524Y-87655405D01*
X118824394Y-87645846D01*
X118831601Y-87631704D01*
X118879576Y-87580908D01*
X118942085Y-87564000D01*
X121574251Y-87564000D01*
X121574253Y-87564000D01*
X121717696Y-87525565D01*
X121846304Y-87451313D01*
X121951313Y-87346304D01*
X121951313Y-87346302D01*
X121961517Y-87336099D01*
X121961521Y-87336094D01*
X126636094Y-82661521D01*
X126636099Y-82661517D01*
X126646302Y-82651313D01*
X126646304Y-82651313D01*
X126751313Y-82546304D01*
X126825565Y-82417696D01*
X126864000Y-82274252D01*
X126864000Y-79984977D01*
X126883685Y-79917938D01*
X126900314Y-79897301D01*
X129956094Y-76841520D01*
X129956099Y-76841517D01*
X129966302Y-76831313D01*
X129966304Y-76831313D01*
X130071313Y-76726304D01*
X130145565Y-76597696D01*
X130151883Y-76574114D01*
X130157356Y-76553694D01*
X130167693Y-76515111D01*
X130184000Y-76454253D01*
X130184000Y-76305747D01*
X130184000Y-75488199D01*
X130203685Y-75421160D01*
X130251706Y-75377714D01*
X130301610Y-75352287D01*
X130351144Y-75316298D01*
X130467213Y-75231971D01*
X130467215Y-75231968D01*
X130467219Y-75231966D01*
X130611966Y-75087219D01*
X130611968Y-75087215D01*
X130611971Y-75087213D01*
X130732284Y-74921614D01*
X130732286Y-74921611D01*
X130732287Y-74921610D01*
X130779516Y-74828917D01*
X130827489Y-74778123D01*
X130895310Y-74761328D01*
X130961445Y-74783865D01*
X131000485Y-74828919D01*
X131047715Y-74921614D01*
X131168028Y-75087213D01*
X131168034Y-75087219D01*
X131312781Y-75231966D01*
X131478390Y-75352287D01*
X131491793Y-75359116D01*
X131542589Y-75407088D01*
X131559500Y-75469601D01*
X131559500Y-76539902D01*
X131539815Y-76606941D01*
X131523181Y-76627583D01*
X127619482Y-80531281D01*
X127619480Y-80531283D01*
X127608575Y-80550171D01*
X127600592Y-80564000D01*
X127540423Y-80668215D01*
X127499499Y-80820943D01*
X127499499Y-80820945D01*
X127499499Y-80989046D01*
X127499500Y-80989059D01*
X127499500Y-89059902D01*
X127479815Y-89126941D01*
X127463181Y-89147583D01*
X120222923Y-96387840D01*
X120161600Y-96421325D01*
X120096924Y-96418090D01*
X119914787Y-96358910D01*
X119748903Y-96332636D01*
X119665962Y-96319500D01*
X119414038Y-96319500D01*
X119289626Y-96339205D01*
X119165214Y-96358910D01*
X118925616Y-96436760D01*
X118701151Y-96551132D01*
X118497350Y-96699201D01*
X118497345Y-96699205D01*
X118319205Y-96877345D01*
X118319201Y-96877350D01*
X118171132Y-97081151D01*
X118056760Y-97305616D01*
X117978910Y-97545214D01*
X117939500Y-97794038D01*
X117939500Y-98045961D01*
X117978910Y-98294785D01*
X118056760Y-98534383D01*
X118171132Y-98758848D01*
X118319201Y-98962649D01*
X118319205Y-98962654D01*
X118497345Y-99140794D01*
X118497350Y-99140798D01*
X118675117Y-99269952D01*
X118701155Y-99288870D01*
X118844184Y-99361747D01*
X118925616Y-99403239D01*
X118925618Y-99403239D01*
X118925621Y-99403241D01*
X119165215Y-99481090D01*
X119414038Y-99520500D01*
X119414039Y-99520500D01*
X119665961Y-99520500D01*
X119665962Y-99520500D01*
X119914785Y-99481090D01*
X120154379Y-99403241D01*
X120378845Y-99288870D01*
X120441261Y-99243521D01*
X120511227Y-99192690D01*
X120582649Y-99140798D01*
X120582647Y-99140798D01*
X120582656Y-99140793D01*
X120760793Y-98962656D01*
X120908870Y-98758845D01*
X121023241Y-98534379D01*
X121101090Y-98294785D01*
X121140500Y-98045962D01*
X121140500Y-97794038D01*
X121101090Y-97545215D01*
X121101089Y-97545211D01*
X121101089Y-97545210D01*
X121041909Y-97363073D01*
X121039914Y-97293232D01*
X121072157Y-97237076D01*
X126835657Y-91473577D01*
X131999500Y-91473577D01*
X131999500Y-91670422D01*
X132030290Y-91864826D01*
X132091117Y-92052029D01*
X132180476Y-92227405D01*
X132296172Y-92386646D01*
X132435354Y-92525828D01*
X132594595Y-92641524D01*
X132643386Y-92666384D01*
X132769970Y-92730882D01*
X132769972Y-92730882D01*
X132769975Y-92730884D01*
X132870317Y-92763487D01*
X132957173Y-92791709D01*
X133151578Y-92822500D01*
X133151583Y-92822500D01*
X134848422Y-92822500D01*
X135042826Y-92791709D01*
X135230025Y-92730884D01*
X135405405Y-92641524D01*
X135564646Y-92525828D01*
X135703828Y-92386646D01*
X135819524Y-92227405D01*
X135908884Y-92052025D01*
X135969709Y-91864826D01*
X136000500Y-91670422D01*
X136000500Y-91473577D01*
X135969709Y-91279173D01*
X135908882Y-91091970D01*
X135819523Y-90916594D01*
X135703828Y-90757354D01*
X135564646Y-90618172D01*
X135405405Y-90502476D01*
X135230029Y-90413117D01*
X135042826Y-90352290D01*
X134848422Y-90321500D01*
X134848417Y-90321500D01*
X133151583Y-90321500D01*
X133151578Y-90321500D01*
X132957173Y-90352290D01*
X132769970Y-90413117D01*
X132594594Y-90502476D01*
X132503741Y-90568485D01*
X132435354Y-90618172D01*
X132435352Y-90618174D01*
X132435351Y-90618174D01*
X132296174Y-90757351D01*
X132296174Y-90757352D01*
X132296172Y-90757354D01*
X132246485Y-90825741D01*
X132180476Y-90916594D01*
X132091117Y-91091970D01*
X132030290Y-91279173D01*
X131999500Y-91473577D01*
X126835657Y-91473577D01*
X128468713Y-89840521D01*
X128468716Y-89840520D01*
X128580520Y-89728716D01*
X128630639Y-89641904D01*
X128659577Y-89591785D01*
X128700500Y-89439057D01*
X128700500Y-89280943D01*
X128700500Y-81202155D01*
X132000000Y-81202155D01*
X132000000Y-81750000D01*
X132816988Y-81750000D01*
X132784075Y-81807007D01*
X132750000Y-81934174D01*
X132750000Y-82065826D01*
X132784075Y-82192993D01*
X132816988Y-82250000D01*
X132000000Y-82250000D01*
X132000000Y-82797844D01*
X132006401Y-82857372D01*
X132006403Y-82857379D01*
X132056645Y-82992086D01*
X132056649Y-82992093D01*
X132142809Y-83107187D01*
X132142812Y-83107190D01*
X132257906Y-83193350D01*
X132257913Y-83193354D01*
X132392620Y-83243596D01*
X132392627Y-83243598D01*
X132452155Y-83249999D01*
X132452172Y-83250000D01*
X133750000Y-83250000D01*
X133750000Y-82500000D01*
X134250000Y-82500000D01*
X134250000Y-83250000D01*
X135547828Y-83250000D01*
X135547844Y-83249999D01*
X135607372Y-83243598D01*
X135607379Y-83243596D01*
X135742086Y-83193354D01*
X135742093Y-83193350D01*
X135857187Y-83107190D01*
X135857190Y-83107187D01*
X135943350Y-82992093D01*
X135943354Y-82992086D01*
X135993596Y-82857379D01*
X135993598Y-82857372D01*
X135999999Y-82797844D01*
X136000000Y-82797827D01*
X136000000Y-82250000D01*
X135183012Y-82250000D01*
X135215925Y-82192993D01*
X135250000Y-82065826D01*
X135250000Y-81934174D01*
X135215925Y-81807007D01*
X135183012Y-81750000D01*
X136000000Y-81750000D01*
X136000000Y-81202172D01*
X135999999Y-81202155D01*
X135993598Y-81142627D01*
X135993596Y-81142620D01*
X135943354Y-81007913D01*
X135943350Y-81007906D01*
X135857190Y-80892812D01*
X135857187Y-80892809D01*
X135742093Y-80806649D01*
X135742086Y-80806645D01*
X135607379Y-80756403D01*
X135607372Y-80756401D01*
X135547844Y-80750000D01*
X134250000Y-80750000D01*
X134250000Y-81500000D01*
X133750000Y-81500000D01*
X133750000Y-80750000D01*
X132452155Y-80750000D01*
X132392627Y-80756401D01*
X132392620Y-80756403D01*
X132257913Y-80806645D01*
X132257906Y-80806649D01*
X132142812Y-80892809D01*
X132142809Y-80892812D01*
X132056649Y-81007906D01*
X132056645Y-81007913D01*
X132006403Y-81142620D01*
X132006401Y-81142627D01*
X132000000Y-81202155D01*
X128700500Y-81202155D01*
X128700500Y-81200096D01*
X128704006Y-81188154D01*
X128703007Y-81181204D01*
X128710345Y-81165133D01*
X128715668Y-81140669D01*
X128719422Y-81135653D01*
X128720185Y-81133057D01*
X128731286Y-81119280D01*
X128732032Y-81117648D01*
X128736267Y-81113098D01*
X128736814Y-81112420D01*
X132518506Y-77330727D01*
X132518511Y-77330724D01*
X132528714Y-77320520D01*
X132528716Y-77320520D01*
X132640520Y-77208716D01*
X132693070Y-77117696D01*
X132719577Y-77071785D01*
X132760500Y-76919057D01*
X132760500Y-76760943D01*
X132760500Y-75469601D01*
X132780185Y-75402562D01*
X132828206Y-75359116D01*
X132841610Y-75352287D01*
X133007219Y-75231966D01*
X133151966Y-75087219D01*
X133151968Y-75087215D01*
X133151971Y-75087213D01*
X133272284Y-74921614D01*
X133272286Y-74921611D01*
X133272287Y-74921610D01*
X133319516Y-74828917D01*
X133367489Y-74778123D01*
X133435310Y-74761328D01*
X133501445Y-74783865D01*
X133540485Y-74828919D01*
X133587715Y-74921614D01*
X133708028Y-75087213D01*
X133852786Y-75231971D01*
X134007749Y-75344556D01*
X134018390Y-75352287D01*
X134099499Y-75393614D01*
X134200776Y-75445218D01*
X134200778Y-75445218D01*
X134200781Y-75445220D01*
X134275818Y-75469601D01*
X134395465Y-75508477D01*
X134477171Y-75521418D01*
X134597648Y-75540500D01*
X134597649Y-75540500D01*
X134802351Y-75540500D01*
X134802352Y-75540500D01*
X135004534Y-75508477D01*
X135057805Y-75491167D01*
X135127643Y-75489173D01*
X135183802Y-75521418D01*
X139399681Y-79737297D01*
X139433166Y-79798620D01*
X139436000Y-79824978D01*
X139436000Y-84915022D01*
X139416315Y-84982061D01*
X139399681Y-85002703D01*
X138002703Y-86399681D01*
X137941380Y-86433166D01*
X137915022Y-86436000D01*
X135942085Y-86436000D01*
X135875046Y-86416315D01*
X135831601Y-86368296D01*
X135819525Y-86344597D01*
X135819523Y-86344594D01*
X135703828Y-86185354D01*
X135564646Y-86046172D01*
X135405405Y-85930476D01*
X135375075Y-85915022D01*
X135230029Y-85841117D01*
X135042826Y-85780290D01*
X134848422Y-85749500D01*
X134848417Y-85749500D01*
X133151583Y-85749500D01*
X133151578Y-85749500D01*
X132957173Y-85780290D01*
X132769970Y-85841117D01*
X132594594Y-85930476D01*
X132545172Y-85966384D01*
X132435354Y-86046172D01*
X132435352Y-86046174D01*
X132435351Y-86046174D01*
X132296174Y-86185351D01*
X132296174Y-86185352D01*
X132296172Y-86185354D01*
X132246485Y-86253741D01*
X132180476Y-86344594D01*
X132091117Y-86519970D01*
X132030290Y-86707173D01*
X131999500Y-86901577D01*
X131999500Y-87098422D01*
X132030290Y-87292826D01*
X132091117Y-87480029D01*
X132133903Y-87564000D01*
X132180476Y-87655405D01*
X132296172Y-87814646D01*
X132435354Y-87953828D01*
X132594595Y-88069524D01*
X132677455Y-88111743D01*
X132769970Y-88158882D01*
X132769972Y-88158882D01*
X132769975Y-88158884D01*
X132870317Y-88191487D01*
X132957173Y-88219709D01*
X133151578Y-88250500D01*
X133151583Y-88250500D01*
X134848422Y-88250500D01*
X135042826Y-88219709D01*
X135230025Y-88158884D01*
X135405405Y-88069524D01*
X135564646Y-87953828D01*
X135703828Y-87814646D01*
X135819524Y-87655405D01*
X135824394Y-87645846D01*
X135831601Y-87631704D01*
X135879576Y-87580908D01*
X135942085Y-87564000D01*
X138274251Y-87564000D01*
X138274253Y-87564000D01*
X138417696Y-87525565D01*
X138546304Y-87451313D01*
X138651313Y-87346304D01*
X138651313Y-87346302D01*
X138661517Y-87336099D01*
X138661521Y-87336094D01*
X140336094Y-85661521D01*
X140336099Y-85661517D01*
X140346302Y-85651313D01*
X140346304Y-85651313D01*
X140451313Y-85546304D01*
X140453592Y-85542356D01*
X140498377Y-85464787D01*
X140498380Y-85464778D01*
X140498386Y-85464770D01*
X140525565Y-85417697D01*
X140564000Y-85274253D01*
X140564000Y-85125748D01*
X140564000Y-79525748D01*
X140564000Y-79525747D01*
X140564000Y-79465748D01*
X140525565Y-79322304D01*
X140451313Y-79193696D01*
X140346304Y-79088687D01*
X140346303Y-79088686D01*
X140341973Y-79084356D01*
X140341962Y-79084346D01*
X137004073Y-75746457D01*
X136970588Y-75685134D01*
X136975572Y-75615442D01*
X137017444Y-75559509D01*
X137082908Y-75535092D01*
X137111148Y-75536302D01*
X137137648Y-75540500D01*
X137137650Y-75540500D01*
X137342351Y-75540500D01*
X137342352Y-75540500D01*
X137544534Y-75508477D01*
X137597805Y-75491167D01*
X137667643Y-75489173D01*
X137723802Y-75521418D01*
X141499681Y-79297297D01*
X141533166Y-79358620D01*
X141536000Y-79384978D01*
X141536000Y-92615021D01*
X141516315Y-92682060D01*
X141499681Y-92702702D01*
X137721883Y-96480499D01*
X137660560Y-96513984D01*
X137595884Y-96510749D01*
X137374787Y-96438910D01*
X137208903Y-96412636D01*
X137125962Y-96399500D01*
X136874038Y-96399500D01*
X136756666Y-96418090D01*
X136625214Y-96438910D01*
X136385616Y-96516760D01*
X136161151Y-96631132D01*
X135957350Y-96779201D01*
X135957345Y-96779205D01*
X135779205Y-96957345D01*
X135779201Y-96957350D01*
X135631132Y-97161151D01*
X135516760Y-97385616D01*
X135438910Y-97625214D01*
X135399500Y-97874038D01*
X135399500Y-98125961D01*
X135438910Y-98374785D01*
X135516760Y-98614383D01*
X135631132Y-98838848D01*
X135779201Y-99042649D01*
X135779205Y-99042654D01*
X135957345Y-99220794D01*
X135957350Y-99220798D01*
X136051040Y-99288867D01*
X136161155Y-99368870D01*
X136304184Y-99441747D01*
X136385616Y-99483239D01*
X136385618Y-99483239D01*
X136385621Y-99483241D01*
X136625215Y-99561090D01*
X136874038Y-99600500D01*
X136874039Y-99600500D01*
X137125961Y-99600500D01*
X137125962Y-99600500D01*
X137374785Y-99561090D01*
X137614379Y-99483241D01*
X137838845Y-99368870D01*
X138042656Y-99220793D01*
X138220793Y-99042656D01*
X138368870Y-98838845D01*
X138483241Y-98614379D01*
X138561090Y-98374785D01*
X138600500Y-98125962D01*
X138600500Y-97874038D01*
X138561090Y-97625215D01*
X138561089Y-97625213D01*
X138535095Y-97545210D01*
X138489248Y-97404111D01*
X138487254Y-97334274D01*
X138519497Y-97278117D01*
X142436094Y-93361521D01*
X142436099Y-93361517D01*
X142446302Y-93351313D01*
X142446304Y-93351313D01*
X142551313Y-93246304D01*
X142625565Y-93117696D01*
X142664000Y-92974252D01*
X142664000Y-91473577D01*
X149999500Y-91473577D01*
X149999500Y-91670422D01*
X150030290Y-91864826D01*
X150091117Y-92052029D01*
X150180476Y-92227405D01*
X150296172Y-92386646D01*
X150435354Y-92525828D01*
X150594595Y-92641524D01*
X150643386Y-92666384D01*
X150769970Y-92730882D01*
X150769972Y-92730882D01*
X150769975Y-92730884D01*
X150870317Y-92763487D01*
X150957173Y-92791709D01*
X151151578Y-92822500D01*
X151151583Y-92822500D01*
X152848422Y-92822500D01*
X153042826Y-92791709D01*
X153230025Y-92730884D01*
X153405405Y-92641524D01*
X153564646Y-92525828D01*
X153703828Y-92386646D01*
X153819524Y-92227405D01*
X153908884Y-92052025D01*
X153969709Y-91864826D01*
X154000500Y-91670422D01*
X154000500Y-91473577D01*
X153969709Y-91279173D01*
X153908882Y-91091970D01*
X153819523Y-90916594D01*
X153703828Y-90757354D01*
X153564646Y-90618172D01*
X153405405Y-90502476D01*
X153230029Y-90413117D01*
X153042826Y-90352290D01*
X152848422Y-90321500D01*
X152848417Y-90321500D01*
X151151583Y-90321500D01*
X151151578Y-90321500D01*
X150957173Y-90352290D01*
X150769970Y-90413117D01*
X150594594Y-90502476D01*
X150503741Y-90568485D01*
X150435354Y-90618172D01*
X150435352Y-90618174D01*
X150435351Y-90618174D01*
X150296174Y-90757351D01*
X150296174Y-90757352D01*
X150296172Y-90757354D01*
X150246485Y-90825741D01*
X150180476Y-90916594D01*
X150091117Y-91091970D01*
X150030290Y-91279173D01*
X149999500Y-91473577D01*
X142664000Y-91473577D01*
X142664000Y-79025748D01*
X142625565Y-78882304D01*
X142551313Y-78753696D01*
X142446304Y-78648687D01*
X142446303Y-78648686D01*
X142441973Y-78644356D01*
X142441962Y-78644346D01*
X139544073Y-75746457D01*
X139510588Y-75685134D01*
X139515572Y-75615442D01*
X139557444Y-75559509D01*
X139622908Y-75535092D01*
X139651148Y-75536302D01*
X139677648Y-75540500D01*
X139677650Y-75540500D01*
X139882351Y-75540500D01*
X139882352Y-75540500D01*
X140084534Y-75508477D01*
X140137805Y-75491167D01*
X140207643Y-75489173D01*
X140263802Y-75521418D01*
X143599681Y-78857297D01*
X143633166Y-78918620D01*
X143636000Y-78944978D01*
X143636000Y-84625747D01*
X143636000Y-84774253D01*
X143674435Y-84917696D01*
X143748687Y-85046304D01*
X143748689Y-85046306D01*
X143860761Y-85158378D01*
X143860767Y-85158383D01*
X146044346Y-87341962D01*
X146044356Y-87341973D01*
X146048686Y-87346303D01*
X146048687Y-87346304D01*
X146153696Y-87451313D01*
X146282304Y-87525565D01*
X146425747Y-87564000D01*
X146425748Y-87564000D01*
X150057915Y-87564000D01*
X150124954Y-87583685D01*
X150168399Y-87631704D01*
X150180474Y-87655402D01*
X150180476Y-87655405D01*
X150296172Y-87814646D01*
X150435354Y-87953828D01*
X150594595Y-88069524D01*
X150677455Y-88111743D01*
X150769970Y-88158882D01*
X150769972Y-88158882D01*
X150769975Y-88158884D01*
X150870317Y-88191487D01*
X150957173Y-88219709D01*
X151151578Y-88250500D01*
X151151583Y-88250500D01*
X152848422Y-88250500D01*
X153042826Y-88219709D01*
X153230025Y-88158884D01*
X153405405Y-88069524D01*
X153564646Y-87953828D01*
X153703828Y-87814646D01*
X153819524Y-87655405D01*
X153908884Y-87480025D01*
X153969709Y-87292826D01*
X154000500Y-87098422D01*
X154000500Y-86901577D01*
X153969709Y-86707173D01*
X153941487Y-86620317D01*
X153908884Y-86519975D01*
X153908882Y-86519972D01*
X153908882Y-86519970D01*
X153856067Y-86416315D01*
X153819524Y-86344595D01*
X153703828Y-86185354D01*
X153564646Y-86046172D01*
X153405405Y-85930476D01*
X153375075Y-85915022D01*
X153230029Y-85841117D01*
X153042826Y-85780290D01*
X152848422Y-85749500D01*
X152848417Y-85749500D01*
X151151583Y-85749500D01*
X151151578Y-85749500D01*
X150957173Y-85780290D01*
X150769970Y-85841117D01*
X150594594Y-85930476D01*
X150545172Y-85966384D01*
X150435354Y-86046172D01*
X150435352Y-86046174D01*
X150435351Y-86046174D01*
X150296174Y-86185351D01*
X150296174Y-86185352D01*
X150296172Y-86185354D01*
X150238324Y-86264974D01*
X150180474Y-86344597D01*
X150168399Y-86368296D01*
X150120424Y-86419092D01*
X150057915Y-86436000D01*
X146784978Y-86436000D01*
X146717939Y-86416315D01*
X146697297Y-86399681D01*
X144800319Y-84502703D01*
X144766834Y-84441380D01*
X144764000Y-84415022D01*
X144764000Y-81202155D01*
X150000000Y-81202155D01*
X150000000Y-81750000D01*
X150816988Y-81750000D01*
X150784075Y-81807007D01*
X150750000Y-81934174D01*
X150750000Y-82065826D01*
X150784075Y-82192993D01*
X150816988Y-82250000D01*
X150000000Y-82250000D01*
X150000000Y-82797844D01*
X150006401Y-82857372D01*
X150006403Y-82857379D01*
X150056645Y-82992086D01*
X150056649Y-82992093D01*
X150142809Y-83107187D01*
X150142812Y-83107190D01*
X150257906Y-83193350D01*
X150257913Y-83193354D01*
X150392620Y-83243596D01*
X150392627Y-83243598D01*
X150452155Y-83249999D01*
X150452172Y-83250000D01*
X151750000Y-83250000D01*
X151750000Y-82500000D01*
X152250000Y-82500000D01*
X152250000Y-83250000D01*
X153547828Y-83250000D01*
X153547844Y-83249999D01*
X153607372Y-83243598D01*
X153607379Y-83243596D01*
X153742086Y-83193354D01*
X153742093Y-83193350D01*
X153857187Y-83107190D01*
X153857190Y-83107187D01*
X153943350Y-82992093D01*
X153943354Y-82992086D01*
X153993596Y-82857379D01*
X153993598Y-82857372D01*
X153999999Y-82797844D01*
X154000000Y-82797827D01*
X154000000Y-82250000D01*
X153183012Y-82250000D01*
X153215925Y-82192993D01*
X153250000Y-82065826D01*
X153250000Y-81934174D01*
X153215925Y-81807007D01*
X153183012Y-81750000D01*
X154000000Y-81750000D01*
X154000000Y-81202172D01*
X153999999Y-81202155D01*
X153993598Y-81142627D01*
X153993596Y-81142620D01*
X153943354Y-81007913D01*
X153943350Y-81007906D01*
X153857190Y-80892812D01*
X153857187Y-80892809D01*
X153742093Y-80806649D01*
X153742086Y-80806645D01*
X153607379Y-80756403D01*
X153607372Y-80756401D01*
X153547844Y-80750000D01*
X152250000Y-80750000D01*
X152250000Y-81500000D01*
X151750000Y-81500000D01*
X151750000Y-80750000D01*
X150452155Y-80750000D01*
X150392627Y-80756401D01*
X150392620Y-80756403D01*
X150257913Y-80806645D01*
X150257906Y-80806649D01*
X150142812Y-80892809D01*
X150142809Y-80892812D01*
X150056649Y-81007906D01*
X150056645Y-81007913D01*
X150006403Y-81142620D01*
X150006401Y-81142627D01*
X150000000Y-81202155D01*
X144764000Y-81202155D01*
X144764000Y-78585750D01*
X144764000Y-78585748D01*
X144725565Y-78442304D01*
X144651313Y-78313696D01*
X144546304Y-78208687D01*
X144546303Y-78208686D01*
X144541973Y-78204356D01*
X144541962Y-78204346D01*
X142084073Y-75746457D01*
X142050588Y-75685134D01*
X142055572Y-75615442D01*
X142097444Y-75559509D01*
X142162908Y-75535092D01*
X142191148Y-75536302D01*
X142217648Y-75540500D01*
X142217650Y-75540500D01*
X142422351Y-75540500D01*
X142422352Y-75540500D01*
X142624534Y-75508477D01*
X142677805Y-75491167D01*
X142747643Y-75489173D01*
X142803801Y-75521417D01*
X147333696Y-80051313D01*
X147333697Y-80051314D01*
X147333699Y-80051315D01*
X147462300Y-80125563D01*
X147462301Y-80125563D01*
X147462304Y-80125565D01*
X147605748Y-80164001D01*
X147605751Y-80164001D01*
X147761849Y-80164001D01*
X147761865Y-80164000D01*
X155815022Y-80164000D01*
X155882061Y-80183685D01*
X155902703Y-80200319D01*
X156699681Y-80997297D01*
X156733166Y-81058620D01*
X156736000Y-81084978D01*
X156736000Y-94955021D01*
X156716315Y-95022060D01*
X156699681Y-95042702D01*
X155261883Y-96480499D01*
X155200560Y-96513984D01*
X155135884Y-96510749D01*
X154914787Y-96438910D01*
X154748903Y-96412636D01*
X154665962Y-96399500D01*
X154414038Y-96399500D01*
X154296666Y-96418090D01*
X154165214Y-96438910D01*
X153925616Y-96516760D01*
X153701151Y-96631132D01*
X153497350Y-96779201D01*
X153497345Y-96779205D01*
X153319205Y-96957345D01*
X153319201Y-96957350D01*
X153171132Y-97161151D01*
X153056760Y-97385616D01*
X152978910Y-97625214D01*
X152939500Y-97874038D01*
X152939500Y-98125961D01*
X152978910Y-98374785D01*
X153056760Y-98614383D01*
X153171132Y-98838848D01*
X153319201Y-99042649D01*
X153319205Y-99042654D01*
X153497345Y-99220794D01*
X153497350Y-99220798D01*
X153591040Y-99288867D01*
X153701155Y-99368870D01*
X153844184Y-99441747D01*
X153925616Y-99483239D01*
X153925618Y-99483239D01*
X153925621Y-99483241D01*
X154165215Y-99561090D01*
X154414038Y-99600500D01*
X154414039Y-99600500D01*
X154665961Y-99600500D01*
X154665962Y-99600500D01*
X154914785Y-99561090D01*
X155154379Y-99483241D01*
X155378845Y-99368870D01*
X155582656Y-99220793D01*
X155760793Y-99042656D01*
X155908870Y-98838845D01*
X156023241Y-98614379D01*
X156101090Y-98374785D01*
X156140500Y-98125962D01*
X156140500Y-97874038D01*
X156101090Y-97625215D01*
X156101089Y-97625213D01*
X156075095Y-97545210D01*
X156029248Y-97404111D01*
X156027254Y-97334274D01*
X156059497Y-97278117D01*
X157636094Y-95701521D01*
X157636099Y-95701517D01*
X157646302Y-95691313D01*
X157646304Y-95691313D01*
X157751313Y-95586304D01*
X157753592Y-95582356D01*
X157798377Y-95504787D01*
X157798380Y-95504778D01*
X157798386Y-95504770D01*
X157825565Y-95457697D01*
X157864000Y-95314253D01*
X157864000Y-95165748D01*
X157864000Y-80725748D01*
X157848584Y-80668215D01*
X157825565Y-80582304D01*
X157814997Y-80564000D01*
X157751313Y-80453696D01*
X157646304Y-80348687D01*
X157646303Y-80348686D01*
X157641973Y-80344356D01*
X157641962Y-80344346D01*
X156558383Y-79260767D01*
X156551314Y-79253698D01*
X156551313Y-79253696D01*
X156473295Y-79175678D01*
X156445437Y-79124657D01*
X156439813Y-79114358D01*
X156444797Y-79044666D01*
X156452925Y-79033808D01*
X156486669Y-78988732D01*
X156534349Y-78970948D01*
X156552133Y-78964316D01*
X156560979Y-78964000D01*
X157415022Y-78964000D01*
X157482061Y-78983685D01*
X157502703Y-79000319D01*
X162799681Y-84297297D01*
X162833166Y-84358620D01*
X162836000Y-84384978D01*
X162836000Y-93374252D01*
X162874435Y-93517696D01*
X162948687Y-93646304D01*
X162948689Y-93646306D01*
X163060761Y-93758378D01*
X163060767Y-93758383D01*
X164444346Y-95141962D01*
X164444356Y-95141973D01*
X164448686Y-95146303D01*
X164448687Y-95146304D01*
X164553696Y-95251313D01*
X164635229Y-95298386D01*
X164682303Y-95325565D01*
X164825747Y-95364000D01*
X164825748Y-95364000D01*
X169055022Y-95364000D01*
X169122061Y-95383685D01*
X169142703Y-95400319D01*
X171020499Y-97278115D01*
X171053984Y-97339438D01*
X171050749Y-97404114D01*
X170978910Y-97625210D01*
X170978910Y-97625213D01*
X170939500Y-97874038D01*
X170939500Y-98125961D01*
X170978910Y-98374785D01*
X171056760Y-98614383D01*
X171171132Y-98838848D01*
X171319201Y-99042649D01*
X171319205Y-99042654D01*
X171497345Y-99220794D01*
X171497350Y-99220798D01*
X171591040Y-99288867D01*
X171701155Y-99368870D01*
X171844184Y-99441747D01*
X171925616Y-99483239D01*
X171925618Y-99483239D01*
X171925621Y-99483241D01*
X172165215Y-99561090D01*
X172414038Y-99600500D01*
X172414039Y-99600500D01*
X172665961Y-99600500D01*
X172665962Y-99600500D01*
X172914785Y-99561090D01*
X173154379Y-99483241D01*
X173378845Y-99368870D01*
X173582656Y-99220793D01*
X173760793Y-99042656D01*
X173908870Y-98838845D01*
X174023241Y-98614379D01*
X174101090Y-98374785D01*
X174140500Y-98125962D01*
X174140500Y-97874038D01*
X174101090Y-97625215D01*
X174023241Y-97385621D01*
X174023239Y-97385618D01*
X174023239Y-97385616D01*
X173981747Y-97304184D01*
X173908870Y-97161155D01*
X173850744Y-97081151D01*
X173760798Y-96957350D01*
X173760794Y-96957345D01*
X173582654Y-96779205D01*
X173582649Y-96779201D01*
X173378848Y-96631132D01*
X173378847Y-96631131D01*
X173378845Y-96631130D01*
X173308747Y-96595413D01*
X173154383Y-96516760D01*
X172914785Y-96438910D01*
X172665962Y-96399500D01*
X172414038Y-96399500D01*
X172331097Y-96412636D01*
X172165213Y-96438910D01*
X172165210Y-96438910D01*
X171944114Y-96510749D01*
X171874273Y-96512744D01*
X171818115Y-96480499D01*
X169798383Y-94460767D01*
X169798381Y-94460764D01*
X169686306Y-94348689D01*
X169686304Y-94348687D01*
X169557696Y-94274435D01*
X169414253Y-94236000D01*
X169414252Y-94236000D01*
X165184978Y-94236000D01*
X165117939Y-94216315D01*
X165097297Y-94199681D01*
X164000319Y-93102703D01*
X163966834Y-93041380D01*
X163964000Y-93015022D01*
X163964000Y-91473577D01*
X166999500Y-91473577D01*
X166999500Y-91670422D01*
X167030290Y-91864826D01*
X167091117Y-92052029D01*
X167180476Y-92227405D01*
X167296172Y-92386646D01*
X167435354Y-92525828D01*
X167594595Y-92641524D01*
X167643386Y-92666384D01*
X167769970Y-92730882D01*
X167769972Y-92730882D01*
X167769975Y-92730884D01*
X167870317Y-92763487D01*
X167957173Y-92791709D01*
X168151578Y-92822500D01*
X168151583Y-92822500D01*
X169848422Y-92822500D01*
X170042826Y-92791709D01*
X170230025Y-92730884D01*
X170405405Y-92641524D01*
X170564646Y-92525828D01*
X170703828Y-92386646D01*
X170819524Y-92227405D01*
X170908884Y-92052025D01*
X170969709Y-91864826D01*
X171000500Y-91670422D01*
X171000500Y-91473577D01*
X170969709Y-91279173D01*
X170908882Y-91091970D01*
X170819523Y-90916594D01*
X170703828Y-90757354D01*
X170564646Y-90618172D01*
X170405405Y-90502476D01*
X170230029Y-90413117D01*
X170042826Y-90352290D01*
X169848422Y-90321500D01*
X169848417Y-90321500D01*
X168151583Y-90321500D01*
X168151578Y-90321500D01*
X167957173Y-90352290D01*
X167769970Y-90413117D01*
X167594594Y-90502476D01*
X167503741Y-90568485D01*
X167435354Y-90618172D01*
X167435352Y-90618174D01*
X167435351Y-90618174D01*
X167296174Y-90757351D01*
X167296174Y-90757352D01*
X167296172Y-90757354D01*
X167246485Y-90825741D01*
X167180476Y-90916594D01*
X167091117Y-91091970D01*
X167030290Y-91279173D01*
X166999500Y-91473577D01*
X163964000Y-91473577D01*
X163964000Y-84025750D01*
X163964000Y-84025748D01*
X163925565Y-83882304D01*
X163851313Y-83753696D01*
X163746304Y-83648687D01*
X163746303Y-83648686D01*
X163741973Y-83644356D01*
X163741962Y-83644346D01*
X161299771Y-81202155D01*
X167000000Y-81202155D01*
X167000000Y-81750000D01*
X167816988Y-81750000D01*
X167784075Y-81807007D01*
X167750000Y-81934174D01*
X167750000Y-82065826D01*
X167784075Y-82192993D01*
X167816988Y-82250000D01*
X167000000Y-82250000D01*
X167000000Y-82797844D01*
X167006401Y-82857372D01*
X167006403Y-82857379D01*
X167056645Y-82992086D01*
X167056649Y-82992093D01*
X167142809Y-83107187D01*
X167142812Y-83107190D01*
X167257906Y-83193350D01*
X167257913Y-83193354D01*
X167392620Y-83243596D01*
X167392627Y-83243598D01*
X167452155Y-83249999D01*
X167452172Y-83250000D01*
X168750000Y-83250000D01*
X168750000Y-82500000D01*
X169250000Y-82500000D01*
X169250000Y-83250000D01*
X170547828Y-83250000D01*
X170547844Y-83249999D01*
X170607372Y-83243598D01*
X170607379Y-83243596D01*
X170742086Y-83193354D01*
X170742093Y-83193350D01*
X170857187Y-83107190D01*
X170857190Y-83107187D01*
X170943350Y-82992093D01*
X170943354Y-82992086D01*
X170993596Y-82857379D01*
X170993598Y-82857372D01*
X170999999Y-82797844D01*
X171000000Y-82797827D01*
X171000000Y-82250000D01*
X170183012Y-82250000D01*
X170215925Y-82192993D01*
X170250000Y-82065826D01*
X170250000Y-81934174D01*
X170215925Y-81807007D01*
X170183012Y-81750000D01*
X171000000Y-81750000D01*
X171000000Y-81202172D01*
X170999999Y-81202155D01*
X170993598Y-81142627D01*
X170993596Y-81142620D01*
X170943354Y-81007913D01*
X170943350Y-81007906D01*
X170857190Y-80892812D01*
X170857187Y-80892809D01*
X170742093Y-80806649D01*
X170742086Y-80806645D01*
X170607379Y-80756403D01*
X170607372Y-80756401D01*
X170547844Y-80750000D01*
X169250000Y-80750000D01*
X169250000Y-81500000D01*
X168750000Y-81500000D01*
X168750000Y-80750000D01*
X167452155Y-80750000D01*
X167392627Y-80756401D01*
X167392620Y-80756403D01*
X167257913Y-80806645D01*
X167257906Y-80806649D01*
X167142812Y-80892809D01*
X167142809Y-80892812D01*
X167056649Y-81007906D01*
X167056645Y-81007913D01*
X167006403Y-81142620D01*
X167006401Y-81142627D01*
X167000000Y-81202155D01*
X161299771Y-81202155D01*
X158158383Y-78060767D01*
X158158381Y-78060764D01*
X158046306Y-77948689D01*
X158046304Y-77948687D01*
X157917696Y-77874435D01*
X157774253Y-77836000D01*
X157774252Y-77836000D01*
X149304978Y-77836000D01*
X149237939Y-77816315D01*
X149217297Y-77799681D01*
X147164073Y-75746457D01*
X147130588Y-75685134D01*
X147135572Y-75615442D01*
X147177444Y-75559509D01*
X147242908Y-75535092D01*
X147271148Y-75536302D01*
X147297648Y-75540500D01*
X147297650Y-75540500D01*
X147502351Y-75540500D01*
X147502352Y-75540500D01*
X147704534Y-75508477D01*
X147757805Y-75491167D01*
X147827643Y-75489173D01*
X147883802Y-75521418D01*
X149604346Y-77241962D01*
X149604356Y-77241973D01*
X149713697Y-77351314D01*
X149741561Y-77367401D01*
X149797292Y-77399577D01*
X149842304Y-77425565D01*
X149985747Y-77464000D01*
X149985748Y-77464000D01*
X171015022Y-77464000D01*
X171082061Y-77483685D01*
X171102703Y-77500319D01*
X173799681Y-80197297D01*
X173833166Y-80258620D01*
X173836000Y-80284978D01*
X173836000Y-85915022D01*
X173816315Y-85982061D01*
X173799681Y-86002703D01*
X173402703Y-86399681D01*
X173341380Y-86433166D01*
X173315022Y-86436000D01*
X170942085Y-86436000D01*
X170875046Y-86416315D01*
X170831601Y-86368296D01*
X170819525Y-86344597D01*
X170819523Y-86344594D01*
X170703828Y-86185354D01*
X170564646Y-86046172D01*
X170405405Y-85930476D01*
X170375075Y-85915022D01*
X170230029Y-85841117D01*
X170042826Y-85780290D01*
X169848422Y-85749500D01*
X169848417Y-85749500D01*
X168151583Y-85749500D01*
X168151578Y-85749500D01*
X167957173Y-85780290D01*
X167769970Y-85841117D01*
X167594594Y-85930476D01*
X167545172Y-85966384D01*
X167435354Y-86046172D01*
X167435352Y-86046174D01*
X167435351Y-86046174D01*
X167296174Y-86185351D01*
X167296174Y-86185352D01*
X167296172Y-86185354D01*
X167246485Y-86253741D01*
X167180476Y-86344594D01*
X167091117Y-86519970D01*
X167030290Y-86707173D01*
X166999500Y-86901577D01*
X166999500Y-87098422D01*
X167030290Y-87292826D01*
X167091117Y-87480029D01*
X167133903Y-87564000D01*
X167180476Y-87655405D01*
X167296172Y-87814646D01*
X167435354Y-87953828D01*
X167594595Y-88069524D01*
X167677455Y-88111743D01*
X167769970Y-88158882D01*
X167769972Y-88158882D01*
X167769975Y-88158884D01*
X167870317Y-88191487D01*
X167957173Y-88219709D01*
X168151578Y-88250500D01*
X168151583Y-88250500D01*
X169848422Y-88250500D01*
X170042826Y-88219709D01*
X170230025Y-88158884D01*
X170405405Y-88069524D01*
X170564646Y-87953828D01*
X170703828Y-87814646D01*
X170819524Y-87655405D01*
X170824394Y-87645846D01*
X170831601Y-87631704D01*
X170879576Y-87580908D01*
X170942085Y-87564000D01*
X173674251Y-87564000D01*
X173674253Y-87564000D01*
X173817696Y-87525565D01*
X173946304Y-87451313D01*
X174051313Y-87346304D01*
X174051313Y-87346302D01*
X174061517Y-87336099D01*
X174061521Y-87336094D01*
X174736094Y-86661521D01*
X174736099Y-86661517D01*
X174746302Y-86651313D01*
X174746304Y-86651313D01*
X174851313Y-86546304D01*
X174925565Y-86417696D01*
X174964000Y-86274252D01*
X174964000Y-79925748D01*
X174925565Y-79782304D01*
X174851313Y-79653696D01*
X174746304Y-79548687D01*
X174746303Y-79548686D01*
X174741973Y-79544356D01*
X174741962Y-79544346D01*
X171758383Y-76560767D01*
X171758381Y-76560764D01*
X171646306Y-76448689D01*
X171646304Y-76448687D01*
X171517698Y-76374436D01*
X171517697Y-76374435D01*
X171489791Y-76366958D01*
X171461886Y-76359481D01*
X171461885Y-76359480D01*
X171397733Y-76342291D01*
X171374253Y-76336000D01*
X171374252Y-76336000D01*
X150344978Y-76336000D01*
X150277939Y-76316315D01*
X150257297Y-76299681D01*
X148681418Y-74723802D01*
X148647933Y-74662479D01*
X148651167Y-74597805D01*
X148668477Y-74544534D01*
X148700500Y-74342352D01*
X148700500Y-74137648D01*
X148692257Y-74085606D01*
X148668477Y-73935465D01*
X148605218Y-73740776D01*
X148512419Y-73558650D01*
X148512287Y-73558390D01*
X148504556Y-73547749D01*
X148391971Y-73392786D01*
X148247213Y-73248028D01*
X148081613Y-73127715D01*
X148081612Y-73127714D01*
X148081610Y-73127713D01*
X148024653Y-73098691D01*
X147899223Y-73034781D01*
X147704534Y-72971522D01*
X147529995Y-72943878D01*
X147502352Y-72939500D01*
X147297648Y-72939500D01*
X147273329Y-72943351D01*
X147095465Y-72971522D01*
X146900776Y-73034781D01*
X146718386Y-73127715D01*
X146552786Y-73248028D01*
X146408028Y-73392786D01*
X146287715Y-73558386D01*
X146240485Y-73651080D01*
X146192510Y-73701876D01*
X146124689Y-73718671D01*
X146058554Y-73696134D01*
X146019515Y-73651080D01*
X145972419Y-73558650D01*
X145972287Y-73558390D01*
X145964556Y-73547749D01*
X145851971Y-73392786D01*
X145707213Y-73248028D01*
X145541613Y-73127715D01*
X145541612Y-73127714D01*
X145541610Y-73127713D01*
X145484653Y-73098691D01*
X145359223Y-73034781D01*
X145164534Y-72971522D01*
X144989995Y-72943878D01*
X144962352Y-72939500D01*
X144757648Y-72939500D01*
X144733329Y-72943351D01*
X144555465Y-72971522D01*
X144360776Y-73034781D01*
X144178386Y-73127715D01*
X144012786Y-73248028D01*
X143868028Y-73392786D01*
X143747715Y-73558386D01*
X143700485Y-73651080D01*
X143652510Y-73701876D01*
X143584689Y-73718671D01*
X143518554Y-73696134D01*
X143479515Y-73651080D01*
X143432419Y-73558650D01*
X143432287Y-73558390D01*
X143424556Y-73547749D01*
X143311971Y-73392786D01*
X143167213Y-73248028D01*
X143001613Y-73127715D01*
X143001612Y-73127714D01*
X143001610Y-73127713D01*
X142944653Y-73098691D01*
X142819223Y-73034781D01*
X142624534Y-72971522D01*
X142449995Y-72943878D01*
X142422352Y-72939500D01*
X142217648Y-72939500D01*
X142193329Y-72943351D01*
X142015465Y-72971522D01*
X141820776Y-73034781D01*
X141638386Y-73127715D01*
X141472786Y-73248028D01*
X141328028Y-73392786D01*
X141207715Y-73558386D01*
X141160485Y-73651080D01*
X141112510Y-73701876D01*
X141044689Y-73718671D01*
X140978554Y-73696134D01*
X140939515Y-73651080D01*
X140892419Y-73558650D01*
X140892287Y-73558390D01*
X140884556Y-73547749D01*
X140771971Y-73392786D01*
X140627213Y-73248028D01*
X140461613Y-73127715D01*
X140461612Y-73127714D01*
X140461610Y-73127713D01*
X140404653Y-73098691D01*
X140279223Y-73034781D01*
X140084534Y-72971522D01*
X139909995Y-72943878D01*
X139882352Y-72939500D01*
X139677648Y-72939500D01*
X139653329Y-72943351D01*
X139475465Y-72971522D01*
X139280776Y-73034781D01*
X139098386Y-73127715D01*
X138932786Y-73248028D01*
X138788028Y-73392786D01*
X138667715Y-73558386D01*
X138620485Y-73651080D01*
X138572510Y-73701876D01*
X138504689Y-73718671D01*
X138438554Y-73696134D01*
X138399515Y-73651080D01*
X138352419Y-73558650D01*
X138352287Y-73558390D01*
X138344556Y-73547749D01*
X138231971Y-73392786D01*
X138087213Y-73248028D01*
X137921613Y-73127715D01*
X137921612Y-73127714D01*
X137921610Y-73127713D01*
X137864653Y-73098691D01*
X137739223Y-73034781D01*
X137544534Y-72971522D01*
X137369995Y-72943878D01*
X137342352Y-72939500D01*
X137137648Y-72939500D01*
X137113329Y-72943351D01*
X136935465Y-72971522D01*
X136740776Y-73034781D01*
X136558386Y-73127715D01*
X136392786Y-73248028D01*
X136248028Y-73392786D01*
X136127715Y-73558386D01*
X136080485Y-73651080D01*
X136032510Y-73701876D01*
X135964689Y-73718671D01*
X135898554Y-73696134D01*
X135859515Y-73651080D01*
X135812419Y-73558650D01*
X135812287Y-73558390D01*
X135804556Y-73547749D01*
X135691971Y-73392786D01*
X135547213Y-73248028D01*
X135381613Y-73127715D01*
X135381612Y-73127714D01*
X135381610Y-73127713D01*
X135324653Y-73098691D01*
X135199223Y-73034781D01*
X135004534Y-72971522D01*
X134829995Y-72943878D01*
X134802352Y-72939500D01*
X134597648Y-72939500D01*
X134573329Y-72943351D01*
X134395465Y-72971522D01*
X134200776Y-73034781D01*
X134018386Y-73127715D01*
X133852786Y-73248028D01*
X133708028Y-73392786D01*
X133587715Y-73558386D01*
X133540485Y-73651080D01*
X133492510Y-73701876D01*
X133424689Y-73718671D01*
X133358554Y-73696134D01*
X133319515Y-73651080D01*
X133272419Y-73558650D01*
X133272287Y-73558390D01*
X133264556Y-73547749D01*
X133151971Y-73392786D01*
X133007213Y-73248028D01*
X132841613Y-73127715D01*
X132841612Y-73127714D01*
X132841610Y-73127713D01*
X132784653Y-73098691D01*
X132659223Y-73034781D01*
X132464534Y-72971522D01*
X132289995Y-72943878D01*
X132262352Y-72939500D01*
X132057648Y-72939500D01*
X132033329Y-72943351D01*
X131855465Y-72971522D01*
X131660776Y-73034781D01*
X131478386Y-73127715D01*
X131312786Y-73248028D01*
X131168028Y-73392786D01*
X131047715Y-73558386D01*
X131000485Y-73651080D01*
X130952510Y-73701876D01*
X130884689Y-73718671D01*
X130818554Y-73696134D01*
X130779515Y-73651080D01*
X130732419Y-73558650D01*
X130732287Y-73558390D01*
X130724556Y-73547749D01*
X130611971Y-73392786D01*
X130467213Y-73248028D01*
X130301613Y-73127715D01*
X130301612Y-73127714D01*
X130301610Y-73127713D01*
X130244653Y-73098691D01*
X130119223Y-73034781D01*
X129924534Y-72971522D01*
X129749995Y-72943878D01*
X129722352Y-72939500D01*
X129517648Y-72939500D01*
X129493329Y-72943351D01*
X129315465Y-72971522D01*
X129120776Y-73034781D01*
X128938386Y-73127715D01*
X128772786Y-73248028D01*
X128628028Y-73392786D01*
X128507713Y-73558388D01*
X128460203Y-73651630D01*
X128412228Y-73702426D01*
X128344407Y-73719220D01*
X128278272Y-73696682D01*
X128239234Y-73651628D01*
X128191861Y-73558652D01*
X128071582Y-73393105D01*
X128071582Y-73393104D01*
X127926895Y-73248417D01*
X127761349Y-73128140D01*
X127579029Y-73035244D01*
X127384413Y-72972009D01*
X127330000Y-72963390D01*
X127330000Y-73924314D01*
X127325606Y-73919920D01*
X127234394Y-73867259D01*
X127132661Y-73840000D01*
X127027339Y-73840000D01*
X126925606Y-73867259D01*
X126834394Y-73919920D01*
X126830000Y-73924314D01*
X126830000Y-72963390D01*
X126775586Y-72972009D01*
X126580970Y-73035244D01*
X126398650Y-73128140D01*
X126233105Y-73248417D01*
X126233104Y-73248417D01*
X126088417Y-73393104D01*
X126088417Y-73393105D01*
X125968140Y-73558650D01*
X125920485Y-73652179D01*
X125872510Y-73702975D01*
X125804689Y-73719770D01*
X125738554Y-73697232D01*
X125699515Y-73652179D01*
X125651859Y-73558650D01*
X125531582Y-73393105D01*
X125531582Y-73393104D01*
X125386895Y-73248417D01*
X125221349Y-73128140D01*
X125039029Y-73035244D01*
X124844413Y-72972009D01*
X124790000Y-72963390D01*
X124790000Y-73924314D01*
X124785606Y-73919920D01*
X124694394Y-73867259D01*
X124592661Y-73840000D01*
X124487339Y-73840000D01*
X124385606Y-73867259D01*
X124294394Y-73919920D01*
X124290000Y-73924314D01*
X124290000Y-72963390D01*
X124235586Y-72972009D01*
X124040970Y-73035244D01*
X123858650Y-73128140D01*
X123693105Y-73248417D01*
X123693104Y-73248417D01*
X123548417Y-73393104D01*
X123548417Y-73393105D01*
X123428140Y-73558650D01*
X123380765Y-73651629D01*
X123332790Y-73702425D01*
X123264969Y-73719220D01*
X123198834Y-73696682D01*
X123159795Y-73651629D01*
X123112419Y-73558650D01*
X123112287Y-73558390D01*
X123104556Y-73547749D01*
X122991971Y-73392786D01*
X122847213Y-73248028D01*
X122681613Y-73127715D01*
X122681612Y-73127714D01*
X122681610Y-73127713D01*
X122624653Y-73098691D01*
X122499223Y-73034781D01*
X122304534Y-72971522D01*
X122129995Y-72943878D01*
X122102352Y-72939500D01*
X121897648Y-72939500D01*
X121873329Y-72943351D01*
X121695465Y-72971522D01*
X121500776Y-73034781D01*
X121318386Y-73127715D01*
X121152786Y-73248028D01*
X121008032Y-73392782D01*
X120981668Y-73429070D01*
X120926338Y-73471735D01*
X120856724Y-73477714D01*
X120794929Y-73445108D01*
X120760572Y-73384269D01*
X120758060Y-73369438D01*
X120757640Y-73365533D01*
X120754091Y-73332517D01*
X120703796Y-73197669D01*
X120703795Y-73197668D01*
X120703793Y-73197664D01*
X120617547Y-73082455D01*
X120617544Y-73082452D01*
X120502335Y-72996206D01*
X120502328Y-72996202D01*
X120367482Y-72945908D01*
X120367483Y-72945908D01*
X120307883Y-72939501D01*
X120307881Y-72939500D01*
X120307873Y-72939500D01*
X120307864Y-72939500D01*
X118612129Y-72939500D01*
X118612123Y-72939501D01*
X118552516Y-72945908D01*
X118417671Y-72996202D01*
X118417664Y-72996206D01*
X118302455Y-73082452D01*
X118302452Y-73082455D01*
X118216206Y-73197664D01*
X118216202Y-73197671D01*
X118165908Y-73332517D01*
X118159501Y-73392116D01*
X118159500Y-73392135D01*
X118159500Y-75087870D01*
X118159501Y-75087876D01*
X118165908Y-75147483D01*
X118216202Y-75282328D01*
X118216206Y-75282335D01*
X118302452Y-75397544D01*
X118302455Y-75397547D01*
X118417664Y-75483793D01*
X118417671Y-75483797D01*
X118552517Y-75534091D01*
X118552516Y-75534091D01*
X118559444Y-75534835D01*
X118612127Y-75540500D01*
X120307872Y-75540499D01*
X120367483Y-75534091D01*
X120502331Y-75483796D01*
X120617546Y-75397546D01*
X120703796Y-75282331D01*
X120754091Y-75147483D01*
X120758061Y-75110556D01*
X120784796Y-75046011D01*
X120842188Y-75006161D01*
X120912013Y-75003666D01*
X120972102Y-75039317D01*
X120981667Y-75050929D01*
X121008032Y-75087217D01*
X121152786Y-75231971D01*
X121307749Y-75344556D01*
X121318390Y-75352287D01*
X121399499Y-75393614D01*
X121500776Y-75445218D01*
X121500778Y-75445218D01*
X121500781Y-75445220D01*
X121575818Y-75469601D01*
X121695465Y-75508477D01*
X121777171Y-75521418D01*
X121897648Y-75540500D01*
X121897649Y-75540500D01*
X122102351Y-75540500D01*
X122102352Y-75540500D01*
X122304534Y-75508477D01*
X122499219Y-75445220D01*
X122681610Y-75352287D01*
X122777901Y-75282328D01*
X122847213Y-75231971D01*
X122847215Y-75231968D01*
X122847219Y-75231966D01*
X122991966Y-75087219D01*
X122991968Y-75087215D01*
X122991971Y-75087213D01*
X123112284Y-74921614D01*
X123112286Y-74921611D01*
X123112287Y-74921610D01*
X123159795Y-74828369D01*
X123207770Y-74777574D01*
X123275591Y-74760779D01*
X123341725Y-74783316D01*
X123380765Y-74828370D01*
X123428140Y-74921349D01*
X123548417Y-75086894D01*
X123548417Y-75086895D01*
X123693104Y-75231582D01*
X123858650Y-75351859D01*
X124040968Y-75444754D01*
X124235578Y-75507988D01*
X124290000Y-75516607D01*
X124290000Y-74555686D01*
X124294394Y-74560080D01*
X124385606Y-74612741D01*
X124487339Y-74640000D01*
X124592661Y-74640000D01*
X124694394Y-74612741D01*
X124785606Y-74560080D01*
X124790000Y-74555686D01*
X124790000Y-75516606D01*
X124844421Y-75507988D01*
X125039031Y-75444754D01*
X125221349Y-75351859D01*
X125386894Y-75231582D01*
X125386895Y-75231582D01*
X125531582Y-75086895D01*
X125531582Y-75086894D01*
X125651859Y-74921349D01*
X125699515Y-74827820D01*
X125747489Y-74777024D01*
X125815310Y-74760229D01*
X125881445Y-74782766D01*
X125920485Y-74827820D01*
X125968140Y-74921349D01*
X126088417Y-75086894D01*
X126088417Y-75086895D01*
X126233104Y-75231582D01*
X126398650Y-75351859D01*
X126580968Y-75444754D01*
X126775578Y-75507988D01*
X126830000Y-75516607D01*
X126830000Y-74555686D01*
X126834394Y-74560080D01*
X126925606Y-74612741D01*
X127027339Y-74640000D01*
X127132661Y-74640000D01*
X127234394Y-74612741D01*
X127325606Y-74560080D01*
X127330000Y-74555686D01*
X127330000Y-75516606D01*
X127384421Y-75507988D01*
X127579031Y-75444754D01*
X127761349Y-75351859D01*
X127926894Y-75231582D01*
X127926895Y-75231582D01*
X128071582Y-75086895D01*
X128071582Y-75086894D01*
X128191861Y-74921347D01*
X128239234Y-74828371D01*
X128287208Y-74777575D01*
X128355028Y-74760779D01*
X128421164Y-74783316D01*
X128460203Y-74828369D01*
X128507713Y-74921611D01*
X128628028Y-75087213D01*
X128772786Y-75231971D01*
X128938388Y-75352286D01*
X128988294Y-75377714D01*
X129039090Y-75425687D01*
X129056000Y-75488199D01*
X129056000Y-76095021D01*
X129036315Y-76162060D01*
X129019681Y-76182702D01*
X125848689Y-79353693D01*
X125848685Y-79353699D01*
X125774436Y-79482301D01*
X125774435Y-79482304D01*
X125736000Y-79625748D01*
X125736000Y-81915022D01*
X125716315Y-81982061D01*
X125699681Y-82002703D01*
X121302703Y-86399681D01*
X121241380Y-86433166D01*
X121215022Y-86436000D01*
X118942085Y-86436000D01*
X118875046Y-86416315D01*
X118831601Y-86368296D01*
X118819525Y-86344597D01*
X118819523Y-86344594D01*
X118703828Y-86185354D01*
X118564646Y-86046172D01*
X118405405Y-85930476D01*
X118375075Y-85915022D01*
X118230029Y-85841117D01*
X118042826Y-85780290D01*
X117848422Y-85749500D01*
X117848417Y-85749500D01*
X116151583Y-85749500D01*
X116151578Y-85749500D01*
X115957173Y-85780290D01*
X115769970Y-85841117D01*
X115594594Y-85930476D01*
X115545172Y-85966384D01*
X115435354Y-86046172D01*
X115435352Y-86046174D01*
X115435351Y-86046174D01*
X115296174Y-86185351D01*
X115296174Y-86185352D01*
X115296172Y-86185354D01*
X115246485Y-86253741D01*
X115180476Y-86344594D01*
X115091117Y-86519970D01*
X115030290Y-86707173D01*
X114999500Y-86901577D01*
X106500500Y-86901577D01*
X106500500Y-81202155D01*
X115000000Y-81202155D01*
X115000000Y-81750000D01*
X115816988Y-81750000D01*
X115784075Y-81807007D01*
X115750000Y-81934174D01*
X115750000Y-82065826D01*
X115784075Y-82192993D01*
X115816988Y-82250000D01*
X115000000Y-82250000D01*
X115000000Y-82797844D01*
X115006401Y-82857372D01*
X115006403Y-82857379D01*
X115056645Y-82992086D01*
X115056649Y-82992093D01*
X115142809Y-83107187D01*
X115142812Y-83107190D01*
X115257906Y-83193350D01*
X115257913Y-83193354D01*
X115392620Y-83243596D01*
X115392627Y-83243598D01*
X115452155Y-83249999D01*
X115452172Y-83250000D01*
X116750000Y-83250000D01*
X116750000Y-82500000D01*
X117250000Y-82500000D01*
X117250000Y-83250000D01*
X118547828Y-83250000D01*
X118547844Y-83249999D01*
X118607372Y-83243598D01*
X118607379Y-83243596D01*
X118742086Y-83193354D01*
X118742093Y-83193350D01*
X118857187Y-83107190D01*
X118857190Y-83107187D01*
X118943350Y-82992093D01*
X118943354Y-82992086D01*
X118993596Y-82857379D01*
X118993598Y-82857372D01*
X118999999Y-82797844D01*
X119000000Y-82797827D01*
X119000000Y-82250000D01*
X118183012Y-82250000D01*
X118215925Y-82192993D01*
X118250000Y-82065826D01*
X118250000Y-81934174D01*
X118215925Y-81807007D01*
X118183012Y-81750000D01*
X119000000Y-81750000D01*
X119000000Y-81202172D01*
X118999999Y-81202155D01*
X118993598Y-81142627D01*
X118993596Y-81142620D01*
X118943354Y-81007913D01*
X118943350Y-81007906D01*
X118857190Y-80892812D01*
X118857187Y-80892809D01*
X118742093Y-80806649D01*
X118742086Y-80806645D01*
X118607379Y-80756403D01*
X118607372Y-80756401D01*
X118547844Y-80750000D01*
X117250000Y-80750000D01*
X117250000Y-81500000D01*
X116750000Y-81500000D01*
X116750000Y-80750000D01*
X115452155Y-80750000D01*
X115392627Y-80756401D01*
X115392620Y-80756403D01*
X115257913Y-80806645D01*
X115257906Y-80806649D01*
X115142812Y-80892809D01*
X115142809Y-80892812D01*
X115056649Y-81007906D01*
X115056645Y-81007913D01*
X115006403Y-81142620D01*
X115006401Y-81142627D01*
X115000000Y-81202155D01*
X106500500Y-81202155D01*
X106500500Y-58897648D01*
X118159500Y-58897648D01*
X118159500Y-59102351D01*
X118191522Y-59304534D01*
X118254781Y-59499223D01*
X118347715Y-59681613D01*
X118468028Y-59847213D01*
X118612786Y-59991971D01*
X118767749Y-60104556D01*
X118778390Y-60112287D01*
X118894607Y-60171503D01*
X118960776Y-60205218D01*
X118960778Y-60205218D01*
X118960781Y-60205220D01*
X119065137Y-60239127D01*
X119155465Y-60268477D01*
X119256557Y-60284488D01*
X119357648Y-60300500D01*
X119357649Y-60300500D01*
X119562351Y-60300500D01*
X119562352Y-60300500D01*
X119764534Y-60268477D01*
X119959219Y-60205220D01*
X120141610Y-60112287D01*
X120234590Y-60044732D01*
X120307213Y-59991971D01*
X120307215Y-59991968D01*
X120307219Y-59991966D01*
X120451966Y-59847219D01*
X120451968Y-59847215D01*
X120451971Y-59847213D01*
X120572284Y-59681614D01*
X120572286Y-59681611D01*
X120572287Y-59681610D01*
X120619795Y-59588369D01*
X120667770Y-59537574D01*
X120735591Y-59520779D01*
X120801725Y-59543316D01*
X120840765Y-59588370D01*
X120888140Y-59681349D01*
X121008417Y-59846894D01*
X121008417Y-59846895D01*
X121153104Y-59991582D01*
X121318650Y-60111859D01*
X121500968Y-60204754D01*
X121695578Y-60267988D01*
X121750000Y-60276607D01*
X121750000Y-59315686D01*
X121754394Y-59320080D01*
X121845606Y-59372741D01*
X121947339Y-59400000D01*
X122052661Y-59400000D01*
X122154394Y-59372741D01*
X122245606Y-59320080D01*
X122250000Y-59315686D01*
X122250000Y-60276606D01*
X122304421Y-60267988D01*
X122499031Y-60204754D01*
X122681349Y-60111859D01*
X122846894Y-59991582D01*
X122846895Y-59991582D01*
X122991582Y-59846895D01*
X122991582Y-59846894D01*
X123111861Y-59681347D01*
X123159234Y-59588371D01*
X123207208Y-59537575D01*
X123275028Y-59520779D01*
X123341164Y-59543316D01*
X123380203Y-59588369D01*
X123427713Y-59681611D01*
X123548028Y-59847213D01*
X123692786Y-59991971D01*
X123847749Y-60104556D01*
X123858390Y-60112287D01*
X123974607Y-60171503D01*
X124040776Y-60205218D01*
X124040778Y-60205218D01*
X124040781Y-60205220D01*
X124145137Y-60239127D01*
X124235465Y-60268477D01*
X124336557Y-60284488D01*
X124437648Y-60300500D01*
X124437649Y-60300500D01*
X124642351Y-60300500D01*
X124642352Y-60300500D01*
X124844534Y-60268477D01*
X125039219Y-60205220D01*
X125221610Y-60112287D01*
X125314590Y-60044732D01*
X125387213Y-59991971D01*
X125387215Y-59991968D01*
X125387219Y-59991966D01*
X125531966Y-59847219D01*
X125531968Y-59847215D01*
X125531971Y-59847213D01*
X125652284Y-59681614D01*
X125652286Y-59681611D01*
X125652287Y-59681610D01*
X125699516Y-59588917D01*
X125747489Y-59538123D01*
X125815310Y-59521328D01*
X125881445Y-59543865D01*
X125920485Y-59588919D01*
X125967715Y-59681614D01*
X126088028Y-59847213D01*
X126232786Y-59991971D01*
X126387749Y-60104556D01*
X126398390Y-60112287D01*
X126514607Y-60171503D01*
X126580776Y-60205218D01*
X126580778Y-60205218D01*
X126580781Y-60205220D01*
X126685137Y-60239127D01*
X126775465Y-60268477D01*
X126876557Y-60284488D01*
X126977648Y-60300500D01*
X126977649Y-60300500D01*
X127182351Y-60300500D01*
X127182352Y-60300500D01*
X127384534Y-60268477D01*
X127579219Y-60205220D01*
X127761610Y-60112287D01*
X127854590Y-60044732D01*
X127927213Y-59991971D01*
X127927215Y-59991968D01*
X127927219Y-59991966D01*
X128071966Y-59847219D01*
X128071968Y-59847215D01*
X128071971Y-59847213D01*
X128192284Y-59681614D01*
X128192286Y-59681611D01*
X128192287Y-59681610D01*
X128239516Y-59588917D01*
X128287489Y-59538123D01*
X128355310Y-59521328D01*
X128421445Y-59543865D01*
X128460485Y-59588919D01*
X128507715Y-59681614D01*
X128628028Y-59847213D01*
X128772786Y-59991971D01*
X128927749Y-60104556D01*
X128938390Y-60112287D01*
X129054607Y-60171503D01*
X129120776Y-60205218D01*
X129120778Y-60205218D01*
X129120781Y-60205220D01*
X129225137Y-60239127D01*
X129315465Y-60268477D01*
X129416557Y-60284488D01*
X129517648Y-60300500D01*
X129517649Y-60300500D01*
X129722351Y-60300500D01*
X129722352Y-60300500D01*
X129924534Y-60268477D01*
X130119219Y-60205220D01*
X130301610Y-60112287D01*
X130394590Y-60044732D01*
X130467213Y-59991971D01*
X130467215Y-59991968D01*
X130467219Y-59991966D01*
X130611966Y-59847219D01*
X130611968Y-59847215D01*
X130611971Y-59847213D01*
X130732284Y-59681614D01*
X130732286Y-59681611D01*
X130732287Y-59681610D01*
X130779516Y-59588917D01*
X130827489Y-59538123D01*
X130895310Y-59521328D01*
X130961445Y-59543865D01*
X131000485Y-59588919D01*
X131047715Y-59681614D01*
X131168028Y-59847213D01*
X131312786Y-59991971D01*
X131467749Y-60104556D01*
X131478390Y-60112287D01*
X131594607Y-60171503D01*
X131660776Y-60205218D01*
X131660778Y-60205218D01*
X131660781Y-60205220D01*
X131765137Y-60239127D01*
X131855465Y-60268477D01*
X131956557Y-60284488D01*
X132057648Y-60300500D01*
X132057649Y-60300500D01*
X132262351Y-60300500D01*
X132262352Y-60300500D01*
X132464534Y-60268477D01*
X132659219Y-60205220D01*
X132841610Y-60112287D01*
X132934590Y-60044732D01*
X133007213Y-59991971D01*
X133007215Y-59991968D01*
X133007219Y-59991966D01*
X133151966Y-59847219D01*
X133151968Y-59847215D01*
X133151971Y-59847213D01*
X133272284Y-59681614D01*
X133272286Y-59681611D01*
X133272287Y-59681610D01*
X133319516Y-59588917D01*
X133367489Y-59538123D01*
X133435310Y-59521328D01*
X133501445Y-59543865D01*
X133540485Y-59588919D01*
X133587715Y-59681614D01*
X133708028Y-59847213D01*
X133852786Y-59991971D01*
X134007749Y-60104556D01*
X134018390Y-60112287D01*
X134134607Y-60171503D01*
X134200776Y-60205218D01*
X134200778Y-60205218D01*
X134200781Y-60205220D01*
X134305137Y-60239127D01*
X134395465Y-60268477D01*
X134496557Y-60284488D01*
X134597648Y-60300500D01*
X134597649Y-60300500D01*
X134802351Y-60300500D01*
X134802352Y-60300500D01*
X135004534Y-60268477D01*
X135199219Y-60205220D01*
X135381610Y-60112287D01*
X135474590Y-60044732D01*
X135547213Y-59991971D01*
X135547215Y-59991968D01*
X135547219Y-59991966D01*
X135691966Y-59847219D01*
X135691968Y-59847215D01*
X135691971Y-59847213D01*
X135812284Y-59681614D01*
X135812286Y-59681611D01*
X135812287Y-59681610D01*
X135859516Y-59588917D01*
X135907489Y-59538123D01*
X135975310Y-59521328D01*
X136041445Y-59543865D01*
X136080485Y-59588919D01*
X136127715Y-59681614D01*
X136248028Y-59847213D01*
X136392786Y-59991971D01*
X136547749Y-60104556D01*
X136558390Y-60112287D01*
X136674607Y-60171503D01*
X136740776Y-60205218D01*
X136740778Y-60205218D01*
X136740781Y-60205220D01*
X136845137Y-60239127D01*
X136935465Y-60268477D01*
X137036557Y-60284488D01*
X137137648Y-60300500D01*
X137137649Y-60300500D01*
X137342351Y-60300500D01*
X137342352Y-60300500D01*
X137544534Y-60268477D01*
X137739219Y-60205220D01*
X137921610Y-60112287D01*
X138014590Y-60044732D01*
X138087213Y-59991971D01*
X138087215Y-59991968D01*
X138087219Y-59991966D01*
X138231966Y-59847219D01*
X138231968Y-59847215D01*
X138231971Y-59847213D01*
X138352284Y-59681614D01*
X138352286Y-59681611D01*
X138352287Y-59681610D01*
X138399516Y-59588917D01*
X138447489Y-59538123D01*
X138515310Y-59521328D01*
X138581445Y-59543865D01*
X138620485Y-59588919D01*
X138667715Y-59681614D01*
X138788028Y-59847213D01*
X138932786Y-59991971D01*
X139087749Y-60104556D01*
X139098390Y-60112287D01*
X139214607Y-60171503D01*
X139280776Y-60205218D01*
X139280778Y-60205218D01*
X139280781Y-60205220D01*
X139385137Y-60239127D01*
X139475465Y-60268477D01*
X139576557Y-60284488D01*
X139677648Y-60300500D01*
X139677649Y-60300500D01*
X139882351Y-60300500D01*
X139882352Y-60300500D01*
X140084534Y-60268477D01*
X140279219Y-60205220D01*
X140461610Y-60112287D01*
X140554590Y-60044732D01*
X140627213Y-59991971D01*
X140627215Y-59991968D01*
X140627219Y-59991966D01*
X140771966Y-59847219D01*
X140771968Y-59847215D01*
X140771971Y-59847213D01*
X140892284Y-59681614D01*
X140892286Y-59681611D01*
X140892287Y-59681610D01*
X140939516Y-59588917D01*
X140987489Y-59538123D01*
X141055310Y-59521328D01*
X141121445Y-59543865D01*
X141160485Y-59588919D01*
X141207715Y-59681614D01*
X141328028Y-59847213D01*
X141472786Y-59991971D01*
X141627749Y-60104556D01*
X141638390Y-60112287D01*
X141754607Y-60171503D01*
X141820776Y-60205218D01*
X141820778Y-60205218D01*
X141820781Y-60205220D01*
X141925137Y-60239127D01*
X142015465Y-60268477D01*
X142116557Y-60284488D01*
X142217648Y-60300500D01*
X142217649Y-60300500D01*
X142422351Y-60300500D01*
X142422352Y-60300500D01*
X142624534Y-60268477D01*
X142819219Y-60205220D01*
X143001610Y-60112287D01*
X143094590Y-60044732D01*
X143167213Y-59991971D01*
X143167215Y-59991968D01*
X143167219Y-59991966D01*
X143311966Y-59847219D01*
X143311968Y-59847215D01*
X143311971Y-59847213D01*
X143432284Y-59681614D01*
X143432286Y-59681611D01*
X143432287Y-59681610D01*
X143479516Y-59588917D01*
X143527489Y-59538123D01*
X143595310Y-59521328D01*
X143661445Y-59543865D01*
X143700485Y-59588919D01*
X143747715Y-59681614D01*
X143868028Y-59847213D01*
X144012786Y-59991971D01*
X144167749Y-60104556D01*
X144178390Y-60112287D01*
X144294607Y-60171503D01*
X144360776Y-60205218D01*
X144360778Y-60205218D01*
X144360781Y-60205220D01*
X144465137Y-60239127D01*
X144555465Y-60268477D01*
X144656557Y-60284488D01*
X144757648Y-60300500D01*
X144757649Y-60300500D01*
X144962351Y-60300500D01*
X144962352Y-60300500D01*
X145164534Y-60268477D01*
X145359219Y-60205220D01*
X145541610Y-60112287D01*
X145634590Y-60044732D01*
X145707213Y-59991971D01*
X145707215Y-59991968D01*
X145707219Y-59991966D01*
X145851966Y-59847219D01*
X145851968Y-59847215D01*
X145851971Y-59847213D01*
X145972284Y-59681614D01*
X145972286Y-59681611D01*
X145972287Y-59681610D01*
X146019516Y-59588917D01*
X146067489Y-59538123D01*
X146135310Y-59521328D01*
X146201445Y-59543865D01*
X146240485Y-59588919D01*
X146287715Y-59681614D01*
X146408028Y-59847213D01*
X146552786Y-59991971D01*
X146707749Y-60104556D01*
X146718390Y-60112287D01*
X146834607Y-60171503D01*
X146900776Y-60205218D01*
X146900778Y-60205218D01*
X146900781Y-60205220D01*
X147005137Y-60239127D01*
X147095465Y-60268477D01*
X147196557Y-60284488D01*
X147297648Y-60300500D01*
X147297649Y-60300500D01*
X147502351Y-60300500D01*
X147502352Y-60300500D01*
X147704534Y-60268477D01*
X147899219Y-60205220D01*
X148081610Y-60112287D01*
X148174590Y-60044732D01*
X148247213Y-59991971D01*
X148247215Y-59991968D01*
X148247219Y-59991966D01*
X148391966Y-59847219D01*
X148391968Y-59847215D01*
X148391971Y-59847213D01*
X148444732Y-59774590D01*
X148512287Y-59681610D01*
X148605220Y-59499219D01*
X148668477Y-59304534D01*
X148700500Y-59102352D01*
X148700500Y-58897648D01*
X148692257Y-58845606D01*
X148668477Y-58695465D01*
X148605218Y-58500776D01*
X148512419Y-58318650D01*
X148512287Y-58318390D01*
X148504556Y-58307749D01*
X148391971Y-58152786D01*
X148247213Y-58008028D01*
X148081613Y-57887715D01*
X148081612Y-57887714D01*
X148081610Y-57887713D01*
X148024653Y-57858691D01*
X147899223Y-57794781D01*
X147704534Y-57731522D01*
X147529995Y-57703878D01*
X147502352Y-57699500D01*
X147297648Y-57699500D01*
X147273329Y-57703351D01*
X147095465Y-57731522D01*
X146900776Y-57794781D01*
X146718386Y-57887715D01*
X146552786Y-58008028D01*
X146408028Y-58152786D01*
X146287715Y-58318386D01*
X146240485Y-58411080D01*
X146192510Y-58461876D01*
X146124689Y-58478671D01*
X146058554Y-58456134D01*
X146019515Y-58411080D01*
X145972419Y-58318650D01*
X145972287Y-58318390D01*
X145964556Y-58307749D01*
X145851971Y-58152786D01*
X145707213Y-58008028D01*
X145541613Y-57887715D01*
X145541612Y-57887714D01*
X145541610Y-57887713D01*
X145484653Y-57858691D01*
X145359223Y-57794781D01*
X145164534Y-57731522D01*
X144989995Y-57703878D01*
X144962352Y-57699500D01*
X144757648Y-57699500D01*
X144733329Y-57703351D01*
X144555465Y-57731522D01*
X144360776Y-57794781D01*
X144178386Y-57887715D01*
X144012786Y-58008028D01*
X143868028Y-58152786D01*
X143747715Y-58318386D01*
X143700485Y-58411080D01*
X143652510Y-58461876D01*
X143584689Y-58478671D01*
X143518554Y-58456134D01*
X143479515Y-58411080D01*
X143432419Y-58318650D01*
X143432287Y-58318390D01*
X143424556Y-58307749D01*
X143311971Y-58152786D01*
X143167213Y-58008028D01*
X143001613Y-57887715D01*
X143001612Y-57887714D01*
X143001610Y-57887713D01*
X142944653Y-57858691D01*
X142819223Y-57794781D01*
X142624534Y-57731522D01*
X142449995Y-57703878D01*
X142422352Y-57699500D01*
X142217648Y-57699500D01*
X142193329Y-57703351D01*
X142015465Y-57731522D01*
X141820776Y-57794781D01*
X141638386Y-57887715D01*
X141472786Y-58008028D01*
X141328028Y-58152786D01*
X141207715Y-58318386D01*
X141160485Y-58411080D01*
X141112510Y-58461876D01*
X141044689Y-58478671D01*
X140978554Y-58456134D01*
X140939515Y-58411080D01*
X140892419Y-58318650D01*
X140892287Y-58318390D01*
X140884556Y-58307749D01*
X140771971Y-58152786D01*
X140627213Y-58008028D01*
X140461613Y-57887715D01*
X140461612Y-57887714D01*
X140461610Y-57887713D01*
X140404653Y-57858691D01*
X140279223Y-57794781D01*
X140084534Y-57731522D01*
X139909995Y-57703878D01*
X139882352Y-57699500D01*
X139677648Y-57699500D01*
X139653329Y-57703351D01*
X139475465Y-57731522D01*
X139280776Y-57794781D01*
X139098386Y-57887715D01*
X138932786Y-58008028D01*
X138788028Y-58152786D01*
X138667715Y-58318386D01*
X138620485Y-58411080D01*
X138572510Y-58461876D01*
X138504689Y-58478671D01*
X138438554Y-58456134D01*
X138399515Y-58411080D01*
X138352419Y-58318650D01*
X138352287Y-58318390D01*
X138344556Y-58307749D01*
X138231971Y-58152786D01*
X138087213Y-58008028D01*
X137921613Y-57887715D01*
X137921612Y-57887714D01*
X137921610Y-57887713D01*
X137864653Y-57858691D01*
X137739223Y-57794781D01*
X137544534Y-57731522D01*
X137369995Y-57703878D01*
X137342352Y-57699500D01*
X137137648Y-57699500D01*
X137113329Y-57703351D01*
X136935465Y-57731522D01*
X136740776Y-57794781D01*
X136558386Y-57887715D01*
X136392786Y-58008028D01*
X136248028Y-58152786D01*
X136127715Y-58318386D01*
X136080485Y-58411080D01*
X136032510Y-58461876D01*
X135964689Y-58478671D01*
X135898554Y-58456134D01*
X135859515Y-58411080D01*
X135812419Y-58318650D01*
X135812287Y-58318390D01*
X135804556Y-58307749D01*
X135691971Y-58152786D01*
X135547213Y-58008028D01*
X135381613Y-57887715D01*
X135381612Y-57887714D01*
X135381610Y-57887713D01*
X135324653Y-57858691D01*
X135199223Y-57794781D01*
X135004534Y-57731522D01*
X134829995Y-57703878D01*
X134802352Y-57699500D01*
X134597648Y-57699500D01*
X134573329Y-57703351D01*
X134395465Y-57731522D01*
X134200776Y-57794781D01*
X134018386Y-57887715D01*
X133852786Y-58008028D01*
X133708028Y-58152786D01*
X133587715Y-58318386D01*
X133540485Y-58411080D01*
X133492510Y-58461876D01*
X133424689Y-58478671D01*
X133358554Y-58456134D01*
X133319515Y-58411080D01*
X133272419Y-58318650D01*
X133272287Y-58318390D01*
X133264556Y-58307749D01*
X133151971Y-58152786D01*
X133007213Y-58008028D01*
X132841613Y-57887715D01*
X132841612Y-57887714D01*
X132841610Y-57887713D01*
X132784653Y-57858691D01*
X132659223Y-57794781D01*
X132464534Y-57731522D01*
X132289995Y-57703878D01*
X132262352Y-57699500D01*
X132057648Y-57699500D01*
X132033329Y-57703351D01*
X131855465Y-57731522D01*
X131660776Y-57794781D01*
X131478386Y-57887715D01*
X131312786Y-58008028D01*
X131168028Y-58152786D01*
X131047715Y-58318386D01*
X131000485Y-58411080D01*
X130952510Y-58461876D01*
X130884689Y-58478671D01*
X130818554Y-58456134D01*
X130779515Y-58411080D01*
X130732419Y-58318650D01*
X130732287Y-58318390D01*
X130724556Y-58307749D01*
X130611971Y-58152786D01*
X130467213Y-58008028D01*
X130301613Y-57887715D01*
X130301612Y-57887714D01*
X130301610Y-57887713D01*
X130244653Y-57858691D01*
X130119223Y-57794781D01*
X129924534Y-57731522D01*
X129749995Y-57703878D01*
X129722352Y-57699500D01*
X129517648Y-57699500D01*
X129493329Y-57703351D01*
X129315465Y-57731522D01*
X129120776Y-57794781D01*
X128938386Y-57887715D01*
X128772786Y-58008028D01*
X128628028Y-58152786D01*
X128507715Y-58318386D01*
X128460485Y-58411080D01*
X128412510Y-58461876D01*
X128344689Y-58478671D01*
X128278554Y-58456134D01*
X128239515Y-58411080D01*
X128192419Y-58318650D01*
X128192287Y-58318390D01*
X128184556Y-58307749D01*
X128071971Y-58152786D01*
X127927213Y-58008028D01*
X127761613Y-57887715D01*
X127761612Y-57887714D01*
X127761610Y-57887713D01*
X127704653Y-57858691D01*
X127579223Y-57794781D01*
X127384534Y-57731522D01*
X127209995Y-57703878D01*
X127182352Y-57699500D01*
X126977648Y-57699500D01*
X126953329Y-57703351D01*
X126775465Y-57731522D01*
X126580776Y-57794781D01*
X126398386Y-57887715D01*
X126232786Y-58008028D01*
X126088028Y-58152786D01*
X125967715Y-58318386D01*
X125920485Y-58411080D01*
X125872510Y-58461876D01*
X125804689Y-58478671D01*
X125738554Y-58456134D01*
X125699515Y-58411080D01*
X125652419Y-58318650D01*
X125652287Y-58318390D01*
X125644556Y-58307749D01*
X125531971Y-58152786D01*
X125387213Y-58008028D01*
X125221613Y-57887715D01*
X125221612Y-57887714D01*
X125221610Y-57887713D01*
X125164653Y-57858691D01*
X125039223Y-57794781D01*
X124844534Y-57731522D01*
X124669995Y-57703878D01*
X124642352Y-57699500D01*
X124437648Y-57699500D01*
X124413329Y-57703351D01*
X124235465Y-57731522D01*
X124040776Y-57794781D01*
X123858386Y-57887715D01*
X123692786Y-58008028D01*
X123548028Y-58152786D01*
X123427713Y-58318388D01*
X123380203Y-58411630D01*
X123332228Y-58462426D01*
X123264407Y-58479220D01*
X123198272Y-58456682D01*
X123159234Y-58411628D01*
X123111861Y-58318652D01*
X122991582Y-58153105D01*
X122991582Y-58153104D01*
X122846895Y-58008417D01*
X122681349Y-57888140D01*
X122499029Y-57795244D01*
X122304413Y-57732009D01*
X122250000Y-57723390D01*
X122250000Y-58684314D01*
X122245606Y-58679920D01*
X122154394Y-58627259D01*
X122052661Y-58600000D01*
X121947339Y-58600000D01*
X121845606Y-58627259D01*
X121754394Y-58679920D01*
X121750000Y-58684314D01*
X121750000Y-57723390D01*
X121695586Y-57732009D01*
X121500970Y-57795244D01*
X121318650Y-57888140D01*
X121153105Y-58008417D01*
X121153104Y-58008417D01*
X121008417Y-58153104D01*
X121008417Y-58153105D01*
X120888140Y-58318650D01*
X120840765Y-58411629D01*
X120792790Y-58462425D01*
X120724969Y-58479220D01*
X120658834Y-58456682D01*
X120619795Y-58411629D01*
X120572419Y-58318650D01*
X120572287Y-58318390D01*
X120564556Y-58307749D01*
X120451971Y-58152786D01*
X120307213Y-58008028D01*
X120141613Y-57887715D01*
X120141612Y-57887714D01*
X120141610Y-57887713D01*
X120084653Y-57858691D01*
X119959223Y-57794781D01*
X119764534Y-57731522D01*
X119589995Y-57703878D01*
X119562352Y-57699500D01*
X119357648Y-57699500D01*
X119333329Y-57703351D01*
X119155465Y-57731522D01*
X118960776Y-57794781D01*
X118778386Y-57887715D01*
X118612786Y-58008028D01*
X118468028Y-58152786D01*
X118347715Y-58318386D01*
X118254781Y-58500776D01*
X118191522Y-58695465D01*
X118159500Y-58897648D01*
X106500500Y-58897648D01*
X106500500Y-55893713D01*
X107649500Y-55893713D01*
X107649500Y-56106286D01*
X107682753Y-56316239D01*
X107748444Y-56518414D01*
X107844951Y-56707820D01*
X107969890Y-56879786D01*
X108120213Y-57030109D01*
X108292179Y-57155048D01*
X108292181Y-57155049D01*
X108292184Y-57155051D01*
X108481588Y-57251557D01*
X108683757Y-57317246D01*
X108893713Y-57350500D01*
X108893714Y-57350500D01*
X109106286Y-57350500D01*
X109106287Y-57350500D01*
X109316243Y-57317246D01*
X109518412Y-57251557D01*
X109707816Y-57155051D01*
X109729789Y-57139086D01*
X109879786Y-57030109D01*
X109879788Y-57030106D01*
X109879792Y-57030104D01*
X110030104Y-56879792D01*
X110030106Y-56879788D01*
X110030109Y-56879786D01*
X110155048Y-56707820D01*
X110155047Y-56707820D01*
X110155051Y-56707816D01*
X110251557Y-56518412D01*
X110317246Y-56316243D01*
X110350500Y-56106287D01*
X110350500Y-55893713D01*
X175649500Y-55893713D01*
X175649500Y-56106286D01*
X175682753Y-56316239D01*
X175748444Y-56518414D01*
X175844951Y-56707820D01*
X175969890Y-56879786D01*
X176120213Y-57030109D01*
X176292179Y-57155048D01*
X176292181Y-57155049D01*
X176292184Y-57155051D01*
X176481588Y-57251557D01*
X176683757Y-57317246D01*
X176893713Y-57350500D01*
X176893714Y-57350500D01*
X177106286Y-57350500D01*
X177106287Y-57350500D01*
X177316243Y-57317246D01*
X177518412Y-57251557D01*
X177707816Y-57155051D01*
X177729789Y-57139086D01*
X177879786Y-57030109D01*
X177879788Y-57030106D01*
X177879792Y-57030104D01*
X178030104Y-56879792D01*
X178030106Y-56879788D01*
X178030109Y-56879786D01*
X178155048Y-56707820D01*
X178155047Y-56707820D01*
X178155051Y-56707816D01*
X178251557Y-56518412D01*
X178317246Y-56316243D01*
X178350500Y-56106287D01*
X178350500Y-55893713D01*
X178317246Y-55683757D01*
X178251557Y-55481588D01*
X178155051Y-55292184D01*
X178155049Y-55292181D01*
X178155048Y-55292179D01*
X178030109Y-55120213D01*
X177879786Y-54969890D01*
X177707820Y-54844951D01*
X177518414Y-54748444D01*
X177518413Y-54748443D01*
X177518412Y-54748443D01*
X177316243Y-54682754D01*
X177316241Y-54682753D01*
X177316240Y-54682753D01*
X177154957Y-54657208D01*
X177106287Y-54649500D01*
X176893713Y-54649500D01*
X176845042Y-54657208D01*
X176683760Y-54682753D01*
X176481585Y-54748444D01*
X176292179Y-54844951D01*
X176120213Y-54969890D01*
X175969890Y-55120213D01*
X175844951Y-55292179D01*
X175748444Y-55481585D01*
X175682753Y-55683760D01*
X175649500Y-55893713D01*
X110350500Y-55893713D01*
X110317246Y-55683757D01*
X110251557Y-55481588D01*
X110155051Y-55292184D01*
X110155049Y-55292181D01*
X110155048Y-55292179D01*
X110030109Y-55120213D01*
X109879786Y-54969890D01*
X109707820Y-54844951D01*
X109518414Y-54748444D01*
X109518413Y-54748443D01*
X109518412Y-54748443D01*
X109316243Y-54682754D01*
X109316241Y-54682753D01*
X109316240Y-54682753D01*
X109154957Y-54657208D01*
X109106287Y-54649500D01*
X108893713Y-54649500D01*
X108845042Y-54657208D01*
X108683760Y-54682753D01*
X108481585Y-54748444D01*
X108292179Y-54844951D01*
X108120213Y-54969890D01*
X107969890Y-55120213D01*
X107844951Y-55292179D01*
X107748444Y-55481585D01*
X107682753Y-55683760D01*
X107649500Y-55893713D01*
X106500500Y-55893713D01*
X106500500Y-53623666D01*
X106520185Y-53556627D01*
X106572989Y-53510872D01*
X106624330Y-53499666D01*
X180375336Y-53401333D01*
X180442400Y-53420928D01*
G37*
%TD.AperFunction*%
%TD*%
M02*
